G75*
G70*
%OFA0B0*%
%FSLAX24Y24*%
%IPPOS*%
%LPD*%
%AMOC8*
5,1,8,0,0,1.08239X$1,22.5*
%
%ADD10C,0.0050*%
%ADD11C,0.0000*%
%ADD12R,0.0197X0.0220*%
%ADD13R,0.0220X0.0197*%
%ADD14R,0.0315X0.0472*%
%ADD15R,0.0250X0.0472*%
%ADD16C,0.0004*%
%ADD17C,0.0433*%
%ADD18C,0.0450*%
%ADD19C,0.0709*%
%ADD20C,0.0120*%
%ADD21R,0.0600X0.0236*%
%ADD22R,0.1450X0.0350*%
%ADD23C,0.0250*%
%ADD24C,0.0850*%
%ADD25C,0.0825*%
%ADD26R,0.0394X0.0433*%
%ADD27C,0.0984*%
%ADD28C,0.0512*%
%ADD29C,0.0787*%
%ADD30R,0.0250X0.0197*%
%ADD31R,0.0472X0.0217*%
%ADD32R,0.0358X0.0480*%
%ADD33R,0.0551X0.0906*%
%ADD34R,0.0157X0.0551*%
%ADD35R,0.0354X0.0250*%
%ADD36R,0.0315X0.0354*%
%ADD37R,0.0250X0.0354*%
%ADD38R,0.0551X0.0236*%
%ADD39R,0.0551X0.1181*%
%ADD40R,0.0906X0.0551*%
%ADD41C,0.0080*%
%ADD42C,0.0240*%
%ADD43C,0.0100*%
%ADD44C,0.0160*%
%ADD45C,0.0260*%
%ADD46C,0.0200*%
%ADD47C,0.0240*%
%ADD48C,0.0300*%
%ADD49C,0.0300*%
%ADD50C,0.0320*%
%ADD51C,0.0280*%
%ADD52C,0.0180*%
%ADD53C,0.0280*%
%ADD54C,0.0236*%
%ADD55C,0.0220*%
%ADD56C,0.0260*%
%ADD57C,0.0140*%
D10*
X001427Y000927D02*
X031912Y000927D01*
X031957Y000928D01*
X032000Y000934D01*
X032044Y000943D01*
X032086Y000956D01*
X032127Y000972D01*
X032166Y000992D01*
X032204Y001015D01*
X032239Y001042D01*
X032272Y001071D01*
X032302Y001104D01*
X032329Y001138D01*
X032353Y001175D01*
X032374Y001214D01*
X032392Y001255D01*
X032405Y001297D01*
X032415Y001340D01*
X032422Y001383D01*
X032424Y001427D01*
X032423Y001427D02*
X032423Y018144D01*
X032424Y018145D02*
X032421Y018188D01*
X032415Y018232D01*
X032405Y018275D01*
X032391Y018317D01*
X032374Y018357D01*
X032353Y018396D01*
X032329Y018433D01*
X032302Y018468D01*
X032271Y018500D01*
X032239Y018529D01*
X032203Y018555D01*
X032166Y018579D01*
X032127Y018598D01*
X032086Y018615D01*
X032043Y018627D01*
X032000Y018636D01*
X031957Y018642D01*
X031912Y018643D01*
X031912Y018642D02*
X015500Y018642D01*
X015500Y018614D01*
X015496Y018586D01*
X015489Y018559D01*
X015478Y018533D01*
X015464Y018509D01*
X015447Y018487D01*
X015427Y018467D01*
X015405Y018450D01*
X015381Y018436D01*
X015355Y018425D01*
X015328Y018418D01*
X015300Y018414D01*
X015150Y018414D01*
X015122Y018418D01*
X015095Y018425D01*
X015069Y018436D01*
X015045Y018450D01*
X015023Y018467D01*
X015003Y018487D01*
X014986Y018509D01*
X014972Y018533D01*
X014961Y018559D01*
X014954Y018586D01*
X014950Y018614D01*
X014950Y018642D01*
X009762Y018642D01*
X009762Y018614D01*
X009758Y018586D01*
X009751Y018559D01*
X009740Y018533D01*
X009726Y018509D01*
X009709Y018487D01*
X009689Y018467D01*
X009667Y018450D01*
X009643Y018436D01*
X009617Y018425D01*
X009590Y018418D01*
X009562Y018414D01*
X009412Y018414D01*
X009413Y018414D02*
X009384Y018418D01*
X009357Y018425D01*
X009331Y018435D01*
X009306Y018449D01*
X009283Y018466D01*
X009263Y018486D01*
X009245Y018508D01*
X009231Y018533D01*
X009219Y018559D01*
X009212Y018586D01*
X009208Y018614D01*
X009207Y018642D01*
X001427Y018642D01*
X001383Y018640D01*
X001340Y018635D01*
X001298Y018625D01*
X001256Y018612D01*
X001216Y018596D01*
X001177Y018576D01*
X001141Y018552D01*
X001106Y018526D01*
X001074Y018497D01*
X001044Y018465D01*
X001018Y018430D01*
X000994Y018393D01*
X000974Y018355D01*
X000957Y018315D01*
X000944Y018273D01*
X000935Y018231D01*
X000929Y018187D01*
X000927Y018144D01*
X000927Y001427D01*
X000929Y001383D01*
X000935Y001340D01*
X000944Y001298D01*
X000957Y001256D01*
X000974Y001216D01*
X000994Y001177D01*
X001017Y001140D01*
X001044Y001106D01*
X001073Y001073D01*
X001106Y001044D01*
X001140Y001017D01*
X001177Y000994D01*
X001216Y000974D01*
X001256Y000957D01*
X001298Y000944D01*
X001340Y000935D01*
X001383Y000929D01*
X001427Y000927D01*
X008225Y002376D02*
X008225Y003826D01*
X009365Y003826D01*
X009365Y003586D01*
X009367Y003556D01*
X009372Y003526D01*
X009381Y003497D01*
X009394Y003470D01*
X009409Y003444D01*
X009428Y003420D01*
X009449Y003399D01*
X009473Y003380D01*
X009499Y003365D01*
X009526Y003352D01*
X009555Y003343D01*
X009585Y003338D01*
X009615Y003336D01*
X010765Y003336D01*
X010795Y003338D01*
X010825Y003343D01*
X010854Y003352D01*
X010881Y003365D01*
X010907Y003380D01*
X010931Y003399D01*
X010952Y003420D01*
X010971Y003444D01*
X010986Y003470D01*
X010999Y003497D01*
X011008Y003526D01*
X011013Y003556D01*
X011015Y003586D01*
X011015Y009086D01*
X011017Y009116D01*
X011022Y009146D01*
X011031Y009175D01*
X011044Y009202D01*
X011059Y009228D01*
X011078Y009252D01*
X011099Y009273D01*
X011123Y009292D01*
X011149Y009307D01*
X011176Y009320D01*
X011205Y009329D01*
X011235Y009334D01*
X011265Y009336D01*
X011815Y009336D01*
X011845Y009334D01*
X011875Y009329D01*
X011904Y009320D01*
X011931Y009307D01*
X011957Y009292D01*
X011981Y009273D01*
X012002Y009252D01*
X012021Y009228D01*
X012036Y009202D01*
X012049Y009175D01*
X012058Y009146D01*
X012063Y009116D01*
X012065Y009086D01*
X012065Y008686D01*
X012067Y008652D01*
X012073Y008619D01*
X012082Y008587D01*
X012095Y008556D01*
X012111Y008526D01*
X012130Y008499D01*
X012153Y008474D01*
X012178Y008451D01*
X012205Y008432D01*
X012235Y008416D01*
X012266Y008403D01*
X012298Y008394D01*
X012331Y008388D01*
X012365Y008386D01*
X014715Y008386D01*
X014738Y008384D01*
X014761Y008379D01*
X014783Y008370D01*
X014803Y008357D01*
X014821Y008342D01*
X014836Y008324D01*
X014849Y008304D01*
X014858Y008282D01*
X014863Y008259D01*
X014865Y008236D01*
X014865Y007986D01*
X014865Y007985D02*
X014868Y007957D01*
X014876Y007930D01*
X014887Y007904D01*
X014901Y007880D01*
X014919Y007858D01*
X014939Y007838D01*
X014961Y007821D01*
X014986Y007807D01*
X015012Y007796D01*
X015039Y007789D01*
X015067Y007785D01*
X015096Y007786D01*
X015665Y007786D01*
X015691Y007784D01*
X015717Y007779D01*
X015742Y007771D01*
X015765Y007759D01*
X015787Y007745D01*
X015806Y007727D01*
X015824Y007708D01*
X015838Y007686D01*
X015850Y007663D01*
X015858Y007638D01*
X015863Y007612D01*
X015865Y007586D01*
X015865Y006896D01*
X015861Y006869D01*
X015854Y006843D01*
X015843Y006818D01*
X015829Y006795D01*
X015812Y006774D01*
X015792Y006756D01*
X015769Y006741D01*
X015745Y006729D01*
X015719Y006721D01*
X015692Y006717D01*
X015665Y006716D01*
X015465Y006716D01*
X015439Y006714D01*
X015413Y006709D01*
X015388Y006701D01*
X015365Y006689D01*
X015343Y006675D01*
X015324Y006657D01*
X015306Y006638D01*
X015292Y006616D01*
X015280Y006593D01*
X015272Y006568D01*
X015267Y006542D01*
X015265Y006516D01*
X015265Y005830D01*
X015262Y005806D01*
X015256Y005784D01*
X015247Y005762D01*
X015235Y005742D01*
X015220Y005724D01*
X015203Y005708D01*
X015183Y005695D01*
X015162Y005685D01*
X015140Y005678D01*
X015117Y005674D01*
X015094Y005673D01*
X015093Y005673D02*
X014360Y005673D01*
X014360Y005674D02*
X014337Y005678D01*
X014315Y005685D01*
X014294Y005695D01*
X014275Y005708D01*
X014258Y005724D01*
X014244Y005742D01*
X014232Y005762D01*
X014223Y005783D01*
X014217Y005805D01*
X014214Y005828D01*
X014215Y005851D01*
X014215Y005913D01*
X014215Y005914D02*
X014215Y005937D01*
X014211Y005960D01*
X014205Y005982D01*
X014195Y006003D01*
X014183Y006022D01*
X014168Y006039D01*
X014150Y006054D01*
X014131Y006067D01*
X014110Y006076D01*
X014088Y006082D01*
X014065Y006086D01*
X013875Y006086D01*
X013875Y006087D02*
X013852Y006090D01*
X013830Y006097D01*
X013809Y006107D01*
X013789Y006120D01*
X013772Y006136D01*
X013756Y006153D01*
X013744Y006173D01*
X013735Y006195D01*
X013728Y006217D01*
X013725Y006240D01*
X013726Y006264D01*
X013725Y006263D02*
X013725Y007213D01*
X012725Y007213D01*
X012725Y006713D01*
X012704Y006656D01*
X012681Y006600D01*
X012654Y006546D01*
X012624Y006493D01*
X012592Y006442D01*
X012556Y006393D01*
X012518Y006346D01*
X012478Y006301D01*
X012435Y006258D01*
X012389Y006218D01*
X012341Y006181D01*
X012292Y006146D01*
X012240Y006114D01*
X012187Y006085D01*
X012187Y006086D02*
X012137Y006048D01*
X012089Y006007D01*
X012044Y005963D01*
X012002Y005917D01*
X011962Y005868D01*
X011926Y005816D01*
X011893Y005763D01*
X011863Y005708D01*
X011836Y005651D01*
X011813Y005592D01*
X011794Y005532D01*
X011778Y005471D01*
X011766Y005410D01*
X011757Y005347D01*
X011753Y005284D01*
X011752Y005222D01*
X011755Y005159D01*
X011762Y005096D01*
X011773Y005034D01*
X011787Y004973D01*
X011805Y004913D01*
X011827Y004854D01*
X011852Y004796D01*
X011881Y004740D01*
X011913Y004686D01*
X011948Y004634D01*
X011986Y004584D01*
X012027Y004536D01*
X012072Y004491D01*
X012118Y004449D01*
X012167Y004410D01*
X012219Y004374D01*
X012272Y004341D01*
X012328Y004311D01*
X012385Y004285D01*
X012443Y004262D01*
X012503Y004243D01*
X012564Y004227D01*
X012626Y004215D01*
X012688Y004207D01*
X012751Y004203D01*
X012814Y004202D01*
X012877Y004206D01*
X012939Y004213D01*
X013001Y004224D01*
X013063Y004238D01*
X013123Y004256D01*
X013182Y004278D01*
X013239Y004304D01*
X013240Y004303D02*
X013460Y004303D01*
X013660Y004103D01*
X013660Y003903D01*
X013659Y003903D02*
X013661Y003871D01*
X013666Y003839D01*
X013676Y003808D01*
X013689Y003778D01*
X013705Y003750D01*
X013724Y003724D01*
X013746Y003701D01*
X013771Y003680D01*
X013798Y003662D01*
X013827Y003648D01*
X013857Y003637D01*
X013889Y003629D01*
X013921Y003625D01*
X013953Y003625D01*
X013985Y003629D01*
X014017Y003637D01*
X014047Y003648D01*
X014076Y003662D01*
X014103Y003680D01*
X014128Y003701D01*
X014150Y003724D01*
X014169Y003750D01*
X014185Y003778D01*
X014198Y003808D01*
X014208Y003839D01*
X014213Y003871D01*
X014215Y003903D01*
X014215Y004625D01*
X014218Y004648D01*
X014225Y004670D01*
X014235Y004691D01*
X014248Y004711D01*
X014263Y004728D01*
X014281Y004743D01*
X014301Y004755D01*
X014322Y004765D01*
X014345Y004771D01*
X014368Y004774D01*
X014391Y004773D01*
X015115Y004773D01*
X015138Y004770D01*
X015160Y004763D01*
X015180Y004754D01*
X015200Y004742D01*
X015217Y004727D01*
X015232Y004710D01*
X015245Y004691D01*
X015254Y004670D01*
X015261Y004648D01*
X015264Y004626D01*
X015265Y004603D01*
X015265Y003586D01*
X015267Y003552D01*
X015273Y003519D01*
X015282Y003487D01*
X015295Y003456D01*
X015311Y003426D01*
X015330Y003399D01*
X015353Y003374D01*
X015378Y003351D01*
X015405Y003332D01*
X015435Y003316D01*
X015466Y003303D01*
X015498Y003294D01*
X015531Y003288D01*
X015565Y003286D01*
X017025Y003286D01*
X017025Y002126D01*
X008475Y002126D01*
X008445Y002128D01*
X008415Y002133D01*
X008386Y002142D01*
X008359Y002155D01*
X008333Y002170D01*
X008309Y002189D01*
X008288Y002210D01*
X008269Y002234D01*
X008254Y002260D01*
X008241Y002287D01*
X008232Y002316D01*
X008227Y002346D01*
X008225Y002376D01*
X008225Y004676D02*
X009365Y004676D01*
X009365Y009486D01*
X007615Y011236D01*
X006515Y011236D01*
X006485Y011235D01*
X006455Y011237D01*
X006426Y011243D01*
X006398Y011252D01*
X006370Y011263D01*
X006344Y011278D01*
X006320Y011296D01*
X006299Y011316D01*
X006279Y011339D01*
X006262Y011364D01*
X006248Y011390D01*
X006237Y011418D01*
X006230Y011447D01*
X006225Y011476D01*
X004475Y011476D01*
X004475Y010476D01*
X004477Y010446D01*
X004482Y010416D01*
X004491Y010387D01*
X004504Y010360D01*
X004519Y010334D01*
X004538Y010310D01*
X004559Y010289D01*
X004583Y010270D01*
X004609Y010255D01*
X004636Y010242D01*
X004665Y010233D01*
X004695Y010228D01*
X004725Y010226D01*
X007025Y010226D01*
X008225Y009026D01*
X008225Y004676D01*
X017875Y003286D02*
X017875Y002126D01*
X029775Y002126D01*
X029805Y002128D01*
X029835Y002133D01*
X029864Y002142D01*
X029891Y002155D01*
X029917Y002170D01*
X029941Y002189D01*
X029962Y002210D01*
X029981Y002234D01*
X029996Y002260D01*
X030009Y002287D01*
X030018Y002316D01*
X030023Y002346D01*
X030025Y002376D01*
X030025Y005901D01*
X028965Y005901D01*
X028965Y003636D01*
X028966Y003602D01*
X028963Y003568D01*
X028957Y003534D01*
X028947Y003502D01*
X028934Y003470D01*
X028918Y003440D01*
X028898Y003412D01*
X028876Y003386D01*
X028851Y003363D01*
X028824Y003342D01*
X028795Y003324D01*
X028764Y003310D01*
X028732Y003298D01*
X028699Y003290D01*
X028665Y003286D01*
X017875Y003286D01*
X021865Y007636D02*
X021665Y007836D01*
X020325Y007836D01*
X020295Y007838D01*
X020265Y007843D01*
X020236Y007852D01*
X020209Y007865D01*
X020183Y007880D01*
X020159Y007899D01*
X020138Y007920D01*
X020119Y007944D01*
X020104Y007970D01*
X020091Y007997D01*
X020082Y008026D01*
X020077Y008056D01*
X020075Y008086D01*
X020075Y009955D01*
X020072Y009983D01*
X020066Y010009D01*
X020056Y010035D01*
X020043Y010059D01*
X020027Y010081D01*
X020008Y010101D01*
X019986Y010118D01*
X019963Y010132D01*
X019938Y010143D01*
X019912Y010151D01*
X019885Y010155D01*
X019858Y010156D01*
X019858Y010155D02*
X018821Y010155D01*
X018798Y010157D01*
X018776Y010162D01*
X018755Y010170D01*
X018735Y010182D01*
X018718Y010197D01*
X018703Y010214D01*
X018690Y010234D01*
X018681Y010255D01*
X018676Y010277D01*
X018674Y010300D01*
X018675Y010299D02*
X018674Y010325D01*
X018670Y010349D01*
X018663Y010374D01*
X018652Y010396D01*
X018638Y010417D01*
X018621Y010436D01*
X018602Y010452D01*
X018580Y010466D01*
X018557Y010476D01*
X018533Y010483D01*
X018508Y010486D01*
X011825Y010486D01*
X011825Y012524D01*
X013725Y012524D01*
X013724Y012525D02*
X013785Y012530D01*
X013846Y012540D01*
X013905Y012553D01*
X013964Y012570D01*
X014022Y012590D01*
X014078Y012615D01*
X014132Y012642D01*
X014185Y012673D01*
X014235Y012708D01*
X014283Y012745D01*
X014329Y012786D01*
X014372Y012829D01*
X014413Y012875D01*
X014450Y012924D01*
X014484Y012974D01*
X014515Y013027D01*
X014542Y013082D01*
X014566Y013138D01*
X014586Y013196D01*
X014603Y013255D01*
X014616Y013314D01*
X014625Y013375D01*
X014625Y013374D02*
X014625Y014264D01*
X015785Y014264D01*
X015785Y012426D01*
X015787Y012396D01*
X015792Y012366D01*
X015801Y012337D01*
X015814Y012310D01*
X015829Y012284D01*
X015848Y012260D01*
X015869Y012239D01*
X015893Y012220D01*
X015919Y012205D01*
X015946Y012192D01*
X015975Y012183D01*
X016005Y012178D01*
X016035Y012176D01*
X020775Y012176D01*
X020805Y012174D01*
X020835Y012169D01*
X020864Y012160D01*
X020891Y012147D01*
X020917Y012132D01*
X020941Y012113D01*
X020962Y012092D01*
X020981Y012068D01*
X020996Y012042D01*
X021009Y012015D01*
X021018Y011986D01*
X021023Y011956D01*
X021025Y011926D01*
X021025Y010436D01*
X022075Y009376D01*
X029775Y009376D01*
X029805Y009374D01*
X029835Y009369D01*
X029864Y009360D01*
X029891Y009347D01*
X029917Y009332D01*
X029941Y009313D01*
X029962Y009292D01*
X029981Y009268D01*
X029996Y009242D01*
X030009Y009215D01*
X030018Y009186D01*
X030023Y009156D01*
X030025Y009126D01*
X030025Y006801D01*
X028965Y006801D01*
X028965Y007455D01*
X028966Y007479D01*
X028964Y007502D01*
X028958Y007524D01*
X028949Y007546D01*
X028938Y007566D01*
X028923Y007584D01*
X028906Y007600D01*
X028887Y007614D01*
X028866Y007624D01*
X028844Y007632D01*
X028822Y007636D01*
X028821Y007636D02*
X028758Y007636D01*
X028732Y007635D01*
X028706Y007639D01*
X028680Y007646D01*
X028656Y007657D01*
X028634Y007671D01*
X028614Y007688D01*
X028596Y007708D01*
X028582Y007730D01*
X028570Y007753D01*
X028563Y007779D01*
X028559Y007805D01*
X028558Y007805D02*
X028556Y007828D01*
X028551Y007851D01*
X028542Y007873D01*
X028529Y007893D01*
X028514Y007911D01*
X028496Y007926D01*
X028476Y007939D01*
X028454Y007948D01*
X028431Y007953D01*
X028408Y007955D01*
X027521Y007955D01*
X027498Y007953D01*
X027475Y007948D01*
X027453Y007939D01*
X027433Y007926D01*
X027415Y007911D01*
X027400Y007893D01*
X027387Y007873D01*
X027378Y007851D01*
X027373Y007828D01*
X027371Y007805D01*
X027367Y007779D01*
X027360Y007753D01*
X027348Y007730D01*
X027334Y007708D01*
X027316Y007688D01*
X027296Y007671D01*
X027274Y007657D01*
X027250Y007646D01*
X027224Y007639D01*
X027198Y007635D01*
X027172Y007636D01*
X027171Y007636D02*
X021865Y007636D01*
X011025Y010486D02*
X011025Y012524D01*
X010975Y012524D01*
X010025Y013374D02*
X010025Y016238D01*
X010045Y016282D01*
X010069Y016324D01*
X010096Y016364D01*
X010126Y016402D01*
X010159Y016437D01*
X010195Y016470D01*
X010233Y016500D01*
X010273Y016527D01*
X010316Y016550D01*
X010360Y016570D01*
X010405Y016587D01*
X010452Y016600D01*
X010499Y016609D01*
X010547Y016614D01*
X010596Y016616D01*
X010644Y016614D01*
X010692Y016608D01*
X010739Y016598D01*
X010786Y016585D01*
X010831Y016568D01*
X010928Y016474D02*
X013718Y016474D01*
X013719Y016474D02*
X013730Y016494D01*
X013744Y016513D01*
X013760Y016530D01*
X013778Y016545D01*
X013798Y016558D01*
X013818Y016568D01*
X014625Y016238D02*
X014625Y015114D01*
X015785Y015114D01*
X015785Y017014D01*
X015784Y017044D01*
X015779Y017073D01*
X015771Y017101D01*
X015759Y017128D01*
X015744Y017154D01*
X015727Y017178D01*
X015706Y017199D01*
X015683Y017218D01*
X015658Y017234D01*
X015632Y017246D01*
X015603Y017256D01*
X015574Y017262D01*
X015545Y017264D01*
X015500Y017264D01*
X015500Y017292D01*
X015496Y017320D01*
X015489Y017347D01*
X015478Y017373D01*
X015464Y017397D01*
X015447Y017419D01*
X015427Y017439D01*
X015405Y017456D01*
X015381Y017470D01*
X015355Y017481D01*
X015328Y017488D01*
X015300Y017492D01*
X015150Y017492D01*
X015122Y017488D01*
X015095Y017481D01*
X015069Y017470D01*
X015045Y017456D01*
X015023Y017439D01*
X015003Y017419D01*
X014986Y017397D01*
X014972Y017373D01*
X014961Y017347D01*
X014954Y017320D01*
X014950Y017292D01*
X014950Y017264D01*
X009762Y017264D01*
X009762Y017292D01*
X009758Y017320D01*
X009751Y017347D01*
X009740Y017373D01*
X009726Y017397D01*
X009709Y017419D01*
X009689Y017439D01*
X009667Y017456D01*
X009643Y017470D01*
X009617Y017481D01*
X009590Y017488D01*
X009562Y017492D01*
X009412Y017492D01*
X009413Y017493D02*
X009384Y017489D01*
X009357Y017482D01*
X009331Y017472D01*
X009306Y017458D01*
X009283Y017441D01*
X009263Y017421D01*
X009245Y017399D01*
X009231Y017374D01*
X009219Y017348D01*
X009212Y017321D01*
X009208Y017293D01*
X009207Y017265D01*
X009207Y017264D02*
X004725Y017264D01*
X004695Y017262D01*
X004665Y017257D01*
X004636Y017248D01*
X004609Y017235D01*
X004583Y017220D01*
X004559Y017201D01*
X004538Y017180D01*
X004519Y017156D01*
X004504Y017130D01*
X004491Y017103D01*
X004482Y017074D01*
X004477Y017044D01*
X004475Y017014D01*
X004475Y012326D01*
X006225Y012326D01*
X006225Y013526D01*
X005925Y013976D02*
X005625Y014076D01*
X005599Y014085D01*
X005574Y014097D01*
X005551Y014113D01*
X005530Y014131D01*
X005512Y014152D01*
X005496Y014175D01*
X005484Y014200D01*
X005475Y014226D01*
X005475Y014826D01*
X005625Y014976D02*
X005925Y015076D01*
X006075Y015226D02*
X006075Y015476D01*
X006077Y015499D01*
X006082Y015522D01*
X006091Y015544D01*
X006104Y015564D01*
X006119Y015582D01*
X006137Y015597D01*
X006157Y015610D01*
X006179Y015619D01*
X006202Y015624D01*
X006225Y015626D01*
X007675Y015626D01*
X007698Y015624D01*
X007721Y015619D01*
X007743Y015610D01*
X007763Y015597D01*
X007781Y015582D01*
X007796Y015564D01*
X007809Y015544D01*
X007818Y015522D01*
X007823Y015499D01*
X007825Y015476D01*
X007825Y014176D01*
X007869Y014174D01*
X007912Y014168D01*
X007954Y014159D01*
X007996Y014146D01*
X008036Y014129D01*
X008075Y014109D01*
X008112Y014086D01*
X008146Y014059D01*
X008179Y014030D01*
X008208Y013997D01*
X008235Y013963D01*
X008258Y013926D01*
X008278Y013887D01*
X008295Y013847D01*
X008308Y013805D01*
X008317Y013763D01*
X008323Y013720D01*
X008325Y013676D01*
X008323Y013632D01*
X008317Y013589D01*
X008308Y013547D01*
X008295Y013505D01*
X008278Y013465D01*
X008258Y013426D01*
X008235Y013389D01*
X008208Y013355D01*
X008179Y013322D01*
X008146Y013293D01*
X008112Y013266D01*
X008075Y013243D01*
X008036Y013223D01*
X007996Y013206D01*
X007954Y013193D01*
X007912Y013184D01*
X007869Y013178D01*
X007825Y013176D01*
X007825Y012636D01*
X009965Y010486D01*
X011025Y010486D01*
X010974Y012524D02*
X010914Y012527D01*
X010855Y012535D01*
X010795Y012546D01*
X010737Y012560D01*
X010680Y012578D01*
X010623Y012600D01*
X010569Y012625D01*
X010515Y012653D01*
X010464Y012684D01*
X010415Y012719D01*
X010367Y012756D01*
X010322Y012796D01*
X010280Y012839D01*
X010240Y012884D01*
X010204Y012932D01*
X010170Y012982D01*
X010139Y013033D01*
X010111Y013087D01*
X010087Y013142D01*
X010066Y013198D01*
X010048Y013256D01*
X010034Y013315D01*
X010024Y013374D01*
X005625Y014976D02*
X005599Y014967D01*
X005574Y014955D01*
X005551Y014939D01*
X005530Y014921D01*
X005512Y014900D01*
X005496Y014877D01*
X005484Y014852D01*
X005475Y014826D01*
X005925Y015076D02*
X005954Y015089D01*
X005980Y015105D01*
X006005Y015124D01*
X006027Y015146D01*
X006046Y015171D01*
X006062Y015197D01*
X006075Y015226D01*
X005925Y013976D02*
X005963Y013950D01*
X006000Y013922D01*
X006035Y013891D01*
X006067Y013857D01*
X006097Y013822D01*
X006125Y013784D01*
X006149Y013744D01*
X006170Y013703D01*
X006189Y013660D01*
X006204Y013616D01*
X006216Y013571D01*
X006225Y013526D01*
X010831Y016568D02*
X010851Y016558D01*
X010870Y016545D01*
X010888Y016530D01*
X010903Y016513D01*
X010917Y016494D01*
X010928Y016474D01*
X013819Y016568D02*
X013864Y016585D01*
X013911Y016598D01*
X013958Y016608D01*
X014006Y016614D01*
X014054Y016616D01*
X014103Y016614D01*
X014151Y016609D01*
X014198Y016600D01*
X014245Y016587D01*
X014290Y016570D01*
X014334Y016550D01*
X014377Y016527D01*
X014417Y016500D01*
X014455Y016470D01*
X014491Y016437D01*
X014524Y016402D01*
X014554Y016364D01*
X014581Y016324D01*
X014605Y016282D01*
X014625Y016238D01*
D11*
X001440Y012459D02*
X001442Y012507D01*
X001448Y012555D01*
X001458Y012602D01*
X001471Y012648D01*
X001489Y012693D01*
X001509Y012737D01*
X001534Y012779D01*
X001562Y012818D01*
X001592Y012855D01*
X001626Y012889D01*
X001663Y012921D01*
X001701Y012950D01*
X001742Y012975D01*
X001785Y012997D01*
X001830Y013015D01*
X001876Y013029D01*
X001923Y013040D01*
X001971Y013047D01*
X002019Y013050D01*
X002067Y013049D01*
X002115Y013044D01*
X002163Y013035D01*
X002209Y013023D01*
X002254Y013006D01*
X002298Y012986D01*
X002340Y012963D01*
X002380Y012936D01*
X002418Y012906D01*
X002453Y012873D01*
X002485Y012837D01*
X002515Y012799D01*
X002541Y012758D01*
X002563Y012715D01*
X002583Y012671D01*
X002598Y012626D01*
X002610Y012579D01*
X002618Y012531D01*
X002622Y012483D01*
X002622Y012435D01*
X002618Y012387D01*
X002610Y012339D01*
X002598Y012292D01*
X002583Y012247D01*
X002563Y012203D01*
X002541Y012160D01*
X002515Y012119D01*
X002485Y012081D01*
X002453Y012045D01*
X002418Y012012D01*
X002380Y011982D01*
X002340Y011955D01*
X002298Y011932D01*
X002254Y011912D01*
X002209Y011895D01*
X002163Y011883D01*
X002115Y011874D01*
X002067Y011869D01*
X002019Y011868D01*
X001971Y011871D01*
X001923Y011878D01*
X001876Y011889D01*
X001830Y011903D01*
X001785Y011921D01*
X001742Y011943D01*
X001701Y011968D01*
X001663Y011997D01*
X001626Y012029D01*
X001592Y012063D01*
X001562Y012100D01*
X001534Y012139D01*
X001509Y012181D01*
X001489Y012225D01*
X001471Y012270D01*
X001458Y012316D01*
X001448Y012363D01*
X001442Y012411D01*
X001440Y012459D01*
X001094Y017283D02*
X001096Y017313D01*
X001102Y017342D01*
X001111Y017370D01*
X001124Y017396D01*
X001141Y017421D01*
X001160Y017444D01*
X001183Y017463D01*
X001207Y017480D01*
X001234Y017493D01*
X001262Y017502D01*
X001291Y017508D01*
X001321Y017510D01*
X001351Y017508D01*
X001380Y017502D01*
X001408Y017493D01*
X001434Y017480D01*
X001459Y017463D01*
X001482Y017444D01*
X001501Y017421D01*
X001518Y017397D01*
X001531Y017370D01*
X001540Y017342D01*
X001546Y017313D01*
X001548Y017283D01*
X001546Y017253D01*
X001540Y017224D01*
X001531Y017196D01*
X001518Y017170D01*
X001501Y017145D01*
X001482Y017122D01*
X001459Y017103D01*
X001435Y017086D01*
X001408Y017073D01*
X001380Y017064D01*
X001351Y017058D01*
X001321Y017056D01*
X001291Y017058D01*
X001262Y017064D01*
X001234Y017073D01*
X001208Y017086D01*
X001183Y017103D01*
X001160Y017122D01*
X001141Y017145D01*
X001124Y017169D01*
X001111Y017196D01*
X001102Y017224D01*
X001096Y017253D01*
X001094Y017283D01*
X001440Y002959D02*
X001442Y003007D01*
X001448Y003055D01*
X001458Y003102D01*
X001471Y003148D01*
X001489Y003193D01*
X001509Y003237D01*
X001534Y003279D01*
X001562Y003318D01*
X001592Y003355D01*
X001626Y003389D01*
X001663Y003421D01*
X001701Y003450D01*
X001742Y003475D01*
X001785Y003497D01*
X001830Y003515D01*
X001876Y003529D01*
X001923Y003540D01*
X001971Y003547D01*
X002019Y003550D01*
X002067Y003549D01*
X002115Y003544D01*
X002163Y003535D01*
X002209Y003523D01*
X002254Y003506D01*
X002298Y003486D01*
X002340Y003463D01*
X002380Y003436D01*
X002418Y003406D01*
X002453Y003373D01*
X002485Y003337D01*
X002515Y003299D01*
X002541Y003258D01*
X002563Y003215D01*
X002583Y003171D01*
X002598Y003126D01*
X002610Y003079D01*
X002618Y003031D01*
X002622Y002983D01*
X002622Y002935D01*
X002618Y002887D01*
X002610Y002839D01*
X002598Y002792D01*
X002583Y002747D01*
X002563Y002703D01*
X002541Y002660D01*
X002515Y002619D01*
X002485Y002581D01*
X002453Y002545D01*
X002418Y002512D01*
X002380Y002482D01*
X002340Y002455D01*
X002298Y002432D01*
X002254Y002412D01*
X002209Y002395D01*
X002163Y002383D01*
X002115Y002374D01*
X002067Y002369D01*
X002019Y002368D01*
X001971Y002371D01*
X001923Y002378D01*
X001876Y002389D01*
X001830Y002403D01*
X001785Y002421D01*
X001742Y002443D01*
X001701Y002468D01*
X001663Y002497D01*
X001626Y002529D01*
X001592Y002563D01*
X001562Y002600D01*
X001534Y002639D01*
X001509Y002681D01*
X001489Y002725D01*
X001471Y002770D01*
X001458Y002816D01*
X001448Y002863D01*
X001442Y002911D01*
X001440Y002959D01*
X030698Y001321D02*
X030700Y001351D01*
X030706Y001380D01*
X030715Y001408D01*
X030728Y001434D01*
X030745Y001459D01*
X030764Y001482D01*
X030787Y001501D01*
X030811Y001518D01*
X030838Y001531D01*
X030866Y001540D01*
X030895Y001546D01*
X030925Y001548D01*
X030955Y001546D01*
X030984Y001540D01*
X031012Y001531D01*
X031038Y001518D01*
X031063Y001501D01*
X031086Y001482D01*
X031105Y001459D01*
X031122Y001435D01*
X031135Y001408D01*
X031144Y001380D01*
X031150Y001351D01*
X031152Y001321D01*
X031150Y001291D01*
X031144Y001262D01*
X031135Y001234D01*
X031122Y001208D01*
X031105Y001183D01*
X031086Y001160D01*
X031063Y001141D01*
X031039Y001124D01*
X031012Y001111D01*
X030984Y001102D01*
X030955Y001096D01*
X030925Y001094D01*
X030895Y001096D01*
X030866Y001102D01*
X030838Y001111D01*
X030812Y001124D01*
X030787Y001141D01*
X030764Y001160D01*
X030745Y001183D01*
X030728Y001207D01*
X030715Y001234D01*
X030706Y001262D01*
X030700Y001291D01*
X030698Y001321D01*
X030718Y002959D02*
X030720Y003007D01*
X030726Y003055D01*
X030736Y003102D01*
X030749Y003148D01*
X030767Y003193D01*
X030787Y003237D01*
X030812Y003279D01*
X030840Y003318D01*
X030870Y003355D01*
X030904Y003389D01*
X030941Y003421D01*
X030979Y003450D01*
X031020Y003475D01*
X031063Y003497D01*
X031108Y003515D01*
X031154Y003529D01*
X031201Y003540D01*
X031249Y003547D01*
X031297Y003550D01*
X031345Y003549D01*
X031393Y003544D01*
X031441Y003535D01*
X031487Y003523D01*
X031532Y003506D01*
X031576Y003486D01*
X031618Y003463D01*
X031658Y003436D01*
X031696Y003406D01*
X031731Y003373D01*
X031763Y003337D01*
X031793Y003299D01*
X031819Y003258D01*
X031841Y003215D01*
X031861Y003171D01*
X031876Y003126D01*
X031888Y003079D01*
X031896Y003031D01*
X031900Y002983D01*
X031900Y002935D01*
X031896Y002887D01*
X031888Y002839D01*
X031876Y002792D01*
X031861Y002747D01*
X031841Y002703D01*
X031819Y002660D01*
X031793Y002619D01*
X031763Y002581D01*
X031731Y002545D01*
X031696Y002512D01*
X031658Y002482D01*
X031618Y002455D01*
X031576Y002432D01*
X031532Y002412D01*
X031487Y002395D01*
X031441Y002383D01*
X031393Y002374D01*
X031345Y002369D01*
X031297Y002368D01*
X031249Y002371D01*
X031201Y002378D01*
X031154Y002389D01*
X031108Y002403D01*
X031063Y002421D01*
X031020Y002443D01*
X030979Y002468D01*
X030941Y002497D01*
X030904Y002529D01*
X030870Y002563D01*
X030840Y002600D01*
X030812Y002639D01*
X030787Y002681D01*
X030767Y002725D01*
X030749Y002770D01*
X030736Y002816D01*
X030726Y002863D01*
X030720Y002911D01*
X030718Y002959D01*
X030718Y012459D02*
X030720Y012507D01*
X030726Y012555D01*
X030736Y012602D01*
X030749Y012648D01*
X030767Y012693D01*
X030787Y012737D01*
X030812Y012779D01*
X030840Y012818D01*
X030870Y012855D01*
X030904Y012889D01*
X030941Y012921D01*
X030979Y012950D01*
X031020Y012975D01*
X031063Y012997D01*
X031108Y013015D01*
X031154Y013029D01*
X031201Y013040D01*
X031249Y013047D01*
X031297Y013050D01*
X031345Y013049D01*
X031393Y013044D01*
X031441Y013035D01*
X031487Y013023D01*
X031532Y013006D01*
X031576Y012986D01*
X031618Y012963D01*
X031658Y012936D01*
X031696Y012906D01*
X031731Y012873D01*
X031763Y012837D01*
X031793Y012799D01*
X031819Y012758D01*
X031841Y012715D01*
X031861Y012671D01*
X031876Y012626D01*
X031888Y012579D01*
X031896Y012531D01*
X031900Y012483D01*
X031900Y012435D01*
X031896Y012387D01*
X031888Y012339D01*
X031876Y012292D01*
X031861Y012247D01*
X031841Y012203D01*
X031819Y012160D01*
X031793Y012119D01*
X031763Y012081D01*
X031731Y012045D01*
X031696Y012012D01*
X031658Y011982D01*
X031618Y011955D01*
X031576Y011932D01*
X031532Y011912D01*
X031487Y011895D01*
X031441Y011883D01*
X031393Y011874D01*
X031345Y011869D01*
X031297Y011868D01*
X031249Y011871D01*
X031201Y011878D01*
X031154Y011889D01*
X031108Y011903D01*
X031063Y011921D01*
X031020Y011943D01*
X030979Y011968D01*
X030941Y011997D01*
X030904Y012029D01*
X030870Y012063D01*
X030840Y012100D01*
X030812Y012139D01*
X030787Y012181D01*
X030767Y012225D01*
X030749Y012270D01*
X030736Y012316D01*
X030726Y012363D01*
X030720Y012411D01*
X030718Y012459D01*
D12*
X018400Y009066D03*
X018400Y008619D03*
X018400Y008166D03*
X018400Y007719D03*
X018400Y007275D03*
X018400Y006829D03*
X015876Y005316D03*
X015516Y005316D03*
X015516Y004870D03*
X015876Y004870D03*
X015876Y004223D03*
X015516Y004223D03*
X015516Y003776D03*
X015876Y003776D03*
X024169Y003960D03*
X024169Y004407D03*
D13*
X024595Y004445D03*
X024595Y004035D03*
X024595Y003625D03*
X025042Y003625D03*
X025042Y004035D03*
X025042Y004445D03*
X023506Y003705D03*
X023059Y003705D03*
X022313Y005215D03*
X021866Y005215D03*
X023059Y005348D03*
X023506Y005348D03*
X024323Y006870D03*
X024323Y007296D03*
X024770Y007296D03*
X024770Y006870D03*
X017995Y005709D03*
X017549Y005709D03*
X017095Y005709D03*
X016649Y005709D03*
X012988Y005626D03*
X012541Y005626D03*
X012541Y005266D03*
X012541Y004906D03*
X012988Y004906D03*
X012988Y005266D03*
X012988Y004546D03*
X012541Y004546D03*
X012701Y013814D03*
X013148Y013814D03*
X011948Y013814D03*
X011501Y013814D03*
D14*
X011726Y014637D03*
X011242Y014637D03*
X012923Y014637D03*
X013407Y014637D03*
D15*
X012522Y014637D03*
X012128Y014637D03*
D16*
X010732Y014566D02*
X010732Y014810D01*
X010730Y014830D01*
X010725Y014849D01*
X010716Y014867D01*
X010704Y014883D01*
X010689Y014896D01*
X010672Y014907D01*
X010654Y014914D01*
X010634Y014918D01*
X010614Y014918D01*
X010594Y014914D01*
X010576Y014907D01*
X010559Y014896D01*
X010544Y014883D01*
X010532Y014867D01*
X010523Y014849D01*
X010518Y014830D01*
X010516Y014810D01*
X010516Y014566D01*
X010518Y014546D01*
X010523Y014527D01*
X010532Y014509D01*
X010544Y014493D01*
X010559Y014480D01*
X010576Y014469D01*
X010594Y014462D01*
X010614Y014458D01*
X010634Y014458D01*
X010654Y014462D01*
X010672Y014469D01*
X010689Y014480D01*
X010704Y014493D01*
X010716Y014509D01*
X010725Y014527D01*
X010730Y014546D01*
X010732Y014566D01*
X010732Y016062D02*
X010732Y016306D01*
X010730Y016326D01*
X010725Y016345D01*
X010716Y016363D01*
X010704Y016379D01*
X010689Y016392D01*
X010672Y016403D01*
X010654Y016410D01*
X010634Y016414D01*
X010614Y016414D01*
X010594Y016410D01*
X010576Y016403D01*
X010559Y016392D01*
X010544Y016379D01*
X010532Y016363D01*
X010523Y016345D01*
X010518Y016326D01*
X010516Y016306D01*
X010516Y016062D01*
X010518Y016042D01*
X010523Y016023D01*
X010532Y016005D01*
X010544Y015989D01*
X010559Y015976D01*
X010576Y015965D01*
X010594Y015958D01*
X010614Y015954D01*
X010634Y015954D01*
X010654Y015958D01*
X010672Y015965D01*
X010689Y015976D01*
X010704Y015989D01*
X010716Y016005D01*
X010725Y016023D01*
X010730Y016042D01*
X010732Y016062D01*
X013917Y016062D02*
X013917Y016306D01*
X013918Y016306D02*
X013920Y016326D01*
X013925Y016345D01*
X013934Y016363D01*
X013946Y016379D01*
X013961Y016392D01*
X013978Y016403D01*
X013996Y016410D01*
X014016Y016414D01*
X014036Y016414D01*
X014056Y016410D01*
X014074Y016403D01*
X014091Y016392D01*
X014106Y016379D01*
X014118Y016363D01*
X014127Y016345D01*
X014132Y016326D01*
X014134Y016306D01*
X014134Y016062D01*
X014132Y016042D01*
X014127Y016023D01*
X014118Y016005D01*
X014106Y015989D01*
X014091Y015976D01*
X014074Y015965D01*
X014056Y015958D01*
X014036Y015954D01*
X014016Y015954D01*
X013996Y015958D01*
X013978Y015965D01*
X013961Y015976D01*
X013946Y015989D01*
X013934Y016005D01*
X013925Y016023D01*
X013920Y016042D01*
X013918Y016062D01*
X013917Y014810D02*
X013917Y014566D01*
X013918Y014566D02*
X013920Y014546D01*
X013925Y014527D01*
X013934Y014509D01*
X013946Y014493D01*
X013961Y014480D01*
X013978Y014469D01*
X013996Y014462D01*
X014016Y014458D01*
X014036Y014458D01*
X014056Y014462D01*
X014074Y014469D01*
X014091Y014480D01*
X014106Y014493D01*
X014118Y014509D01*
X014127Y014527D01*
X014132Y014546D01*
X014134Y014566D01*
X014134Y014810D01*
X014132Y014830D01*
X014127Y014849D01*
X014118Y014867D01*
X014106Y014883D01*
X014091Y014896D01*
X014074Y014907D01*
X014056Y014914D01*
X014036Y014918D01*
X014016Y014918D01*
X013996Y014914D01*
X013978Y014907D01*
X013961Y014896D01*
X013946Y014883D01*
X013934Y014867D01*
X013925Y014849D01*
X013920Y014830D01*
X013918Y014810D01*
D17*
X014026Y014572D02*
X014026Y014572D01*
X014026Y014808D01*
X014026Y014808D01*
X014026Y014572D01*
X014026Y016068D02*
X014026Y016068D01*
X014026Y016304D01*
X014026Y016304D01*
X014026Y016068D01*
X010624Y016068D02*
X010624Y016068D01*
X010624Y016304D01*
X010624Y016304D01*
X010624Y016068D01*
X010624Y014572D02*
X010624Y014572D01*
X010624Y014808D01*
X010624Y014808D01*
X010624Y014572D01*
D18*
X013965Y005616D03*
X013965Y004816D03*
D19*
X013224Y007203D03*
D20*
X015577Y006327D02*
X015827Y006577D01*
X016127Y006577D01*
X015577Y006327D02*
X015577Y006274D01*
X014105Y004156D02*
X013825Y004156D01*
X014105Y004156D02*
X014105Y003876D01*
X013825Y003876D01*
X013825Y004156D01*
X013825Y003995D02*
X014105Y003995D01*
X014105Y004114D02*
X013825Y004114D01*
D21*
X005931Y014329D03*
X005931Y014723D03*
D22*
X006975Y015334D03*
X006975Y013717D03*
D23*
X001715Y017957D03*
X001715Y001715D03*
X031625Y001715D03*
D24*
X027965Y005636D03*
X027965Y007886D03*
X021165Y007786D03*
X020115Y007786D03*
X019290Y010111D03*
X012325Y012574D03*
D25*
X027965Y005886D03*
X027965Y005761D03*
D26*
X026706Y005383D03*
X025996Y005383D03*
X024699Y006210D03*
X023990Y006210D03*
X015279Y009150D03*
X014570Y009150D03*
X013779Y009150D03*
X013070Y009150D03*
X013070Y009801D03*
X013779Y009801D03*
X014570Y009800D03*
X015279Y009800D03*
D27*
X015496Y007842D03*
D28*
X028464Y006884D03*
X028464Y004534D03*
X028464Y003684D03*
D29*
X010365Y004186D03*
X010365Y005760D03*
D30*
X015577Y006274D03*
X016017Y006274D03*
D31*
X025677Y004684D03*
X025677Y004310D03*
X025677Y003936D03*
X026700Y003936D03*
X026700Y004310D03*
X026700Y004684D03*
D32*
X025336Y005383D03*
X024047Y005383D03*
X023011Y005956D03*
X021722Y005956D03*
D33*
X025390Y006660D03*
X026787Y006660D03*
D34*
X017859Y008068D03*
X017603Y008068D03*
X017347Y008068D03*
X017091Y008068D03*
X017091Y009800D03*
X017347Y009800D03*
X017603Y009800D03*
X017859Y009800D03*
D35*
X018925Y009174D03*
X018925Y008628D03*
X019525Y008627D03*
X019525Y009174D03*
X018925Y007404D03*
X018925Y006857D03*
X019558Y006450D03*
X019558Y005904D03*
X020161Y005904D03*
X020161Y006450D03*
X020761Y006450D03*
X020761Y005904D03*
D36*
X021722Y004679D03*
X022470Y004679D03*
X022096Y003823D03*
X017774Y006377D03*
X017026Y006377D03*
X017400Y007234D03*
D37*
X023251Y006860D03*
X023798Y006860D03*
X023636Y004820D03*
X023089Y004820D03*
X023089Y004213D03*
X023636Y004213D03*
D38*
X019015Y004218D03*
X019015Y004718D03*
X019015Y005218D03*
X016929Y005218D03*
X016929Y004718D03*
X016929Y004218D03*
X016929Y003718D03*
X019015Y003718D03*
D39*
X017972Y004468D03*
D40*
X020329Y003876D03*
X020329Y005274D03*
D41*
X020142Y004818D02*
X020856Y004818D01*
X020962Y004923D01*
X020962Y005624D01*
X020947Y005639D01*
X020957Y005639D01*
X020977Y005644D01*
X020977Y004123D01*
X020962Y004123D01*
X020962Y004226D01*
X020856Y004332D01*
X019802Y004332D01*
X019696Y004226D01*
X019696Y004084D01*
X019623Y004157D01*
X019471Y004309D01*
X019471Y004410D01*
X019463Y004418D01*
X019677Y004418D01*
X019787Y004463D01*
X020142Y004818D01*
X020098Y004774D02*
X020977Y004774D01*
X020977Y004852D02*
X020891Y004852D01*
X020962Y004931D02*
X020977Y004931D01*
X020977Y005009D02*
X020962Y005009D01*
X020962Y005088D02*
X020977Y005088D01*
X020977Y005166D02*
X020962Y005166D01*
X020962Y005245D02*
X020977Y005245D01*
X020977Y005323D02*
X020962Y005323D01*
X020962Y005402D02*
X020977Y005402D01*
X020977Y005480D02*
X020962Y005480D01*
X020962Y005559D02*
X020977Y005559D01*
X020977Y005637D02*
X020948Y005637D01*
X021500Y006376D02*
X021829Y006376D01*
X021840Y006387D01*
X021962Y006437D01*
X022093Y006437D01*
X022214Y006387D01*
X022307Y006294D01*
X022357Y006173D01*
X022357Y005898D01*
X022363Y005856D01*
X022357Y005833D01*
X022357Y005742D01*
X022307Y005620D01*
X022214Y005528D01*
X022093Y005477D01*
X022067Y005477D01*
X022118Y005426D01*
X022149Y005444D01*
X022185Y005453D01*
X022304Y005453D01*
X022304Y005224D01*
X022322Y005224D01*
X022322Y005453D01*
X022441Y005453D01*
X022477Y005444D01*
X022509Y005425D01*
X022535Y005399D01*
X022553Y005367D01*
X022563Y005332D01*
X022563Y005224D01*
X022322Y005224D01*
X022322Y005205D01*
X022557Y005205D01*
X022649Y005297D01*
X022711Y005323D01*
X022711Y005582D01*
X022652Y005641D01*
X022652Y006270D01*
X022758Y006376D01*
X023265Y006376D01*
X023371Y006270D01*
X023371Y005641D01*
X023311Y005582D01*
X023311Y005560D01*
X023342Y005577D01*
X023378Y005587D01*
X023497Y005587D01*
X023497Y005358D01*
X023515Y005358D01*
X023515Y005587D01*
X023634Y005587D01*
X023670Y005577D01*
X023688Y005567D01*
X023688Y005698D01*
X023747Y005757D01*
X023747Y005813D01*
X023719Y005813D01*
X023613Y005918D01*
X023613Y006162D01*
X023544Y006232D01*
X023498Y006342D01*
X023498Y006549D01*
X023451Y006502D01*
X023052Y006502D01*
X022946Y006608D01*
X022946Y006634D01*
X022883Y006697D01*
X022612Y006697D01*
X022490Y006748D01*
X022398Y006840D01*
X022347Y006962D01*
X022347Y007093D01*
X022378Y007167D01*
X021985Y007167D01*
X021548Y006730D01*
X021475Y006657D01*
X021379Y006617D01*
X021300Y006617D01*
X021471Y006447D01*
X021471Y006447D01*
X021500Y006376D01*
X021481Y006422D02*
X021926Y006422D01*
X022129Y006422D02*
X023498Y006422D01*
X023498Y006344D02*
X023297Y006344D01*
X023371Y006265D02*
X023530Y006265D01*
X023589Y006187D02*
X023371Y006187D01*
X023371Y006108D02*
X023613Y006108D01*
X023613Y006030D02*
X023371Y006030D01*
X023371Y005951D02*
X023613Y005951D01*
X023659Y005873D02*
X023371Y005873D01*
X023371Y005794D02*
X023747Y005794D01*
X023706Y005716D02*
X023371Y005716D01*
X023367Y005637D02*
X023688Y005637D01*
X023515Y005559D02*
X023497Y005559D01*
X023497Y005480D02*
X023515Y005480D01*
X023515Y005402D02*
X023497Y005402D01*
X022711Y005402D02*
X022532Y005402D01*
X022563Y005323D02*
X022711Y005323D01*
X022596Y005245D02*
X022563Y005245D01*
X022322Y005245D02*
X022304Y005245D01*
X022304Y005323D02*
X022322Y005323D01*
X022322Y005402D02*
X022304Y005402D01*
X022246Y005559D02*
X022711Y005559D01*
X022711Y005480D02*
X022100Y005480D01*
X022314Y005637D02*
X022656Y005637D01*
X022652Y005716D02*
X022347Y005716D01*
X022357Y005794D02*
X022652Y005794D01*
X022652Y005873D02*
X022361Y005873D01*
X022357Y005951D02*
X022652Y005951D01*
X022652Y006030D02*
X022357Y006030D01*
X022357Y006108D02*
X022652Y006108D01*
X022652Y006187D02*
X022352Y006187D01*
X022319Y006265D02*
X022652Y006265D01*
X022726Y006344D02*
X022258Y006344D01*
X022518Y006736D02*
X021554Y006736D01*
X021476Y006658D02*
X022923Y006658D01*
X022975Y006579D02*
X021338Y006579D01*
X021417Y006501D02*
X023498Y006501D01*
X024101Y006606D02*
X024103Y006608D01*
X024103Y006683D01*
X024127Y006659D01*
X024159Y006641D01*
X024195Y006631D01*
X024314Y006631D01*
X024314Y006860D01*
X024332Y006860D01*
X024332Y006631D01*
X024451Y006631D01*
X024487Y006641D01*
X024518Y006658D01*
X024517Y006658D01*
X024518Y006658D02*
X024585Y006591D01*
X024934Y006591D01*
X024934Y006561D01*
X024915Y006566D01*
X024739Y006566D01*
X024739Y006250D01*
X024659Y006250D01*
X024659Y006566D01*
X024484Y006566D01*
X024449Y006557D01*
X024417Y006538D01*
X024391Y006512D01*
X024372Y006480D01*
X024367Y006461D01*
X024367Y006501D01*
X024384Y006501D01*
X024367Y006501D02*
X024262Y006606D01*
X024101Y006606D01*
X024103Y006658D02*
X024129Y006658D01*
X024288Y006579D02*
X024934Y006579D01*
X024739Y006501D02*
X024659Y006501D01*
X024659Y006422D02*
X024739Y006422D01*
X024739Y006344D02*
X024659Y006344D01*
X024659Y006265D02*
X024739Y006265D01*
X024739Y006170D02*
X024659Y006170D01*
X024659Y005853D01*
X024484Y005853D01*
X024449Y005863D01*
X024417Y005881D01*
X024391Y005907D01*
X024372Y005939D01*
X024367Y005958D01*
X024367Y005918D01*
X024347Y005899D01*
X024347Y005757D01*
X024406Y005698D01*
X024406Y005080D01*
X024763Y004723D01*
X024780Y004723D01*
X024819Y004685D01*
X024857Y004723D01*
X025226Y004723D01*
X025261Y004689D01*
X025261Y004720D01*
X025207Y004773D01*
X025123Y004857D01*
X025077Y004968D01*
X025077Y004968D01*
X024977Y005068D01*
X024977Y005698D01*
X025077Y005798D01*
X025077Y006027D01*
X025040Y006027D01*
X025036Y006030D01*
X025037Y006030D01*
X025036Y006030D02*
X025036Y005975D01*
X025027Y005939D01*
X025008Y005907D01*
X024982Y005881D01*
X024950Y005863D01*
X024915Y005853D01*
X024739Y005853D01*
X024739Y006170D01*
X024739Y006108D02*
X024659Y006108D01*
X024659Y006030D02*
X024739Y006030D01*
X024739Y005951D02*
X024659Y005951D01*
X024659Y005873D02*
X024739Y005873D01*
X024968Y005873D02*
X025077Y005873D01*
X025077Y005951D02*
X025030Y005951D01*
X025074Y005794D02*
X024347Y005794D01*
X024347Y005873D02*
X024431Y005873D01*
X024369Y005951D02*
X024367Y005951D01*
X024388Y005716D02*
X024995Y005716D01*
X024977Y005637D02*
X024406Y005637D01*
X024406Y005559D02*
X024977Y005559D01*
X024977Y005480D02*
X024406Y005480D01*
X024406Y005402D02*
X024977Y005402D01*
X024977Y005323D02*
X024406Y005323D01*
X024406Y005245D02*
X024977Y005245D01*
X024977Y005166D02*
X024406Y005166D01*
X024406Y005088D02*
X024977Y005088D01*
X025036Y005009D02*
X024477Y005009D01*
X024556Y004931D02*
X025093Y004931D01*
X025128Y004852D02*
X024634Y004852D01*
X024713Y004774D02*
X025207Y004774D01*
X025254Y004695D02*
X025261Y004695D01*
X024829Y004695D02*
X024808Y004695D01*
X024604Y004026D02*
X024604Y003903D01*
X024586Y003903D01*
X024586Y004026D01*
X024604Y004026D01*
X024604Y003989D02*
X024586Y003989D01*
X024586Y003910D02*
X024604Y003910D01*
X024305Y003715D02*
X024305Y003682D01*
X023756Y003682D01*
X023756Y003696D01*
X023515Y003696D01*
X023515Y003714D01*
X023756Y003714D01*
X023756Y003822D01*
X023746Y003857D01*
X023728Y003889D01*
X023721Y003896D01*
X023779Y003896D01*
X023815Y003906D01*
X023847Y003924D01*
X023873Y003950D01*
X023891Y003982D01*
X023901Y004018D01*
X023901Y004191D01*
X023658Y004191D01*
X023658Y004236D01*
X023891Y004236D01*
X023891Y004222D01*
X023958Y004155D01*
X023940Y004124D01*
X023931Y004088D01*
X023931Y003969D01*
X024160Y003969D01*
X024160Y003951D01*
X023931Y003951D01*
X023931Y003832D01*
X023753Y003832D01*
X023756Y003753D02*
X023969Y003753D01*
X023959Y003764D02*
X023985Y003738D01*
X024017Y003720D01*
X024052Y003710D01*
X024160Y003710D01*
X024160Y003951D01*
X024179Y003951D01*
X024179Y003710D01*
X024286Y003710D01*
X024305Y003715D01*
X024179Y003753D02*
X024160Y003753D01*
X024160Y003832D02*
X024179Y003832D01*
X024179Y003910D02*
X024160Y003910D01*
X023931Y003910D02*
X023823Y003910D01*
X023893Y003989D02*
X023931Y003989D01*
X023931Y004067D02*
X023901Y004067D01*
X023901Y004146D02*
X023953Y004146D01*
X023891Y004224D02*
X023658Y004224D01*
X023931Y003832D02*
X023940Y003796D01*
X023959Y003764D01*
X025051Y003634D02*
X025292Y003634D01*
X025292Y003666D01*
X025348Y003666D01*
X025366Y003648D01*
X025988Y003648D01*
X026093Y003753D01*
X026093Y004119D01*
X026048Y004164D01*
X026053Y004183D01*
X026053Y004296D01*
X025691Y004296D01*
X025691Y004324D01*
X026053Y004324D01*
X026053Y004437D01*
X026048Y004456D01*
X026093Y004501D01*
X026093Y004867D01*
X025988Y004972D01*
X025842Y004972D01*
X025832Y004997D01*
X025802Y005027D01*
X025956Y005027D01*
X025956Y005343D01*
X026036Y005343D01*
X026036Y005027D01*
X026212Y005027D01*
X026247Y005036D01*
X026279Y005055D01*
X026305Y005081D01*
X026324Y005113D01*
X026329Y005132D01*
X026329Y005092D01*
X026434Y004987D01*
X026877Y004987D01*
X026877Y004972D01*
X026390Y004972D01*
X026284Y004867D01*
X026284Y004501D01*
X026288Y004497D01*
X026284Y004493D01*
X026284Y004127D01*
X026288Y004123D01*
X026284Y004119D01*
X026284Y003753D01*
X026390Y003648D01*
X027011Y003648D01*
X027019Y003656D01*
X027060Y003656D01*
X027090Y003650D01*
X027116Y003656D01*
X027142Y003656D01*
X027170Y003667D01*
X027199Y003674D01*
X027220Y003689D01*
X027245Y003699D01*
X027266Y003720D01*
X027291Y003737D01*
X027305Y003759D01*
X027323Y003777D01*
X027335Y003805D01*
X027346Y003823D01*
X027347Y003823D01*
X027432Y003907D01*
X027477Y004018D01*
X027477Y005348D01*
X027482Y005340D01*
X027534Y005268D01*
X027597Y005205D01*
X027669Y005152D01*
X027748Y005112D01*
X027832Y005085D01*
X027920Y005071D01*
X027925Y005071D01*
X027925Y005596D01*
X028005Y005596D01*
X028005Y005071D01*
X028009Y005071D01*
X028097Y005085D01*
X028182Y005112D01*
X028261Y005152D01*
X028333Y005205D01*
X028396Y005268D01*
X028448Y005340D01*
X028488Y005419D01*
X028516Y005503D01*
X028530Y005591D01*
X028530Y005596D01*
X028504Y005596D01*
X028587Y005648D01*
X028605Y005731D01*
X028637Y005876D01*
X028605Y006020D01*
X028587Y006103D01*
X028443Y006194D01*
X028426Y006190D01*
X028386Y006246D01*
X028325Y006307D01*
X028254Y006358D01*
X028177Y006398D01*
X028094Y006425D01*
X028008Y006438D01*
X028005Y006438D01*
X028005Y005926D01*
X027925Y005926D01*
X027925Y006438D01*
X027921Y006438D01*
X027835Y006425D01*
X027753Y006398D01*
X027675Y006358D01*
X027605Y006307D01*
X027543Y006246D01*
X027492Y006175D01*
X027477Y006146D01*
X027477Y006339D01*
X027507Y006412D01*
X027507Y006780D01*
X027551Y006736D01*
X027507Y006736D01*
X027551Y006736D02*
X027624Y006663D01*
X027719Y006624D01*
X027896Y006624D01*
X027923Y006557D01*
X028007Y006473D01*
X028118Y006427D01*
X028237Y006427D01*
X028332Y006467D01*
X028377Y006448D01*
X028551Y006448D01*
X028650Y006489D01*
X028650Y005866D01*
X028700Y005816D01*
X028700Y004908D01*
X028551Y004970D01*
X028377Y004970D01*
X028217Y004903D01*
X028095Y004781D01*
X028028Y004620D01*
X028028Y004447D01*
X028095Y004287D01*
X028217Y004164D01*
X028351Y004109D01*
X028217Y004053D01*
X028191Y004027D01*
X028118Y004027D01*
X028007Y003982D01*
X027923Y003897D01*
X027877Y003787D01*
X027877Y003668D01*
X027923Y003557D01*
X027930Y003551D01*
X025292Y003551D01*
X025292Y003616D01*
X025051Y003616D01*
X025051Y003634D01*
X025292Y003596D02*
X027907Y003596D01*
X027877Y003675D02*
X027201Y003675D01*
X027301Y003753D02*
X027877Y003753D01*
X027896Y003832D02*
X027356Y003832D01*
X027433Y003910D02*
X027936Y003910D01*
X028025Y003989D02*
X027465Y003989D01*
X027477Y004067D02*
X028251Y004067D01*
X028261Y004146D02*
X027477Y004146D01*
X027477Y004224D02*
X028157Y004224D01*
X028088Y004303D02*
X027477Y004303D01*
X027477Y004381D02*
X028055Y004381D01*
X028028Y004460D02*
X027477Y004460D01*
X027477Y004538D02*
X028028Y004538D01*
X028028Y004617D02*
X027477Y004617D01*
X027477Y004695D02*
X028059Y004695D01*
X028092Y004774D02*
X027477Y004774D01*
X027477Y004852D02*
X028166Y004852D01*
X028284Y004931D02*
X027477Y004931D01*
X027477Y005009D02*
X028700Y005009D01*
X028700Y004931D02*
X028644Y004931D01*
X028700Y005088D02*
X028107Y005088D01*
X028005Y005088D02*
X027925Y005088D01*
X027925Y005166D02*
X028005Y005166D01*
X028005Y005245D02*
X027925Y005245D01*
X027925Y005323D02*
X028005Y005323D01*
X028005Y005402D02*
X027925Y005402D01*
X027925Y005480D02*
X028005Y005480D01*
X028005Y005559D02*
X027925Y005559D01*
X027925Y005676D02*
X027925Y005721D01*
X028005Y005721D01*
X028005Y005676D01*
X027925Y005676D01*
X027925Y005716D02*
X028005Y005716D01*
X028005Y005801D02*
X028005Y005846D01*
X027925Y005846D01*
X027925Y005801D01*
X028005Y005801D01*
X028005Y005951D02*
X027925Y005951D01*
X027925Y006030D02*
X028005Y006030D01*
X028005Y006108D02*
X027925Y006108D01*
X027925Y006187D02*
X028005Y006187D01*
X028005Y006265D02*
X027925Y006265D01*
X027925Y006344D02*
X028005Y006344D01*
X028005Y006422D02*
X027925Y006422D01*
X027980Y006501D02*
X027507Y006501D01*
X027507Y006579D02*
X027914Y006579D01*
X027829Y006422D02*
X027507Y006422D01*
X027479Y006344D02*
X027656Y006344D01*
X027563Y006265D02*
X027477Y006265D01*
X027477Y006187D02*
X027501Y006187D01*
X026877Y006027D02*
X026877Y005780D01*
X026434Y005780D01*
X026329Y005674D01*
X026329Y005635D01*
X026324Y005654D01*
X026305Y005686D01*
X026279Y005712D01*
X026247Y005730D01*
X026212Y005740D01*
X026036Y005740D01*
X026036Y005423D01*
X025956Y005423D01*
X025956Y005740D01*
X025781Y005740D01*
X025745Y005730D01*
X025713Y005712D01*
X025696Y005694D01*
X025696Y005698D01*
X025677Y005716D01*
X025677Y006027D01*
X025740Y006027D01*
X025845Y006133D01*
X025845Y007167D01*
X026332Y007167D01*
X026332Y006133D01*
X026437Y006027D01*
X026877Y006027D01*
X026877Y005951D02*
X025677Y005951D01*
X025677Y005873D02*
X026877Y005873D01*
X026877Y005794D02*
X025677Y005794D01*
X025678Y005716D02*
X025721Y005716D01*
X025956Y005716D02*
X026036Y005716D01*
X026036Y005637D02*
X025956Y005637D01*
X025956Y005559D02*
X026036Y005559D01*
X026036Y005480D02*
X025956Y005480D01*
X025956Y005323D02*
X026036Y005323D01*
X026036Y005245D02*
X025956Y005245D01*
X025956Y005166D02*
X026036Y005166D01*
X026036Y005088D02*
X025956Y005088D01*
X025820Y005009D02*
X026411Y005009D01*
X026348Y004931D02*
X026029Y004931D01*
X026093Y004852D02*
X026284Y004852D01*
X026284Y004774D02*
X026093Y004774D01*
X026093Y004695D02*
X026284Y004695D01*
X026284Y004617D02*
X026093Y004617D01*
X026093Y004538D02*
X026284Y004538D01*
X026284Y004460D02*
X026052Y004460D01*
X026053Y004381D02*
X026284Y004381D01*
X026284Y004303D02*
X025691Y004303D01*
X026053Y004224D02*
X026284Y004224D01*
X026284Y004146D02*
X026066Y004146D01*
X026093Y004067D02*
X026284Y004067D01*
X026284Y003989D02*
X026093Y003989D01*
X026093Y003910D02*
X026284Y003910D01*
X026284Y003832D02*
X026093Y003832D01*
X026093Y003753D02*
X026284Y003753D01*
X026362Y003675D02*
X026015Y003675D01*
X026309Y005088D02*
X026333Y005088D01*
X026328Y005637D02*
X026329Y005637D01*
X026370Y005716D02*
X026272Y005716D01*
X026434Y006030D02*
X025743Y006030D01*
X025821Y006108D02*
X026356Y006108D01*
X026332Y006187D02*
X025845Y006187D01*
X025845Y006265D02*
X026332Y006265D01*
X026332Y006344D02*
X025845Y006344D01*
X025845Y006422D02*
X026332Y006422D01*
X026332Y006501D02*
X025845Y006501D01*
X025845Y006579D02*
X026332Y006579D01*
X026332Y006658D02*
X025845Y006658D01*
X025845Y006736D02*
X026332Y006736D01*
X026332Y006815D02*
X025845Y006815D01*
X025845Y006893D02*
X026332Y006893D01*
X026332Y006972D02*
X025845Y006972D01*
X025845Y007050D02*
X026332Y007050D01*
X026332Y007129D02*
X025845Y007129D01*
X024332Y006815D02*
X024314Y006815D01*
X024314Y006736D02*
X024332Y006736D01*
X024332Y006658D02*
X024314Y006658D01*
X022423Y006815D02*
X021633Y006815D01*
X021711Y006893D02*
X022376Y006893D01*
X022347Y006972D02*
X021790Y006972D01*
X021868Y007050D02*
X022347Y007050D01*
X022362Y007129D02*
X021947Y007129D01*
X019535Y006473D02*
X019535Y006428D01*
X019241Y006428D01*
X019241Y006307D01*
X019250Y006271D01*
X019269Y006239D01*
X019295Y006213D01*
X019305Y006207D01*
X019300Y006202D01*
X018618Y006202D01*
X018507Y006157D01*
X018423Y006072D01*
X018243Y005892D01*
X018232Y005867D01*
X018217Y005893D01*
X018191Y005919D01*
X018159Y005938D01*
X018124Y005947D01*
X018004Y005947D01*
X018004Y005718D01*
X017986Y005718D01*
X017986Y005947D01*
X017867Y005947D01*
X017831Y005938D01*
X017800Y005920D01*
X017733Y005987D01*
X017364Y005987D01*
X017322Y005945D01*
X017280Y005987D01*
X016911Y005987D01*
X016872Y005948D01*
X016833Y005987D01*
X016508Y005987D01*
X016456Y006009D01*
X016337Y006009D01*
X016226Y005963D01*
X016142Y005879D01*
X016112Y005807D01*
X016092Y005807D01*
X016127Y005893D01*
X016127Y005945D01*
X016172Y005996D01*
X016216Y005996D01*
X016322Y006101D01*
X016322Y006447D01*
X016216Y006553D01*
X015985Y006553D01*
X015990Y006555D01*
X015990Y006555D01*
X016123Y006760D01*
X016127Y006836D01*
X016130Y006843D01*
X016130Y006889D01*
X016132Y006934D01*
X016130Y006941D01*
X016130Y007538D01*
X016776Y006892D01*
X016776Y006716D01*
X016688Y006629D01*
X016688Y006125D01*
X016794Y006020D01*
X017258Y006020D01*
X017363Y006125D01*
X017363Y006629D01*
X017276Y006716D01*
X017276Y006877D01*
X017632Y006877D01*
X017737Y006982D01*
X017737Y007263D01*
X017820Y007180D01*
X017955Y007045D01*
X018154Y007045D01*
X018121Y007013D01*
X018121Y006644D01*
X018227Y006539D01*
X018573Y006539D01*
X018630Y006595D01*
X018673Y006552D01*
X019177Y006552D01*
X019249Y006625D01*
X019241Y006594D01*
X019241Y006473D01*
X019535Y006473D01*
X019241Y006501D02*
X018071Y006501D01*
X018071Y006573D02*
X018062Y006608D01*
X018043Y006640D01*
X018017Y006666D01*
X017985Y006685D01*
X017950Y006694D01*
X017812Y006694D01*
X017812Y006416D01*
X017735Y006416D01*
X017735Y006694D01*
X017598Y006694D01*
X017562Y006685D01*
X017530Y006666D01*
X017504Y006640D01*
X017486Y006608D01*
X017476Y006573D01*
X017476Y006416D01*
X017735Y006416D01*
X017735Y006338D01*
X017812Y006338D01*
X017812Y006060D01*
X017950Y006060D01*
X017985Y006070D01*
X018017Y006088D01*
X018043Y006114D01*
X018062Y006146D01*
X018071Y006182D01*
X018071Y006338D01*
X017812Y006338D01*
X017812Y006416D01*
X018071Y006416D01*
X018071Y006573D01*
X018069Y006579D02*
X018186Y006579D01*
X018121Y006658D02*
X018026Y006658D01*
X018121Y006736D02*
X017276Y006736D01*
X017276Y006815D02*
X018121Y006815D01*
X018121Y006893D02*
X017648Y006893D01*
X017727Y006972D02*
X018121Y006972D01*
X017950Y007050D02*
X017737Y007050D01*
X017737Y007129D02*
X017871Y007129D01*
X017793Y007207D02*
X017737Y007207D01*
X017735Y006658D02*
X017812Y006658D01*
X017812Y006579D02*
X017735Y006579D01*
X017735Y006501D02*
X017812Y006501D01*
X017812Y006422D02*
X017735Y006422D01*
X017735Y006344D02*
X017363Y006344D01*
X017363Y006422D02*
X017476Y006422D01*
X017476Y006501D02*
X017363Y006501D01*
X017363Y006579D02*
X017478Y006579D01*
X017522Y006658D02*
X017334Y006658D01*
X016776Y006736D02*
X016108Y006736D01*
X016123Y006760D02*
X016123Y006760D01*
X016126Y006815D02*
X016776Y006815D01*
X016775Y006893D02*
X016130Y006893D01*
X016130Y006972D02*
X016696Y006972D01*
X016618Y007050D02*
X016130Y007050D01*
X016130Y007129D02*
X016539Y007129D01*
X016461Y007207D02*
X016130Y007207D01*
X016130Y007286D02*
X016382Y007286D01*
X016304Y007364D02*
X016130Y007364D01*
X016130Y007443D02*
X016225Y007443D01*
X016147Y007521D02*
X016130Y007521D01*
X016618Y007757D02*
X016832Y007757D01*
X016832Y007718D02*
X016861Y007689D01*
X016861Y007514D01*
X016096Y008279D01*
X016096Y008285D01*
X016050Y008396D01*
X015966Y008480D01*
X015856Y008526D01*
X015740Y008526D01*
X015610Y008543D01*
X015556Y008566D01*
X015436Y008566D01*
X015381Y008543D01*
X015252Y008526D01*
X015136Y008526D01*
X015048Y008489D01*
X015019Y008539D01*
X015019Y008539D01*
X015019Y008539D01*
X014826Y008651D01*
X014414Y008651D01*
X014457Y008754D01*
X014842Y008754D01*
X014925Y008837D01*
X015008Y008754D01*
X015551Y008754D01*
X015656Y008859D01*
X015656Y009006D01*
X017840Y009006D01*
X018013Y009077D01*
X018067Y009132D01*
X018067Y009086D01*
X018107Y008991D01*
X018121Y008976D01*
X018121Y008881D01*
X018160Y008842D01*
X018121Y008803D01*
X018121Y008756D01*
X017146Y008756D01*
X016965Y008652D01*
X016965Y008652D01*
X016965Y008652D01*
X016861Y008471D01*
X016861Y008447D01*
X016832Y008418D01*
X016832Y007718D01*
X016861Y007678D02*
X016697Y007678D01*
X016775Y007600D02*
X016861Y007600D01*
X016854Y007521D02*
X016861Y007521D01*
X016832Y007835D02*
X016540Y007835D01*
X016461Y007914D02*
X016832Y007914D01*
X016832Y007992D02*
X016383Y007992D01*
X016304Y008071D02*
X016832Y008071D01*
X016832Y008149D02*
X016226Y008149D01*
X016147Y008228D02*
X016832Y008228D01*
X016832Y008306D02*
X016087Y008306D01*
X016055Y008385D02*
X016832Y008385D01*
X016861Y008463D02*
X015982Y008463D01*
X015618Y008542D02*
X016902Y008542D01*
X016947Y008620D02*
X014878Y008620D01*
X015014Y008542D02*
X015374Y008542D01*
X015574Y008777D02*
X018121Y008777D01*
X018147Y008856D02*
X015653Y008856D01*
X015656Y008934D02*
X018121Y008934D01*
X018098Y009013D02*
X017857Y009013D01*
X018013Y009077D02*
X018013Y009077D01*
X018027Y009091D02*
X018067Y009091D01*
X017047Y008699D02*
X014434Y008699D01*
X014865Y008777D02*
X014985Y008777D01*
X013110Y009190D02*
X013110Y009761D01*
X013030Y009761D01*
X012733Y009761D01*
X012733Y009566D01*
X012743Y009530D01*
X012761Y009498D01*
X012784Y009476D01*
X012761Y009453D01*
X012743Y009421D01*
X012733Y009385D01*
X012733Y009190D01*
X013030Y009190D01*
X013030Y009110D01*
X012733Y009110D01*
X012733Y008966D01*
X012665Y008966D01*
X012665Y009380D01*
X012566Y009619D01*
X012383Y009802D01*
X012144Y009901D01*
X010936Y009901D01*
X010678Y009794D01*
X010676Y009792D01*
X010701Y009827D01*
X010817Y009911D01*
X010953Y009955D01*
X012733Y009955D01*
X012733Y009961D02*
X012733Y009841D01*
X013030Y009841D01*
X013030Y009761D01*
X013030Y009507D01*
X013030Y009190D01*
X013110Y009190D01*
X013110Y009248D02*
X013030Y009248D01*
X013030Y009170D02*
X012665Y009170D01*
X012665Y009248D02*
X012733Y009248D01*
X012733Y009327D02*
X012665Y009327D01*
X012654Y009405D02*
X012739Y009405D01*
X012776Y009484D02*
X012622Y009484D01*
X012589Y009562D02*
X012734Y009562D01*
X012733Y009641D02*
X012544Y009641D01*
X012566Y009619D02*
X012566Y009619D01*
X012465Y009719D02*
X012733Y009719D01*
X012733Y009876D02*
X012203Y009876D01*
X012383Y009802D02*
X012383Y009802D01*
X012387Y009798D02*
X013030Y009798D01*
X013030Y009719D02*
X013110Y009719D01*
X013110Y009641D02*
X013030Y009641D01*
X013030Y009562D02*
X013110Y009562D01*
X013110Y009484D02*
X013030Y009484D01*
X013030Y009405D02*
X013110Y009405D01*
X013110Y009327D02*
X013030Y009327D01*
X012733Y009091D02*
X012665Y009091D01*
X012665Y009013D02*
X012733Y009013D01*
X012733Y009961D02*
X011025Y009961D01*
X010953Y009955D01*
X010877Y009876D02*
X010770Y009876D01*
X010688Y009798D02*
X010680Y009798D01*
X010678Y009794D02*
X010678Y009794D01*
X010185Y010112D02*
X009113Y010112D01*
X009035Y010190D02*
X010242Y010190D01*
X010264Y010221D02*
X010089Y009980D01*
X009987Y009668D01*
X009987Y009446D01*
X009987Y006826D01*
X009630Y006468D01*
X009630Y009538D01*
X009589Y009636D01*
X009515Y009710D01*
X007765Y011460D01*
X007668Y011501D01*
X006555Y011501D01*
X006542Y011504D01*
X006502Y011501D01*
X006490Y011501D01*
X006490Y013362D01*
X007636Y013362D01*
X007600Y013326D01*
X007560Y013228D01*
X007560Y012636D01*
X007560Y012584D01*
X007560Y012583D01*
X007580Y012534D01*
X007600Y012486D01*
X007600Y012486D01*
X007600Y012486D01*
X007637Y012448D01*
X009740Y010336D01*
X009740Y010336D01*
X009777Y010299D01*
X009814Y010261D01*
X009814Y010261D01*
X009815Y010261D01*
X009863Y010241D01*
X009911Y010221D01*
X009912Y010221D01*
X009912Y010221D01*
X009964Y010221D01*
X010017Y010221D01*
X010264Y010221D01*
X010128Y010033D02*
X009192Y010033D01*
X009270Y009955D02*
X010081Y009955D01*
X010089Y009980D02*
X010089Y009980D01*
X010055Y009876D02*
X009349Y009876D01*
X009427Y009798D02*
X010030Y009798D01*
X010004Y009719D02*
X009506Y009719D01*
X009515Y009710D02*
X009515Y009710D01*
X009584Y009641D02*
X009987Y009641D01*
X009987Y009562D02*
X009620Y009562D01*
X009630Y009484D02*
X009987Y009484D01*
X009987Y009405D02*
X009630Y009405D01*
X009630Y009327D02*
X009987Y009327D01*
X009987Y009248D02*
X009630Y009248D01*
X009630Y009170D02*
X009987Y009170D01*
X009987Y009091D02*
X009630Y009091D01*
X009630Y009013D02*
X009987Y009013D01*
X009987Y008934D02*
X009630Y008934D01*
X009630Y008856D02*
X009987Y008856D01*
X009987Y008777D02*
X009630Y008777D01*
X009630Y008699D02*
X009987Y008699D01*
X009987Y008620D02*
X009630Y008620D01*
X009630Y008542D02*
X009987Y008542D01*
X009987Y008463D02*
X009630Y008463D01*
X009630Y008385D02*
X009987Y008385D01*
X009987Y008306D02*
X009630Y008306D01*
X009630Y008228D02*
X009987Y008228D01*
X009987Y008149D02*
X009630Y008149D01*
X009630Y008071D02*
X009987Y008071D01*
X009987Y007992D02*
X009630Y007992D01*
X009630Y007914D02*
X009987Y007914D01*
X009987Y007835D02*
X009630Y007835D01*
X009630Y007757D02*
X009987Y007757D01*
X009987Y007678D02*
X009630Y007678D01*
X009630Y007600D02*
X009987Y007600D01*
X009987Y007521D02*
X009630Y007521D01*
X009630Y007443D02*
X009987Y007443D01*
X009987Y007364D02*
X009630Y007364D01*
X009630Y007286D02*
X009987Y007286D01*
X009987Y007207D02*
X009630Y007207D01*
X009630Y007129D02*
X009987Y007129D01*
X009987Y007050D02*
X009630Y007050D01*
X009630Y006972D02*
X009987Y006972D01*
X009987Y006893D02*
X009630Y006893D01*
X009630Y006815D02*
X009977Y006815D01*
X009898Y006736D02*
X009630Y006736D01*
X009630Y006658D02*
X009820Y006658D01*
X009741Y006579D02*
X009630Y006579D01*
X009630Y006501D02*
X009663Y006501D01*
X007960Y006501D02*
X006501Y006501D01*
X006501Y006579D02*
X007960Y006579D01*
X007960Y006658D02*
X006501Y006658D01*
X006501Y006736D02*
X007960Y006736D01*
X007960Y006815D02*
X006501Y006815D01*
X006501Y006893D02*
X007960Y006893D01*
X007960Y006972D02*
X006501Y006972D01*
X006501Y007050D02*
X007960Y007050D01*
X007960Y007129D02*
X006501Y007129D01*
X006501Y007207D02*
X007960Y007207D01*
X007960Y007286D02*
X006501Y007286D01*
X006501Y007364D02*
X007960Y007364D01*
X007960Y007443D02*
X006501Y007443D01*
X006501Y007521D02*
X007960Y007521D01*
X007960Y007600D02*
X006501Y007600D01*
X006501Y007678D02*
X007960Y007678D01*
X007960Y007757D02*
X006501Y007757D01*
X006501Y007835D02*
X007960Y007835D01*
X007960Y007914D02*
X006501Y007914D01*
X006501Y007992D02*
X007960Y007992D01*
X007960Y008071D02*
X006501Y008071D01*
X006501Y008149D02*
X007960Y008149D01*
X007960Y008228D02*
X006501Y008228D01*
X006501Y008306D02*
X007960Y008306D01*
X007960Y008385D02*
X006481Y008385D01*
X006501Y008365D02*
X006396Y008470D01*
X004247Y008470D01*
X004141Y008365D01*
X004141Y006415D01*
X004247Y006310D01*
X006396Y006310D01*
X006501Y006415D01*
X006501Y008365D01*
X006402Y008463D02*
X007960Y008463D01*
X007960Y008542D02*
X001192Y008542D01*
X001192Y008620D02*
X007960Y008620D01*
X007960Y008699D02*
X001192Y008699D01*
X001192Y008777D02*
X007960Y008777D01*
X007960Y008856D02*
X001192Y008856D01*
X001192Y008934D02*
X007941Y008934D01*
X007960Y008916D02*
X007960Y002273D01*
X008038Y002084D01*
X008183Y001939D01*
X008183Y001939D01*
X008372Y001861D01*
X029877Y001861D01*
X030067Y001939D01*
X030211Y002084D01*
X030290Y002273D01*
X030290Y009228D01*
X030211Y009417D01*
X030067Y009562D01*
X030067Y009562D01*
X030067Y009562D01*
X029877Y009641D01*
X022185Y009641D01*
X032158Y009641D01*
X032158Y009719D02*
X022107Y009719D01*
X022030Y009798D02*
X032158Y009798D01*
X032158Y009876D02*
X021952Y009876D01*
X021874Y009955D02*
X032158Y009955D01*
X032158Y010033D02*
X021796Y010033D01*
X021718Y010112D02*
X032158Y010112D01*
X032158Y010190D02*
X021641Y010190D01*
X021563Y010269D02*
X032158Y010269D01*
X032158Y010347D02*
X021485Y010347D01*
X021407Y010426D02*
X032158Y010426D01*
X032158Y010504D02*
X021330Y010504D01*
X021290Y010545D02*
X021290Y012028D01*
X021211Y012217D01*
X021067Y012362D01*
X021067Y012362D01*
X020877Y012441D01*
X016050Y012441D01*
X016050Y014195D01*
X016060Y014205D01*
X016060Y015162D01*
X016050Y015172D01*
X016050Y017012D01*
X016052Y017110D01*
X016052Y017110D01*
X015978Y017299D01*
X015978Y017299D01*
X015837Y017446D01*
X015717Y017498D01*
X015709Y017523D01*
X015692Y017542D01*
X015692Y018364D01*
X015703Y018377D01*
X031861Y018377D01*
X031863Y018377D01*
X031914Y018377D01*
X031916Y018377D01*
X031963Y018373D01*
X032049Y018339D01*
X032116Y018273D01*
X032153Y018187D01*
X032158Y018141D01*
X032158Y001430D01*
X032153Y001383D01*
X032116Y001297D01*
X032049Y001231D01*
X031962Y001196D01*
X031916Y001192D01*
X031914Y001192D01*
X031863Y001193D01*
X031861Y001192D01*
X031377Y001192D01*
X031392Y001228D01*
X031392Y001414D01*
X031321Y001586D01*
X031190Y001717D01*
X031018Y001788D01*
X030832Y001788D01*
X030661Y001717D01*
X030529Y001586D01*
X030458Y001414D01*
X030458Y001228D01*
X030473Y001192D01*
X001427Y001192D01*
X001382Y001197D01*
X001297Y001232D01*
X001232Y001297D01*
X001197Y001382D01*
X001192Y001427D01*
X001192Y016831D01*
X001228Y016816D01*
X001414Y016816D01*
X001586Y016887D01*
X001717Y017019D01*
X001788Y017190D01*
X001788Y017376D01*
X001717Y017548D01*
X001586Y017679D01*
X001414Y017750D01*
X001228Y017750D01*
X001192Y017735D01*
X001192Y018144D01*
X001197Y018189D01*
X001232Y018274D01*
X001297Y018338D01*
X001381Y018373D01*
X001427Y018377D01*
X001480Y018377D01*
X008942Y018377D01*
X008942Y017529D01*
X004622Y017529D01*
X004433Y017451D01*
X004288Y017306D01*
X004210Y017117D01*
X004210Y010373D01*
X004288Y010184D01*
X004433Y010039D01*
X004433Y010039D01*
X004622Y009961D01*
X006915Y009961D01*
X007960Y008916D01*
X007863Y009013D02*
X001192Y009013D01*
X001192Y009091D02*
X007784Y009091D01*
X007706Y009170D02*
X001192Y009170D01*
X001192Y009248D02*
X007627Y009248D01*
X007549Y009327D02*
X001192Y009327D01*
X001192Y009405D02*
X007470Y009405D01*
X007392Y009484D02*
X001192Y009484D01*
X001192Y009562D02*
X007313Y009562D01*
X007235Y009641D02*
X001192Y009641D01*
X001192Y009719D02*
X007156Y009719D01*
X007078Y009798D02*
X001192Y009798D01*
X001192Y009876D02*
X006999Y009876D01*
X006921Y009955D02*
X001192Y009955D01*
X001192Y010033D02*
X004447Y010033D01*
X004360Y010112D02*
X001192Y010112D01*
X001192Y010190D02*
X004286Y010190D01*
X004288Y010184D02*
X004288Y010184D01*
X004253Y010269D02*
X001192Y010269D01*
X001192Y010347D02*
X004220Y010347D01*
X004210Y010426D02*
X001192Y010426D01*
X001192Y010504D02*
X004210Y010504D01*
X004210Y010583D02*
X001192Y010583D01*
X001192Y010661D02*
X004210Y010661D01*
X004210Y010740D02*
X001192Y010740D01*
X001192Y010818D02*
X004210Y010818D01*
X004210Y010897D02*
X001192Y010897D01*
X001192Y010975D02*
X004210Y010975D01*
X004210Y011054D02*
X001192Y011054D01*
X001192Y011132D02*
X004210Y011132D01*
X004210Y011211D02*
X001192Y011211D01*
X001192Y011289D02*
X004210Y011289D01*
X004210Y011368D02*
X001192Y011368D01*
X001192Y011446D02*
X004210Y011446D01*
X004210Y011525D02*
X001192Y011525D01*
X001192Y011603D02*
X004210Y011603D01*
X004210Y011682D02*
X002325Y011682D01*
X002196Y011628D02*
X002501Y011755D01*
X002735Y011988D01*
X002861Y012294D01*
X002861Y012624D01*
X004210Y012624D01*
X004210Y012702D02*
X002829Y012702D01*
X002861Y012624D02*
X002735Y012929D01*
X002501Y013163D01*
X002196Y013289D01*
X001865Y013289D01*
X001560Y013163D01*
X001326Y012929D01*
X001200Y012624D01*
X001192Y012624D01*
X001200Y012624D02*
X001200Y012294D01*
X001326Y011988D01*
X001560Y011755D01*
X001865Y011628D01*
X002196Y011628D01*
X002507Y011760D02*
X004210Y011760D01*
X004210Y011839D02*
X002585Y011839D01*
X002664Y011917D02*
X004210Y011917D01*
X004210Y011996D02*
X002738Y011996D01*
X002770Y012074D02*
X004210Y012074D01*
X004210Y012153D02*
X002803Y012153D01*
X002835Y012231D02*
X004210Y012231D01*
X004210Y012310D02*
X002861Y012310D01*
X002861Y012388D02*
X004210Y012388D01*
X004210Y012467D02*
X002861Y012467D01*
X002861Y012545D02*
X004210Y012545D01*
X004210Y012781D02*
X002796Y012781D01*
X002764Y012859D02*
X004210Y012859D01*
X004210Y012938D02*
X002726Y012938D01*
X002648Y013016D02*
X004210Y013016D01*
X004210Y013095D02*
X002569Y013095D01*
X002476Y013173D02*
X004210Y013173D01*
X004210Y013252D02*
X002286Y013252D01*
X001775Y013252D02*
X001192Y013252D01*
X001192Y013330D02*
X004210Y013330D01*
X004210Y013409D02*
X001192Y013409D01*
X001192Y013487D02*
X004210Y013487D01*
X004210Y013566D02*
X001192Y013566D01*
X001192Y013644D02*
X004210Y013644D01*
X004210Y013723D02*
X001192Y013723D01*
X001192Y013801D02*
X004210Y013801D01*
X004210Y013880D02*
X001192Y013880D01*
X001192Y013958D02*
X004210Y013958D01*
X004210Y014037D02*
X001192Y014037D01*
X001192Y014115D02*
X004210Y014115D01*
X004210Y014194D02*
X001192Y014194D01*
X001192Y014272D02*
X004210Y014272D01*
X004210Y014351D02*
X001192Y014351D01*
X001192Y014429D02*
X004210Y014429D01*
X004210Y014508D02*
X001192Y014508D01*
X001192Y014586D02*
X004210Y014586D01*
X004210Y014665D02*
X001192Y014665D01*
X001192Y014743D02*
X004210Y014743D01*
X004210Y014822D02*
X001192Y014822D01*
X001192Y014900D02*
X004210Y014900D01*
X004210Y014979D02*
X001192Y014979D01*
X001192Y015057D02*
X004210Y015057D01*
X004210Y015136D02*
X001192Y015136D01*
X001192Y015214D02*
X004210Y015214D01*
X004210Y015293D02*
X001192Y015293D01*
X001192Y015371D02*
X004210Y015371D01*
X004210Y015450D02*
X001192Y015450D01*
X001192Y015528D02*
X004210Y015528D01*
X004210Y015607D02*
X001192Y015607D01*
X001192Y015685D02*
X004210Y015685D01*
X004210Y015764D02*
X001192Y015764D01*
X001192Y015842D02*
X004210Y015842D01*
X004210Y015921D02*
X001192Y015921D01*
X001192Y015999D02*
X004210Y015999D01*
X004210Y016078D02*
X001192Y016078D01*
X001192Y016156D02*
X004210Y016156D01*
X004210Y016235D02*
X001192Y016235D01*
X001192Y016313D02*
X004210Y016313D01*
X004210Y016392D02*
X001192Y016392D01*
X001192Y016470D02*
X004210Y016470D01*
X004210Y016549D02*
X001192Y016549D01*
X001192Y016627D02*
X004210Y016627D01*
X004210Y016706D02*
X001192Y016706D01*
X001192Y016784D02*
X004210Y016784D01*
X004210Y016863D02*
X001527Y016863D01*
X001640Y016941D02*
X004210Y016941D01*
X004210Y017020D02*
X001717Y017020D01*
X001750Y017098D02*
X004210Y017098D01*
X004235Y017177D02*
X001783Y017177D01*
X001788Y017255D02*
X004267Y017255D01*
X004288Y017306D02*
X004288Y017306D01*
X004316Y017334D02*
X001788Y017334D01*
X001773Y017412D02*
X004395Y017412D01*
X004433Y017451D02*
X004433Y017451D01*
X004530Y017491D02*
X001741Y017491D01*
X001695Y017569D02*
X008942Y017569D01*
X008942Y017648D02*
X001617Y017648D01*
X001654Y017652D02*
X001775Y017652D01*
X001888Y017698D01*
X001973Y017784D01*
X002020Y017896D01*
X002020Y018017D01*
X001973Y018129D01*
X001888Y018215D01*
X001775Y018262D01*
X001654Y018262D01*
X001542Y018215D01*
X001456Y018129D01*
X001410Y018017D01*
X001410Y017896D01*
X001456Y017784D01*
X001542Y017698D01*
X001654Y017652D01*
X001514Y017726D02*
X001472Y017726D01*
X001447Y017805D02*
X001192Y017805D01*
X001192Y017883D02*
X001415Y017883D01*
X001410Y017962D02*
X001192Y017962D01*
X001192Y018040D02*
X001419Y018040D01*
X001452Y018119D02*
X001192Y018119D01*
X001200Y018197D02*
X001524Y018197D01*
X001480Y018377D02*
X001480Y018377D01*
X001427Y018377D02*
X001427Y018377D01*
X001337Y018354D02*
X008942Y018354D01*
X008942Y018276D02*
X001234Y018276D01*
X001905Y018197D02*
X008942Y018197D01*
X008942Y018119D02*
X001978Y018119D01*
X002010Y018040D02*
X008942Y018040D01*
X008942Y017962D02*
X002020Y017962D01*
X002015Y017883D02*
X008942Y017883D01*
X008942Y017805D02*
X001982Y017805D01*
X001916Y017726D02*
X008942Y017726D01*
X011021Y016209D02*
X013629Y016209D01*
X013629Y015989D01*
X013689Y015843D01*
X013801Y015731D01*
X013947Y015671D01*
X014104Y015671D01*
X014250Y015731D01*
X014360Y015841D01*
X014360Y015034D01*
X014250Y015144D01*
X014104Y015204D01*
X013947Y015204D01*
X013801Y015144D01*
X013689Y015032D01*
X013664Y014972D01*
X013651Y014985D01*
X013619Y015004D01*
X013583Y015013D01*
X013446Y015013D01*
X013446Y014676D01*
X013369Y014676D01*
X013369Y015013D01*
X013232Y015013D01*
X013220Y015010D01*
X013215Y015118D01*
X013069Y015432D01*
X012813Y015666D01*
X012653Y015725D01*
X012613Y015820D01*
X012517Y015916D01*
X012392Y015967D01*
X012257Y015967D01*
X012132Y015916D01*
X012037Y015820D01*
X011996Y015723D01*
X011839Y015665D01*
X011839Y015665D01*
X011582Y015430D01*
X011582Y015430D01*
X011434Y015114D01*
X011434Y015114D01*
X011430Y015010D01*
X011418Y015013D01*
X011281Y015013D01*
X011281Y014676D01*
X011203Y014676D01*
X011203Y015013D01*
X011066Y015013D01*
X011031Y015004D01*
X010999Y014985D01*
X010985Y014972D01*
X010960Y015032D01*
X010849Y015144D01*
X010703Y015204D01*
X010545Y015204D01*
X010399Y015144D01*
X010290Y015034D01*
X010290Y015841D01*
X010399Y015731D01*
X010545Y015671D01*
X010703Y015671D01*
X010849Y015731D01*
X010960Y015843D01*
X011021Y015989D01*
X011021Y016209D01*
X011021Y016156D02*
X013629Y016156D01*
X013629Y016078D02*
X011021Y016078D01*
X011021Y015999D02*
X013629Y015999D01*
X013657Y015921D02*
X012505Y015921D01*
X012591Y015842D02*
X013690Y015842D01*
X013768Y015764D02*
X012636Y015764D01*
X012760Y015685D02*
X013912Y015685D01*
X014139Y015685D02*
X014360Y015685D01*
X014360Y015607D02*
X012878Y015607D01*
X012813Y015666D02*
X012813Y015666D01*
X012964Y015528D02*
X014360Y015528D01*
X014360Y015450D02*
X013049Y015450D01*
X013069Y015432D02*
X013069Y015432D01*
X013097Y015371D02*
X014360Y015371D01*
X014360Y015293D02*
X013134Y015293D01*
X013170Y015214D02*
X014360Y015214D01*
X014360Y015136D02*
X014258Y015136D01*
X014337Y015057D02*
X014360Y015057D01*
X013793Y015136D02*
X013207Y015136D01*
X013215Y015118D02*
X013215Y015118D01*
X013218Y015057D02*
X013715Y015057D01*
X013667Y014979D02*
X013657Y014979D01*
X013446Y014979D02*
X013369Y014979D01*
X013369Y014900D02*
X013446Y014900D01*
X013446Y014822D02*
X013369Y014822D01*
X013369Y014743D02*
X013446Y014743D01*
X013446Y014598D02*
X013446Y014261D01*
X013583Y014261D01*
X013619Y014270D01*
X013651Y014289D01*
X013677Y014315D01*
X013693Y014343D01*
X013801Y014235D01*
X013947Y014175D01*
X014104Y014175D01*
X014250Y014235D01*
X014360Y014345D01*
X014360Y013395D01*
X014344Y013309D01*
X014269Y013130D01*
X014148Y012978D01*
X013989Y012866D01*
X013806Y012801D01*
X013713Y012789D01*
X012891Y012789D01*
X012838Y012917D01*
X012823Y012931D01*
X012837Y012966D01*
X012837Y013089D01*
X012790Y013203D01*
X012703Y013290D01*
X012589Y013337D01*
X012066Y013337D01*
X011952Y013290D01*
X011865Y013203D01*
X011817Y013089D01*
X011817Y012966D01*
X011830Y012935D01*
X011812Y012917D01*
X011756Y012783D01*
X011675Y012749D01*
X011665Y012739D01*
X011185Y012739D01*
X011175Y012749D01*
X011078Y012789D01*
X010982Y012789D01*
X010882Y012799D01*
X010690Y012861D01*
X010522Y012974D01*
X010391Y013128D01*
X010308Y013313D01*
X010290Y013399D01*
X010290Y014345D01*
X010399Y014235D01*
X010545Y014175D01*
X010703Y014175D01*
X010849Y014235D01*
X010956Y014343D01*
X010973Y014315D01*
X010999Y014289D01*
X011031Y014270D01*
X011066Y014261D01*
X011203Y014261D01*
X011203Y014598D01*
X011281Y014598D01*
X011281Y014261D01*
X011418Y014261D01*
X011447Y014268D01*
X011494Y014221D01*
X011898Y014221D01*
X011898Y014093D01*
X011764Y014093D01*
X011696Y014025D01*
X011665Y014043D01*
X011630Y014053D01*
X011511Y014053D01*
X011511Y013824D01*
X011492Y013824D01*
X011492Y014053D01*
X011373Y014053D01*
X011337Y014043D01*
X011305Y014025D01*
X011279Y013999D01*
X011261Y013967D01*
X011251Y013931D01*
X011251Y013824D01*
X011492Y013824D01*
X011492Y013805D01*
X011251Y013805D01*
X011251Y013697D01*
X011261Y013662D01*
X011279Y013630D01*
X011305Y013604D01*
X011337Y013585D01*
X011373Y013576D01*
X011492Y013576D01*
X011492Y013805D01*
X011511Y013805D01*
X011511Y013576D01*
X011630Y013576D01*
X011665Y013585D01*
X011696Y013603D01*
X011764Y013536D01*
X012133Y013536D01*
X012238Y013641D01*
X012238Y013688D01*
X012248Y013694D01*
X012248Y013694D01*
X012248Y013694D01*
X012325Y013827D01*
X012401Y013694D01*
X012401Y013694D01*
X012401Y013694D01*
X012411Y013688D01*
X012411Y013641D01*
X012517Y013536D01*
X012886Y013536D01*
X012953Y013603D01*
X012984Y013585D01*
X013020Y013576D01*
X013139Y013576D01*
X013139Y013805D01*
X013157Y013805D01*
X013157Y013576D01*
X013277Y013576D01*
X013312Y013585D01*
X013344Y013604D01*
X013370Y013630D01*
X013389Y013662D01*
X013398Y013697D01*
X013398Y013805D01*
X013157Y013805D01*
X013157Y013824D01*
X013139Y013824D01*
X013139Y014053D01*
X013020Y014053D01*
X012984Y014043D01*
X012953Y014025D01*
X012886Y014093D01*
X012752Y014093D01*
X012752Y014221D01*
X013155Y014221D01*
X013203Y014268D01*
X013232Y014261D01*
X013369Y014261D01*
X013369Y014598D01*
X013446Y014598D01*
X013446Y014586D02*
X013369Y014586D01*
X013369Y014508D02*
X013446Y014508D01*
X013446Y014429D02*
X013369Y014429D01*
X013369Y014351D02*
X013446Y014351D01*
X013446Y014272D02*
X013369Y014272D01*
X013312Y014043D02*
X013277Y014053D01*
X013157Y014053D01*
X013157Y013824D01*
X013398Y013824D01*
X013398Y013931D01*
X013389Y013967D01*
X013370Y013999D01*
X013344Y014025D01*
X013312Y014043D01*
X013323Y014037D02*
X014360Y014037D01*
X014360Y014115D02*
X012752Y014115D01*
X012752Y014194D02*
X013901Y014194D01*
X013764Y014272D02*
X013623Y014272D01*
X013391Y013958D02*
X014360Y013958D01*
X014360Y013880D02*
X013398Y013880D01*
X013398Y013801D02*
X014360Y013801D01*
X014360Y013723D02*
X013398Y013723D01*
X013379Y013644D02*
X014360Y013644D01*
X014360Y013566D02*
X012916Y013566D01*
X013139Y013644D02*
X013157Y013644D01*
X013157Y013723D02*
X013139Y013723D01*
X013139Y013801D02*
X013157Y013801D01*
X013157Y013880D02*
X013139Y013880D01*
X013139Y013958D02*
X013157Y013958D01*
X013157Y014037D02*
X013139Y014037D01*
X012973Y014037D02*
X012942Y014037D01*
X012385Y013723D02*
X012265Y013723D01*
X012238Y013644D02*
X012411Y013644D01*
X012487Y013566D02*
X012163Y013566D01*
X012049Y013330D02*
X010305Y013330D01*
X010290Y013409D02*
X014360Y013409D01*
X014360Y013487D02*
X010290Y013487D01*
X010290Y013566D02*
X011733Y013566D01*
X011511Y013644D02*
X011492Y013644D01*
X011492Y013723D02*
X011511Y013723D01*
X011511Y013801D02*
X011492Y013801D01*
X011492Y013880D02*
X011511Y013880D01*
X011511Y013958D02*
X011492Y013958D01*
X011492Y014037D02*
X011511Y014037D01*
X011676Y014037D02*
X011708Y014037D01*
X011898Y014115D02*
X010290Y014115D01*
X010290Y014037D02*
X011327Y014037D01*
X011259Y013958D02*
X010290Y013958D01*
X010290Y013880D02*
X011251Y013880D01*
X011251Y013801D02*
X010290Y013801D01*
X010290Y013723D02*
X011251Y013723D01*
X011271Y013644D02*
X010290Y013644D01*
X010336Y013252D02*
X011914Y013252D01*
X011852Y013173D02*
X010371Y013173D01*
X010420Y013095D02*
X011820Y013095D01*
X011817Y013016D02*
X010486Y013016D01*
X010575Y012938D02*
X011829Y012938D01*
X011788Y012859D02*
X010696Y012859D01*
X011098Y012781D02*
X011752Y012781D01*
X012606Y013330D02*
X014348Y013330D01*
X014320Y013252D02*
X012741Y013252D01*
X012802Y013173D02*
X014287Y013173D01*
X014241Y013095D02*
X012835Y013095D01*
X012837Y013016D02*
X014178Y013016D01*
X014091Y012938D02*
X012826Y012938D01*
X012862Y012859D02*
X013971Y012859D01*
X012339Y013801D02*
X012310Y013801D01*
X011898Y014194D02*
X010749Y014194D01*
X010886Y014272D02*
X011027Y014272D01*
X011203Y014272D02*
X011281Y014272D01*
X011281Y014351D02*
X011203Y014351D01*
X011203Y014429D02*
X011281Y014429D01*
X011281Y014508D02*
X011203Y014508D01*
X011203Y014586D02*
X011281Y014586D01*
X011281Y014743D02*
X011203Y014743D01*
X011203Y014822D02*
X011281Y014822D01*
X011281Y014900D02*
X011203Y014900D01*
X011203Y014979D02*
X011281Y014979D01*
X011432Y015057D02*
X010935Y015057D01*
X010982Y014979D02*
X010992Y014979D01*
X010857Y015136D02*
X011445Y015136D01*
X011481Y015214D02*
X010290Y015214D01*
X010290Y015136D02*
X010391Y015136D01*
X010313Y015057D02*
X010290Y015057D01*
X010290Y015293D02*
X011518Y015293D01*
X011554Y015371D02*
X010290Y015371D01*
X010290Y015450D02*
X011604Y015450D01*
X011689Y015528D02*
X010290Y015528D01*
X010290Y015607D02*
X011775Y015607D01*
X011894Y015685D02*
X010738Y015685D01*
X010881Y015764D02*
X012013Y015764D01*
X012059Y015842D02*
X010960Y015842D01*
X010992Y015921D02*
X012145Y015921D01*
X010510Y015685D02*
X010290Y015685D01*
X010290Y015764D02*
X010367Y015764D01*
X010362Y014272D02*
X010290Y014272D01*
X010290Y014194D02*
X010499Y014194D01*
X007581Y014072D02*
X006254Y014072D01*
X006285Y014080D01*
X006317Y014099D01*
X006343Y014125D01*
X006361Y014157D01*
X006371Y014192D01*
X006371Y014310D01*
X005950Y014310D01*
X005950Y014348D01*
X006371Y014348D01*
X006371Y014367D01*
X006440Y014298D01*
X006562Y014247D01*
X006693Y014247D01*
X006814Y014298D01*
X006907Y014390D01*
X006957Y014512D01*
X006957Y014943D01*
X006942Y014979D01*
X007560Y014979D01*
X006943Y014979D01*
X006957Y014900D02*
X007560Y014900D01*
X007560Y014822D02*
X006957Y014822D01*
X006957Y014743D02*
X007560Y014743D01*
X007560Y014665D02*
X006957Y014665D01*
X006957Y014586D02*
X007560Y014586D01*
X007560Y014508D02*
X006956Y014508D01*
X006923Y014429D02*
X007560Y014429D01*
X007560Y014351D02*
X006868Y014351D01*
X006753Y014272D02*
X007560Y014272D01*
X007560Y014194D02*
X006371Y014194D01*
X006371Y014272D02*
X006501Y014272D01*
X006387Y014351D02*
X006371Y014351D01*
X006333Y014115D02*
X007563Y014115D01*
X007560Y014123D02*
X007581Y014072D01*
X007560Y014123D02*
X007560Y014979D01*
X007605Y013330D02*
X006490Y013330D01*
X006490Y013252D02*
X007570Y013252D01*
X007560Y013173D02*
X006490Y013173D01*
X006490Y013095D02*
X007560Y013095D01*
X007560Y013016D02*
X006490Y013016D01*
X006490Y012938D02*
X007560Y012938D01*
X007560Y012859D02*
X006490Y012859D01*
X006490Y012781D02*
X007560Y012781D01*
X007560Y012702D02*
X006490Y012702D01*
X006490Y012624D02*
X007560Y012624D01*
X007560Y012583D02*
X007560Y012583D01*
X007575Y012545D02*
X006490Y012545D01*
X006490Y012467D02*
X007619Y012467D01*
X007697Y012388D02*
X006490Y012388D01*
X006490Y012310D02*
X007775Y012310D01*
X007853Y012231D02*
X006490Y012231D01*
X006490Y012153D02*
X007931Y012153D01*
X008010Y012074D02*
X006490Y012074D01*
X006490Y011996D02*
X008088Y011996D01*
X008166Y011917D02*
X006490Y011917D01*
X006490Y011839D02*
X008244Y011839D01*
X008322Y011760D02*
X006490Y011760D01*
X006490Y011682D02*
X008400Y011682D01*
X008478Y011603D02*
X006490Y011603D01*
X006490Y011525D02*
X008556Y011525D01*
X008635Y011446D02*
X007779Y011446D01*
X007857Y011368D02*
X008713Y011368D01*
X008791Y011289D02*
X007936Y011289D01*
X008014Y011211D02*
X008869Y011211D01*
X008947Y011132D02*
X008093Y011132D01*
X008171Y011054D02*
X009025Y011054D01*
X009103Y010975D02*
X008250Y010975D01*
X008328Y010897D02*
X009182Y010897D01*
X009260Y010818D02*
X008407Y010818D01*
X008485Y010740D02*
X009338Y010740D01*
X009416Y010661D02*
X008564Y010661D01*
X008642Y010583D02*
X009494Y010583D01*
X009572Y010504D02*
X008721Y010504D01*
X008799Y010426D02*
X009650Y010426D01*
X009729Y010347D02*
X008878Y010347D01*
X008956Y010269D02*
X009807Y010269D01*
X010017Y010221D02*
X010017Y010221D01*
X014456Y010221D02*
X016903Y010221D01*
X016832Y010150D01*
X016832Y009925D01*
X015691Y009925D01*
X015656Y009942D01*
X015656Y010092D01*
X015551Y010197D01*
X015008Y010197D01*
X014925Y010114D01*
X014842Y010197D01*
X014467Y010197D01*
X014467Y010202D01*
X014456Y010221D01*
X014848Y010190D02*
X015001Y010190D01*
X015557Y010190D02*
X016873Y010190D01*
X016832Y010112D02*
X015636Y010112D01*
X015656Y010033D02*
X016832Y010033D01*
X016832Y009955D02*
X015656Y009955D01*
X018678Y008056D02*
X018678Y007981D01*
X018640Y007942D01*
X018678Y007903D01*
X018678Y007709D01*
X019177Y007709D01*
X019245Y007640D01*
X019243Y007722D01*
X019243Y007723D01*
X019242Y007774D01*
X019241Y007824D01*
X019242Y007825D01*
X019241Y007951D01*
X019241Y007951D01*
X019378Y008276D01*
X019378Y008276D01*
X019468Y008362D01*
X019329Y008362D01*
X019294Y008372D01*
X019262Y008390D01*
X019253Y008399D01*
X019177Y008323D01*
X018945Y008323D01*
X018678Y008056D01*
X018693Y008071D02*
X019291Y008071D01*
X019258Y007992D02*
X018678Y007992D01*
X018668Y007914D02*
X019241Y007914D01*
X019242Y007835D02*
X018678Y007835D01*
X018678Y007757D02*
X019243Y007757D01*
X019244Y007678D02*
X019207Y007678D01*
X019324Y008149D02*
X018772Y008149D01*
X018850Y008228D02*
X019357Y008228D01*
X019410Y008306D02*
X018929Y008306D01*
X019239Y008385D02*
X019271Y008385D01*
X016717Y006658D02*
X016057Y006658D01*
X016006Y006579D02*
X016688Y006579D01*
X016688Y006501D02*
X016268Y006501D01*
X016322Y006422D02*
X016688Y006422D01*
X016688Y006344D02*
X016322Y006344D01*
X016322Y006265D02*
X016688Y006265D01*
X016688Y006187D02*
X016322Y006187D01*
X016322Y006108D02*
X016705Y006108D01*
X016784Y006030D02*
X016250Y006030D01*
X016215Y005951D02*
X016133Y005951D01*
X016140Y005873D02*
X016119Y005873D01*
X015477Y005952D02*
X015477Y006175D01*
X015577Y006274D01*
X015586Y006283D02*
X015567Y006283D01*
X015567Y006451D01*
X015586Y006451D01*
X015586Y006283D01*
X015586Y006344D02*
X015567Y006344D01*
X015567Y006422D02*
X015586Y006422D01*
X015990Y006555D02*
X015990Y006555D01*
X016869Y005951D02*
X016875Y005951D01*
X017268Y006030D02*
X018381Y006030D01*
X018459Y006108D02*
X018038Y006108D01*
X018071Y006187D02*
X018580Y006187D01*
X018302Y005951D02*
X017769Y005951D01*
X017735Y006060D02*
X017735Y006338D01*
X017476Y006338D01*
X017476Y006182D01*
X017486Y006146D01*
X017504Y006114D01*
X017530Y006088D01*
X017562Y006070D01*
X017598Y006060D01*
X017735Y006060D01*
X017735Y006108D02*
X017812Y006108D01*
X017812Y006187D02*
X017735Y006187D01*
X017735Y006265D02*
X017812Y006265D01*
X017812Y006344D02*
X019241Y006344D01*
X019241Y006422D02*
X018071Y006422D01*
X018071Y006265D02*
X019254Y006265D01*
X019241Y006579D02*
X019204Y006579D01*
X018646Y006579D02*
X018614Y006579D01*
X018235Y005873D02*
X018229Y005873D01*
X018004Y005873D02*
X017986Y005873D01*
X017986Y005794D02*
X018004Y005794D01*
X018004Y005699D02*
X018004Y005470D01*
X018124Y005470D01*
X018159Y005480D01*
X018191Y005498D01*
X018197Y005504D01*
X018197Y005198D01*
X018012Y005198D01*
X018012Y004508D01*
X017932Y004508D01*
X017932Y005198D01*
X017797Y005198D01*
X017797Y005494D01*
X017800Y005497D01*
X017831Y005480D01*
X017867Y005470D01*
X017986Y005470D01*
X017986Y005699D01*
X018004Y005699D01*
X018004Y005637D02*
X017986Y005637D01*
X017986Y005559D02*
X018004Y005559D01*
X018004Y005480D02*
X017986Y005480D01*
X017830Y005480D02*
X017797Y005480D01*
X017797Y005402D02*
X018197Y005402D01*
X018197Y005480D02*
X018161Y005480D01*
X018197Y005323D02*
X017797Y005323D01*
X017797Y005245D02*
X018197Y005245D01*
X018012Y005166D02*
X017932Y005166D01*
X017932Y005088D02*
X018012Y005088D01*
X018012Y005009D02*
X017932Y005009D01*
X017932Y004931D02*
X018012Y004931D01*
X018012Y004852D02*
X017932Y004852D01*
X017932Y004774D02*
X018012Y004774D01*
X018012Y004695D02*
X017932Y004695D01*
X017932Y004617D02*
X018012Y004617D01*
X018012Y004538D02*
X017932Y004538D01*
X017932Y004508D02*
X017607Y004508D01*
X017607Y004428D01*
X017932Y004428D01*
X017932Y004508D01*
X017932Y004460D02*
X017607Y004460D01*
X017932Y004428D02*
X018012Y004428D01*
X018197Y004428D01*
X018197Y004508D01*
X018012Y004508D01*
X018012Y004428D01*
X018012Y003737D01*
X018223Y003737D01*
X018243Y003687D01*
X018327Y003603D01*
X018380Y003551D01*
X017973Y003551D01*
X017923Y003601D01*
X017426Y003601D01*
X017473Y003647D01*
X017600Y003775D01*
X017610Y003765D01*
X017642Y003747D01*
X017678Y003737D01*
X017932Y003737D01*
X017932Y004428D01*
X017932Y004381D02*
X018012Y004381D01*
X018012Y004303D02*
X017932Y004303D01*
X017932Y004224D02*
X018012Y004224D01*
X018012Y004146D02*
X017932Y004146D01*
X017932Y004067D02*
X018012Y004067D01*
X018012Y003989D02*
X017932Y003989D01*
X017932Y003910D02*
X018012Y003910D01*
X018012Y003832D02*
X017932Y003832D01*
X017932Y003753D02*
X018012Y003753D01*
X017927Y003596D02*
X018334Y003596D01*
X018256Y003675D02*
X017500Y003675D01*
X017579Y003753D02*
X017630Y003753D01*
X018012Y004460D02*
X018197Y004460D01*
X019471Y004381D02*
X020977Y004381D01*
X020977Y004303D02*
X020885Y004303D01*
X020962Y004224D02*
X020977Y004224D01*
X020977Y004146D02*
X020962Y004146D01*
X020977Y004460D02*
X019779Y004460D01*
X019863Y004538D02*
X020977Y004538D01*
X020977Y004617D02*
X019941Y004617D01*
X020020Y004695D02*
X020977Y004695D01*
X019773Y004303D02*
X019477Y004303D01*
X019556Y004224D02*
X019696Y004224D01*
X019696Y004146D02*
X019634Y004146D01*
X017328Y005951D02*
X017315Y005951D01*
X017346Y006108D02*
X017510Y006108D01*
X017476Y006187D02*
X017363Y006187D01*
X017363Y006265D02*
X017476Y006265D01*
X015876Y004870D02*
X015653Y005093D01*
X014315Y005093D01*
X013965Y005443D01*
X013965Y005616D01*
X013661Y005885D02*
X013632Y005856D01*
X013221Y005856D01*
X013173Y005904D01*
X012804Y005904D01*
X012736Y005837D01*
X012705Y005855D01*
X012670Y005864D01*
X012551Y005864D01*
X012551Y005635D01*
X012532Y005635D01*
X012532Y005616D01*
X012551Y005616D01*
X012551Y005387D01*
X012551Y005275D01*
X012532Y005275D01*
X012532Y005256D01*
X012291Y005256D01*
X012291Y005149D01*
X012298Y005125D01*
X012251Y005079D01*
X012251Y004733D01*
X012258Y004726D01*
X012251Y004719D01*
X012251Y004696D01*
X012125Y004847D01*
X012034Y005084D01*
X012024Y005338D01*
X012096Y005581D01*
X012244Y005788D01*
X012331Y005862D01*
X012465Y005930D01*
X012465Y005930D01*
X012729Y006166D01*
X012922Y006463D01*
X012974Y006622D01*
X012990Y006661D01*
X012990Y006671D01*
X012993Y006681D01*
X012990Y006724D01*
X012990Y006768D01*
X013034Y006745D01*
X013108Y006721D01*
X013184Y006709D01*
X013184Y006948D01*
X013264Y006948D01*
X013264Y006709D01*
X013340Y006721D01*
X013414Y006745D01*
X013460Y006768D01*
X013460Y006275D01*
X013451Y006171D01*
X013549Y005963D01*
X013661Y005885D01*
X013649Y005873D02*
X013204Y005873D01*
X013517Y006030D02*
X012577Y006030D01*
X012664Y006108D02*
X013480Y006108D01*
X013451Y006171D02*
X013451Y006171D01*
X013452Y006187D02*
X012742Y006187D01*
X012729Y006166D02*
X012729Y006166D01*
X012729Y006166D01*
X012793Y006265D02*
X013459Y006265D01*
X013460Y006344D02*
X012844Y006344D01*
X012895Y006422D02*
X013460Y006422D01*
X013460Y006501D02*
X012934Y006501D01*
X012922Y006463D02*
X012922Y006463D01*
X012960Y006579D02*
X013460Y006579D01*
X013460Y006658D02*
X012989Y006658D01*
X012990Y006736D02*
X013060Y006736D01*
X013184Y006736D02*
X013264Y006736D01*
X013264Y006815D02*
X013184Y006815D01*
X013184Y006893D02*
X013264Y006893D01*
X013388Y006736D02*
X013460Y006736D01*
X013549Y005963D02*
X013549Y005963D01*
X013565Y005951D02*
X012489Y005951D01*
X012532Y005864D02*
X012413Y005864D01*
X012377Y005855D01*
X012345Y005836D01*
X012319Y005810D01*
X012301Y005778D01*
X012291Y005743D01*
X012291Y005635D01*
X012532Y005635D01*
X012532Y005864D01*
X012532Y005794D02*
X012551Y005794D01*
X012551Y005716D02*
X012532Y005716D01*
X012532Y005637D02*
X012551Y005637D01*
X012532Y005616D02*
X012532Y005275D01*
X012291Y005275D01*
X012291Y005383D01*
X012301Y005418D01*
X012317Y005446D01*
X012301Y005473D01*
X012291Y005509D01*
X012291Y005616D01*
X012532Y005616D01*
X012532Y005559D02*
X012551Y005559D01*
X012551Y005480D02*
X012532Y005480D01*
X012532Y005402D02*
X012551Y005402D01*
X012551Y005323D02*
X012532Y005323D01*
X012291Y005323D02*
X012024Y005323D01*
X012027Y005245D02*
X012291Y005245D01*
X012291Y005166D02*
X012030Y005166D01*
X012033Y005088D02*
X012261Y005088D01*
X012251Y005009D02*
X012062Y005009D01*
X012093Y004931D02*
X012251Y004931D01*
X012251Y004852D02*
X012123Y004852D01*
X012186Y004774D02*
X012251Y004774D01*
X012297Y005402D02*
X012043Y005402D01*
X012066Y005480D02*
X012299Y005480D01*
X012291Y005559D02*
X012090Y005559D01*
X012137Y005637D02*
X012291Y005637D01*
X012291Y005716D02*
X012193Y005716D01*
X012252Y005794D02*
X012310Y005794D01*
X012354Y005873D02*
X012772Y005873D01*
X013965Y004816D02*
X014077Y004927D01*
X015474Y004927D01*
X015516Y004870D01*
X008351Y001869D02*
X001981Y001869D01*
X001973Y001888D02*
X001888Y001973D01*
X001775Y002020D01*
X001654Y002020D01*
X001542Y001973D01*
X001456Y001888D01*
X001410Y001775D01*
X001410Y001654D01*
X001456Y001542D01*
X001542Y001456D01*
X001654Y001410D01*
X001775Y001410D01*
X001888Y001456D01*
X001973Y001542D01*
X002020Y001654D01*
X002020Y001775D01*
X001973Y001888D01*
X001913Y001948D02*
X008174Y001948D01*
X008096Y002026D02*
X001192Y002026D01*
X001192Y001948D02*
X001517Y001948D01*
X001449Y001869D02*
X001192Y001869D01*
X001192Y001791D02*
X001416Y001791D01*
X001410Y001712D02*
X001192Y001712D01*
X001192Y001634D02*
X001418Y001634D01*
X001451Y001555D02*
X001192Y001555D01*
X001192Y001477D02*
X001521Y001477D01*
X001287Y001241D02*
X030458Y001241D01*
X030458Y001320D02*
X001222Y001320D01*
X001195Y001398D02*
X030458Y001398D01*
X030484Y001477D02*
X001908Y001477D01*
X001979Y001555D02*
X030517Y001555D01*
X030577Y001634D02*
X002011Y001634D01*
X002020Y001712D02*
X030656Y001712D01*
X030075Y001948D02*
X031427Y001948D01*
X031452Y001973D02*
X031366Y001888D01*
X031320Y001775D01*
X031320Y001654D01*
X031366Y001542D01*
X031452Y001456D01*
X031564Y001410D01*
X031686Y001410D01*
X031798Y001456D01*
X031884Y001542D01*
X031930Y001654D01*
X031930Y001775D01*
X031884Y001888D01*
X031798Y001973D01*
X031686Y002020D01*
X031564Y002020D01*
X031452Y001973D01*
X031359Y001869D02*
X029898Y001869D01*
X030067Y001939D02*
X030067Y001939D01*
X030154Y002026D02*
X032158Y002026D01*
X032158Y001948D02*
X031823Y001948D01*
X031891Y001869D02*
X032158Y001869D01*
X032158Y001791D02*
X031924Y001791D01*
X031930Y001712D02*
X032158Y001712D01*
X032158Y001634D02*
X031922Y001634D01*
X031889Y001555D02*
X032158Y001555D01*
X032158Y001477D02*
X031818Y001477D01*
X032060Y001241D02*
X031392Y001241D01*
X031392Y001320D02*
X032126Y001320D01*
X032155Y001398D02*
X031392Y001398D01*
X031366Y001477D02*
X031432Y001477D01*
X031361Y001555D02*
X031333Y001555D01*
X031328Y001634D02*
X031273Y001634D01*
X031320Y001712D02*
X031194Y001712D01*
X031326Y001791D02*
X002013Y001791D01*
X001865Y002128D02*
X002196Y002128D01*
X002501Y002255D01*
X002735Y002488D01*
X002861Y002794D01*
X002861Y003124D01*
X002735Y003429D01*
X002501Y003663D01*
X002196Y003789D01*
X001865Y003789D01*
X001560Y003663D01*
X001326Y003429D01*
X001200Y003124D01*
X001200Y002794D01*
X001326Y002488D01*
X001560Y002255D01*
X001865Y002128D01*
X001732Y002183D02*
X001192Y002183D01*
X001192Y002105D02*
X008030Y002105D01*
X008038Y002084D02*
X008038Y002084D01*
X007997Y002183D02*
X002329Y002183D01*
X002508Y002262D02*
X007964Y002262D01*
X007960Y002340D02*
X002587Y002340D01*
X002665Y002419D02*
X007960Y002419D01*
X007960Y002497D02*
X002738Y002497D01*
X002771Y002576D02*
X007960Y002576D01*
X007960Y002654D02*
X002803Y002654D01*
X002836Y002733D02*
X007960Y002733D01*
X007960Y002811D02*
X002861Y002811D01*
X002861Y002890D02*
X007960Y002890D01*
X007960Y002968D02*
X002861Y002968D01*
X002861Y003047D02*
X007960Y003047D01*
X007960Y003125D02*
X002861Y003125D01*
X002828Y003204D02*
X007960Y003204D01*
X007960Y003282D02*
X002796Y003282D01*
X002763Y003361D02*
X007960Y003361D01*
X007960Y003439D02*
X002725Y003439D01*
X002646Y003518D02*
X007960Y003518D01*
X007960Y003596D02*
X002568Y003596D01*
X002472Y003675D02*
X007960Y003675D01*
X007960Y003753D02*
X002283Y003753D01*
X001778Y003753D02*
X001192Y003753D01*
X001192Y003675D02*
X001589Y003675D01*
X001493Y003596D02*
X001192Y003596D01*
X001192Y003518D02*
X001415Y003518D01*
X001336Y003439D02*
X001192Y003439D01*
X001192Y003361D02*
X001298Y003361D01*
X001266Y003282D02*
X001192Y003282D01*
X001192Y003204D02*
X001233Y003204D01*
X001201Y003125D02*
X001192Y003125D01*
X001192Y003047D02*
X001200Y003047D01*
X001192Y002968D02*
X001200Y002968D01*
X001192Y002890D02*
X001200Y002890D01*
X001192Y002811D02*
X001200Y002811D01*
X001192Y002733D02*
X001225Y002733D01*
X001192Y002654D02*
X001258Y002654D01*
X001290Y002576D02*
X001192Y002576D01*
X001192Y002497D02*
X001323Y002497D01*
X001396Y002419D02*
X001192Y002419D01*
X001192Y002340D02*
X001474Y002340D01*
X001553Y002262D02*
X001192Y002262D01*
X001192Y003832D02*
X007960Y003832D01*
X007960Y003910D02*
X001192Y003910D01*
X001192Y003989D02*
X007960Y003989D01*
X007960Y004067D02*
X001192Y004067D01*
X001192Y004146D02*
X007960Y004146D01*
X007960Y004224D02*
X001192Y004224D01*
X001192Y004303D02*
X007960Y004303D01*
X007960Y004381D02*
X001192Y004381D01*
X001192Y004460D02*
X007960Y004460D01*
X007960Y004538D02*
X001192Y004538D01*
X001192Y004617D02*
X007960Y004617D01*
X007960Y004695D02*
X001192Y004695D01*
X001192Y004774D02*
X007960Y004774D01*
X007960Y004852D02*
X001192Y004852D01*
X001192Y004931D02*
X007960Y004931D01*
X007960Y005009D02*
X001192Y005009D01*
X001192Y005088D02*
X007960Y005088D01*
X007960Y005166D02*
X001192Y005166D01*
X001192Y005245D02*
X007960Y005245D01*
X007960Y005323D02*
X001192Y005323D01*
X001192Y005402D02*
X007960Y005402D01*
X007960Y005480D02*
X001192Y005480D01*
X001192Y005559D02*
X007960Y005559D01*
X007960Y005637D02*
X001192Y005637D01*
X001192Y005716D02*
X007960Y005716D01*
X007960Y005794D02*
X001192Y005794D01*
X001192Y005873D02*
X007960Y005873D01*
X007960Y005951D02*
X001192Y005951D01*
X001192Y006030D02*
X007960Y006030D01*
X007960Y006108D02*
X001192Y006108D01*
X001192Y006187D02*
X007960Y006187D01*
X007960Y006265D02*
X001192Y006265D01*
X001192Y006344D02*
X004213Y006344D01*
X004141Y006422D02*
X001192Y006422D01*
X001192Y006501D02*
X004141Y006501D01*
X004141Y006579D02*
X001192Y006579D01*
X001192Y006658D02*
X004141Y006658D01*
X004141Y006736D02*
X001192Y006736D01*
X001192Y006815D02*
X004141Y006815D01*
X004141Y006893D02*
X001192Y006893D01*
X001192Y006972D02*
X004141Y006972D01*
X004141Y007050D02*
X001192Y007050D01*
X001192Y007129D02*
X004141Y007129D01*
X004141Y007207D02*
X001192Y007207D01*
X001192Y007286D02*
X004141Y007286D01*
X004141Y007364D02*
X001192Y007364D01*
X001192Y007443D02*
X004141Y007443D01*
X004141Y007521D02*
X001192Y007521D01*
X001192Y007600D02*
X004141Y007600D01*
X004141Y007678D02*
X001192Y007678D01*
X001192Y007757D02*
X004141Y007757D01*
X004141Y007835D02*
X001192Y007835D01*
X001192Y007914D02*
X004141Y007914D01*
X004141Y007992D02*
X001192Y007992D01*
X001192Y008071D02*
X004141Y008071D01*
X004141Y008149D02*
X001192Y008149D01*
X001192Y008228D02*
X004141Y008228D01*
X004141Y008306D02*
X001192Y008306D01*
X001192Y008385D02*
X004161Y008385D01*
X004240Y008463D02*
X001192Y008463D01*
X001192Y011682D02*
X001736Y011682D01*
X001554Y011760D02*
X001192Y011760D01*
X001192Y011839D02*
X001476Y011839D01*
X001397Y011917D02*
X001192Y011917D01*
X001192Y011996D02*
X001323Y011996D01*
X001291Y012074D02*
X001192Y012074D01*
X001192Y012153D02*
X001258Y012153D01*
X001226Y012231D02*
X001192Y012231D01*
X001192Y012310D02*
X001200Y012310D01*
X001192Y012388D02*
X001200Y012388D01*
X001192Y012467D02*
X001200Y012467D01*
X001192Y012545D02*
X001200Y012545D01*
X001192Y012702D02*
X001232Y012702D01*
X001265Y012781D02*
X001192Y012781D01*
X001192Y012859D02*
X001297Y012859D01*
X001335Y012938D02*
X001192Y012938D01*
X001192Y013016D02*
X001414Y013016D01*
X001492Y013095D02*
X001192Y013095D01*
X001192Y013173D02*
X001585Y013173D01*
X006501Y006422D02*
X007960Y006422D01*
X007960Y006344D02*
X006430Y006344D01*
X016050Y012467D02*
X030479Y012467D01*
X030479Y012545D02*
X016050Y012545D01*
X016050Y012624D02*
X030479Y012624D01*
X030479Y012294D01*
X030605Y011988D01*
X030839Y011755D01*
X031144Y011628D01*
X031474Y011628D01*
X031780Y011755D01*
X032013Y011988D01*
X032140Y012294D01*
X032140Y012624D01*
X032158Y012624D01*
X032140Y012624D02*
X032013Y012929D01*
X031780Y013163D01*
X031474Y013289D01*
X031144Y013289D01*
X030839Y013163D01*
X030605Y012929D01*
X030479Y012624D01*
X030511Y012702D02*
X016050Y012702D01*
X016050Y012781D02*
X030544Y012781D01*
X030576Y012859D02*
X016050Y012859D01*
X016050Y012938D02*
X030614Y012938D01*
X030692Y013016D02*
X016050Y013016D01*
X016050Y013095D02*
X030771Y013095D01*
X030864Y013173D02*
X016050Y013173D01*
X016050Y013252D02*
X031054Y013252D01*
X031565Y013252D02*
X032158Y013252D01*
X032158Y013330D02*
X016050Y013330D01*
X016050Y013409D02*
X032158Y013409D01*
X032158Y013487D02*
X016050Y013487D01*
X016050Y013566D02*
X032158Y013566D01*
X032158Y013644D02*
X016050Y013644D01*
X016050Y013723D02*
X032158Y013723D01*
X032158Y013801D02*
X016050Y013801D01*
X016050Y013880D02*
X032158Y013880D01*
X032158Y013958D02*
X016050Y013958D01*
X016050Y014037D02*
X032158Y014037D01*
X032158Y014115D02*
X016050Y014115D01*
X016050Y014194D02*
X032158Y014194D01*
X032158Y014272D02*
X016060Y014272D01*
X016060Y014351D02*
X032158Y014351D01*
X032158Y014429D02*
X016060Y014429D01*
X016060Y014508D02*
X032158Y014508D01*
X032158Y014586D02*
X016060Y014586D01*
X016060Y014665D02*
X032158Y014665D01*
X032158Y014743D02*
X016060Y014743D01*
X016060Y014822D02*
X032158Y014822D01*
X032158Y014900D02*
X016060Y014900D01*
X016060Y014979D02*
X032158Y014979D01*
X032158Y015057D02*
X016060Y015057D01*
X016060Y015136D02*
X032158Y015136D01*
X032158Y015214D02*
X016050Y015214D01*
X016050Y015293D02*
X032158Y015293D01*
X032158Y015371D02*
X016050Y015371D01*
X016050Y015450D02*
X032158Y015450D01*
X032158Y015528D02*
X016050Y015528D01*
X016050Y015607D02*
X032158Y015607D01*
X032158Y015685D02*
X016050Y015685D01*
X016050Y015764D02*
X032158Y015764D01*
X032158Y015842D02*
X016050Y015842D01*
X016050Y015921D02*
X032158Y015921D01*
X032158Y015999D02*
X016050Y015999D01*
X016050Y016078D02*
X032158Y016078D01*
X032158Y016156D02*
X016050Y016156D01*
X016050Y016235D02*
X032158Y016235D01*
X032158Y016313D02*
X016050Y016313D01*
X016050Y016392D02*
X032158Y016392D01*
X032158Y016470D02*
X016050Y016470D01*
X016050Y016549D02*
X032158Y016549D01*
X032158Y016627D02*
X016050Y016627D01*
X016050Y016706D02*
X032158Y016706D01*
X032158Y016784D02*
X016050Y016784D01*
X016050Y016863D02*
X032158Y016863D01*
X032158Y016941D02*
X016050Y016941D01*
X016050Y017020D02*
X032158Y017020D01*
X032158Y017098D02*
X016052Y017098D01*
X016026Y017177D02*
X032158Y017177D01*
X032158Y017255D02*
X015995Y017255D01*
X015945Y017334D02*
X032158Y017334D01*
X032158Y017412D02*
X015869Y017412D01*
X015837Y017446D02*
X015837Y017446D01*
X015734Y017491D02*
X032158Y017491D01*
X032158Y017569D02*
X015692Y017569D01*
X015709Y017523D02*
X015709Y017523D01*
X015692Y017648D02*
X032158Y017648D01*
X032158Y017726D02*
X015692Y017726D01*
X015692Y017805D02*
X032158Y017805D01*
X032158Y017883D02*
X015692Y017883D01*
X015692Y017962D02*
X032158Y017962D01*
X032158Y018040D02*
X015692Y018040D01*
X015692Y018119D02*
X032158Y018119D01*
X032149Y018197D02*
X015692Y018197D01*
X015692Y018276D02*
X032114Y018276D01*
X032010Y018354D02*
X015692Y018354D01*
X014360Y015764D02*
X014283Y015764D01*
X014287Y014272D02*
X014360Y014272D01*
X014360Y014194D02*
X014150Y014194D01*
X021003Y012388D02*
X030479Y012388D01*
X030479Y012310D02*
X021119Y012310D01*
X021197Y012231D02*
X030505Y012231D01*
X030537Y012153D02*
X021238Y012153D01*
X021211Y012217D02*
X021211Y012217D01*
X021271Y012074D02*
X030570Y012074D01*
X030602Y011996D02*
X021290Y011996D01*
X021290Y011917D02*
X030676Y011917D01*
X030755Y011839D02*
X021290Y011839D01*
X021290Y011760D02*
X030833Y011760D01*
X031015Y011682D02*
X021290Y011682D01*
X021290Y011603D02*
X032158Y011603D01*
X032158Y011525D02*
X021290Y011525D01*
X021290Y011446D02*
X032158Y011446D01*
X032158Y011368D02*
X021290Y011368D01*
X021290Y011289D02*
X032158Y011289D01*
X032158Y011211D02*
X021290Y011211D01*
X021290Y011132D02*
X032158Y011132D01*
X032158Y011054D02*
X021290Y011054D01*
X021290Y010975D02*
X032158Y010975D01*
X032158Y010897D02*
X021290Y010897D01*
X021290Y010818D02*
X032158Y010818D01*
X032158Y010740D02*
X021290Y010740D01*
X021290Y010661D02*
X032158Y010661D01*
X032158Y010583D02*
X021290Y010583D01*
X021290Y010545D02*
X022185Y009641D01*
X027507Y006658D02*
X027637Y006658D01*
X028101Y006422D02*
X028650Y006422D01*
X028650Y006344D02*
X028274Y006344D01*
X028366Y006265D02*
X028650Y006265D01*
X028650Y006187D02*
X028455Y006187D01*
X028578Y006108D02*
X028650Y006108D01*
X028650Y006030D02*
X028603Y006030D01*
X028620Y005951D02*
X028650Y005951D01*
X028637Y005876D02*
X028637Y005876D01*
X028636Y005873D02*
X028650Y005873D01*
X028619Y005794D02*
X028700Y005794D01*
X028700Y005716D02*
X028602Y005716D01*
X028569Y005637D02*
X028700Y005637D01*
X028700Y005559D02*
X028525Y005559D01*
X028508Y005480D02*
X028700Y005480D01*
X028700Y005402D02*
X028480Y005402D01*
X028436Y005323D02*
X028700Y005323D01*
X028700Y005245D02*
X028373Y005245D01*
X028280Y005166D02*
X028700Y005166D01*
X027822Y005088D02*
X027477Y005088D01*
X027477Y005166D02*
X027649Y005166D01*
X027557Y005245D02*
X027477Y005245D01*
X027477Y005323D02*
X027493Y005323D01*
X030290Y005323D02*
X032158Y005323D01*
X032158Y005245D02*
X030290Y005245D01*
X030290Y005166D02*
X032158Y005166D01*
X032158Y005088D02*
X030290Y005088D01*
X030290Y005009D02*
X032158Y005009D01*
X032158Y004931D02*
X030290Y004931D01*
X030290Y004852D02*
X032158Y004852D01*
X032158Y004774D02*
X030290Y004774D01*
X030290Y004695D02*
X032158Y004695D01*
X032158Y004617D02*
X030290Y004617D01*
X030290Y004538D02*
X032158Y004538D01*
X032158Y004460D02*
X030290Y004460D01*
X030290Y004381D02*
X032158Y004381D01*
X032158Y004303D02*
X030290Y004303D01*
X030290Y004224D02*
X032158Y004224D01*
X032158Y004146D02*
X030290Y004146D01*
X030290Y004067D02*
X032158Y004067D01*
X032158Y003989D02*
X030290Y003989D01*
X030290Y003910D02*
X032158Y003910D01*
X032158Y003832D02*
X030290Y003832D01*
X030290Y003753D02*
X031057Y003753D01*
X031144Y003789D02*
X030839Y003663D01*
X030605Y003429D01*
X030479Y003124D01*
X030479Y002794D01*
X030605Y002488D01*
X030839Y002255D01*
X031144Y002128D01*
X031474Y002128D01*
X031780Y002255D01*
X032013Y002488D01*
X032140Y002794D01*
X032140Y003124D01*
X032013Y003429D01*
X031780Y003663D01*
X031474Y003789D01*
X031144Y003789D01*
X030868Y003675D02*
X030290Y003675D01*
X030290Y003596D02*
X030772Y003596D01*
X030694Y003518D02*
X030290Y003518D01*
X030290Y003439D02*
X030615Y003439D01*
X030577Y003361D02*
X030290Y003361D01*
X030290Y003282D02*
X030544Y003282D01*
X030512Y003204D02*
X030290Y003204D01*
X030290Y003125D02*
X030479Y003125D01*
X030479Y003047D02*
X030290Y003047D01*
X030290Y002968D02*
X030479Y002968D01*
X030479Y002890D02*
X030290Y002890D01*
X030290Y002811D02*
X030479Y002811D01*
X030504Y002733D02*
X030290Y002733D01*
X030290Y002654D02*
X030536Y002654D01*
X030569Y002576D02*
X030290Y002576D01*
X030290Y002497D02*
X030601Y002497D01*
X030675Y002419D02*
X030290Y002419D01*
X030290Y002340D02*
X030753Y002340D01*
X030832Y002262D02*
X030285Y002262D01*
X030253Y002183D02*
X031011Y002183D01*
X031607Y002183D02*
X032158Y002183D01*
X032158Y002105D02*
X030220Y002105D01*
X030211Y002084D02*
X030211Y002084D01*
X031787Y002262D02*
X032158Y002262D01*
X032158Y002340D02*
X031865Y002340D01*
X031944Y002419D02*
X032158Y002419D01*
X032158Y002497D02*
X032017Y002497D01*
X032050Y002576D02*
X032158Y002576D01*
X032158Y002654D02*
X032082Y002654D01*
X032115Y002733D02*
X032158Y002733D01*
X032158Y002811D02*
X032140Y002811D01*
X032140Y002890D02*
X032158Y002890D01*
X032158Y002968D02*
X032140Y002968D01*
X032140Y003047D02*
X032158Y003047D01*
X032158Y003125D02*
X032139Y003125D01*
X032158Y003204D02*
X032107Y003204D01*
X032074Y003282D02*
X032158Y003282D01*
X032158Y003361D02*
X032042Y003361D01*
X032003Y003439D02*
X032158Y003439D01*
X032158Y003518D02*
X031925Y003518D01*
X031846Y003596D02*
X032158Y003596D01*
X032158Y003675D02*
X031751Y003675D01*
X031562Y003753D02*
X032158Y003753D01*
X032158Y005402D02*
X030290Y005402D01*
X030290Y005480D02*
X032158Y005480D01*
X032158Y005559D02*
X030290Y005559D01*
X030290Y005637D02*
X032158Y005637D01*
X032158Y005716D02*
X030290Y005716D01*
X030290Y005794D02*
X032158Y005794D01*
X032158Y005873D02*
X030290Y005873D01*
X030290Y005951D02*
X032158Y005951D01*
X032158Y006030D02*
X030290Y006030D01*
X030290Y006108D02*
X032158Y006108D01*
X032158Y006187D02*
X030290Y006187D01*
X030290Y006265D02*
X032158Y006265D01*
X032158Y006344D02*
X030290Y006344D01*
X030290Y006422D02*
X032158Y006422D01*
X032158Y006501D02*
X030290Y006501D01*
X030290Y006579D02*
X032158Y006579D01*
X032158Y006658D02*
X030290Y006658D01*
X030290Y006736D02*
X032158Y006736D01*
X032158Y006815D02*
X030290Y006815D01*
X030290Y006893D02*
X032158Y006893D01*
X032158Y006972D02*
X030290Y006972D01*
X030290Y007050D02*
X032158Y007050D01*
X032158Y007129D02*
X030290Y007129D01*
X030290Y007207D02*
X032158Y007207D01*
X032158Y007286D02*
X030290Y007286D01*
X030290Y007364D02*
X032158Y007364D01*
X032158Y007443D02*
X030290Y007443D01*
X030290Y007521D02*
X032158Y007521D01*
X032158Y007600D02*
X030290Y007600D01*
X030290Y007678D02*
X032158Y007678D01*
X032158Y007757D02*
X030290Y007757D01*
X030290Y007835D02*
X032158Y007835D01*
X032158Y007914D02*
X030290Y007914D01*
X030290Y007992D02*
X032158Y007992D01*
X032158Y008071D02*
X030290Y008071D01*
X030290Y008149D02*
X032158Y008149D01*
X032158Y008228D02*
X030290Y008228D01*
X030290Y008306D02*
X032158Y008306D01*
X032158Y008385D02*
X030290Y008385D01*
X030290Y008463D02*
X032158Y008463D01*
X032158Y008542D02*
X030290Y008542D01*
X030290Y008620D02*
X032158Y008620D01*
X032158Y008699D02*
X030290Y008699D01*
X030290Y008777D02*
X032158Y008777D01*
X032158Y008856D02*
X030290Y008856D01*
X030290Y008934D02*
X032158Y008934D01*
X032158Y009013D02*
X030290Y009013D01*
X030290Y009091D02*
X032158Y009091D01*
X032158Y009170D02*
X030290Y009170D01*
X030281Y009248D02*
X032158Y009248D01*
X032158Y009327D02*
X030249Y009327D01*
X030216Y009405D02*
X032158Y009405D01*
X032158Y009484D02*
X030145Y009484D01*
X030211Y009417D02*
X030211Y009417D01*
X030066Y009562D02*
X032158Y009562D01*
X032158Y011682D02*
X031604Y011682D01*
X031785Y011760D02*
X032158Y011760D01*
X032158Y011839D02*
X031864Y011839D01*
X031942Y011917D02*
X032158Y011917D01*
X032158Y011996D02*
X032017Y011996D01*
X032049Y012074D02*
X032158Y012074D01*
X032158Y012153D02*
X032082Y012153D01*
X032114Y012231D02*
X032158Y012231D01*
X032158Y012310D02*
X032140Y012310D01*
X032140Y012388D02*
X032158Y012388D01*
X032158Y012467D02*
X032140Y012467D01*
X032140Y012545D02*
X032158Y012545D01*
X032158Y012702D02*
X032107Y012702D01*
X032075Y012781D02*
X032158Y012781D01*
X032158Y012859D02*
X032042Y012859D01*
X032005Y012938D02*
X032158Y012938D01*
X032158Y013016D02*
X031926Y013016D01*
X031848Y013095D02*
X032158Y013095D01*
X032158Y013173D02*
X031755Y013173D01*
D42*
X028077Y007452D03*
X027827Y007452D03*
X028177Y006727D03*
X026742Y005900D03*
X026442Y005900D03*
X026092Y006390D03*
X026092Y006690D03*
X026092Y006990D03*
X026192Y004900D03*
X026192Y004650D03*
X026192Y004400D03*
X025042Y004815D03*
X024867Y005015D03*
X024567Y005015D03*
X024027Y005077D03*
X022647Y003927D03*
X020767Y004565D03*
X020467Y004565D03*
X020167Y004565D03*
X018117Y004625D03*
X017827Y004625D03*
X017827Y004325D03*
X018117Y004325D03*
X018117Y004925D03*
X017827Y004925D03*
X016396Y005709D03*
X016617Y006125D03*
X016617Y006425D03*
X016617Y006725D03*
X015827Y005952D03*
X015477Y005952D03*
X013377Y006827D03*
X013077Y006827D03*
X012184Y005505D03*
X012184Y005205D03*
X013315Y004956D03*
X013334Y004555D03*
X015867Y004546D03*
X016327Y003777D03*
X015696Y003547D03*
X018222Y006360D03*
X018522Y006360D03*
X018822Y006360D03*
X019122Y006360D03*
X018022Y006860D03*
X017722Y006860D03*
X018772Y007810D03*
X019072Y007810D03*
X019172Y008110D03*
X018872Y008110D03*
X018047Y008885D03*
X017747Y008885D03*
X017447Y008885D03*
X016657Y008935D03*
X016657Y008635D03*
X016657Y008335D03*
X016657Y008035D03*
X015796Y008226D03*
X015496Y008266D03*
X015196Y008226D03*
X012734Y009155D03*
X012734Y009480D03*
X012734Y009805D03*
X015784Y009985D03*
X016084Y009985D03*
X016384Y009985D03*
X016684Y009985D03*
X018677Y009827D03*
X018927Y009827D03*
X016219Y012635D03*
X012527Y013027D03*
X012127Y013027D03*
X007419Y013085D03*
X007419Y012785D03*
X007119Y012785D03*
X007119Y013085D03*
X007119Y014235D03*
X007419Y014235D03*
X007419Y014535D03*
X007119Y014535D03*
X007119Y014835D03*
X007419Y014835D03*
X011125Y016110D03*
X011425Y016110D03*
X011725Y016110D03*
X012025Y016110D03*
X012325Y016110D03*
X012625Y016110D03*
X012925Y016110D03*
X013225Y016110D03*
X013525Y016110D03*
X022192Y006590D03*
X022492Y006590D03*
X022792Y006590D03*
X027592Y004900D03*
X027842Y004750D03*
X027592Y004600D03*
X028177Y003727D03*
X028721Y004384D03*
X010125Y005326D03*
X009925Y004076D03*
D43*
X010035Y004186D01*
X010319Y004186D01*
X010125Y005326D02*
X010365Y005566D01*
X010365Y005760D01*
X012541Y004906D02*
X012541Y004546D01*
X012988Y004546D02*
X013325Y004546D01*
X013334Y004555D01*
X013265Y004906D02*
X012988Y004906D01*
X013265Y004906D02*
X013315Y004956D01*
X013449Y004956D01*
X013477Y004927D01*
X013827Y004127D01*
X013965Y004016D01*
X013965Y004816D02*
X014066Y004816D01*
X013965Y004816D02*
X013515Y005266D01*
X012988Y005266D01*
X012988Y005626D02*
X013955Y005626D01*
X013965Y005616D01*
X013965Y005540D01*
X015516Y005416D02*
X015677Y005577D01*
X016027Y005577D01*
X016387Y005218D01*
X016929Y005218D01*
X017357Y005446D02*
X017357Y004927D01*
X017148Y004718D01*
X016929Y004718D01*
X016427Y004827D02*
X016427Y004327D01*
X016527Y004227D01*
X016919Y004227D01*
X016929Y004218D01*
X017377Y003877D02*
X017377Y004677D01*
X017567Y004867D01*
X017567Y005680D01*
X017549Y005709D01*
X017357Y005446D02*
X017095Y005709D01*
X016649Y005709D02*
X016396Y005709D01*
X016017Y006167D02*
X015827Y005952D01*
X016017Y006167D02*
X016017Y006274D01*
X017091Y007542D02*
X017400Y007234D01*
X017091Y007542D02*
X017091Y008068D01*
X017091Y008367D01*
X017093Y008390D01*
X017097Y008412D01*
X017105Y008433D01*
X017116Y008453D01*
X017130Y008471D01*
X017146Y008487D01*
X017164Y008501D01*
X017184Y008512D01*
X017205Y008520D01*
X017227Y008524D01*
X017250Y008526D01*
X018307Y008526D01*
X018400Y008619D01*
X018463Y008166D02*
X018925Y008628D01*
X018925Y009174D02*
X019472Y008577D01*
X019525Y008627D01*
X018463Y008166D02*
X018400Y008166D01*
X018393Y007726D02*
X017950Y007726D01*
X017859Y007817D01*
X017859Y008068D01*
X017603Y008068D02*
X017600Y007965D01*
X017600Y007726D01*
X018050Y007275D01*
X018400Y007275D01*
X018400Y007719D02*
X018393Y007726D01*
X018925Y006857D02*
X018896Y006829D01*
X018400Y006829D01*
X020252Y007497D02*
X020502Y007502D01*
X020761Y005904D02*
X020967Y005698D01*
X020967Y004737D01*
X020795Y004565D01*
X020767Y004565D01*
X021722Y004679D02*
X021725Y004679D01*
X022127Y004277D01*
X022297Y004277D01*
X022647Y003927D01*
X023506Y003705D02*
X023636Y003835D01*
X023636Y004213D01*
X024169Y004407D02*
X023756Y004820D01*
X023636Y004820D01*
X024577Y004445D02*
X024595Y004445D01*
X024595Y004035D02*
X024595Y003978D01*
X024577Y003960D01*
X024707Y003960D01*
X025042Y003625D01*
X024595Y003625D02*
X024423Y003452D01*
X019677Y003452D01*
X019654Y003454D01*
X019631Y003459D01*
X019609Y003468D01*
X019589Y003481D01*
X019571Y003496D01*
X019556Y003514D01*
X019543Y003534D01*
X019534Y003556D01*
X019529Y003579D01*
X019527Y003602D01*
X019527Y003927D01*
X019237Y004218D01*
X019015Y004218D01*
X019377Y005107D02*
X019347Y005198D01*
X019228Y005218D01*
X017377Y003877D02*
X017218Y003718D01*
X016929Y003718D01*
X016327Y003777D02*
X016167Y003937D01*
X016167Y004467D01*
X016167Y004647D01*
X015945Y004870D01*
X015876Y004870D01*
X015867Y004546D02*
X015516Y004546D01*
X015516Y004870D01*
X015516Y004546D02*
X015516Y004223D01*
X015876Y004223D02*
X015923Y004223D01*
X016167Y004467D01*
X016427Y004827D02*
X015939Y005316D01*
X015876Y005316D01*
X015516Y005316D02*
X015516Y005416D01*
X015516Y003776D02*
X015696Y003776D01*
X015696Y003547D01*
X015696Y003776D02*
X015876Y003776D01*
X024169Y003960D02*
X024577Y003960D01*
X028177Y003727D02*
X028420Y003727D01*
X028464Y003684D01*
X028721Y004384D02*
X028464Y004534D01*
X028177Y006727D02*
X028177Y006834D01*
X028127Y006884D01*
X017927Y009627D02*
X017859Y009627D01*
X017859Y009800D01*
X017091Y009800D02*
X017091Y009635D01*
X016827Y009635D01*
X012701Y013814D02*
X012675Y013816D01*
X012650Y013821D01*
X012626Y013830D01*
X012604Y013843D01*
X012583Y013858D01*
X012565Y013876D01*
X012550Y013897D01*
X012537Y013919D01*
X012528Y013943D01*
X012523Y013968D01*
X012521Y013994D01*
X012522Y013994D02*
X012522Y014637D01*
X012128Y014637D02*
X012128Y013994D01*
X012126Y013968D01*
X012121Y013943D01*
X012112Y013919D01*
X012099Y013897D01*
X012084Y013876D01*
X012066Y013858D01*
X012045Y013843D01*
X012023Y013830D01*
X011999Y013821D01*
X011974Y013816D01*
X011948Y013814D01*
X007119Y014235D02*
X007011Y014127D01*
X006477Y014127D01*
X006176Y014329D02*
X005931Y014329D01*
D44*
X006176Y014329D02*
X006477Y014127D01*
X015784Y009985D02*
X016125Y010276D01*
X017300Y010276D01*
X017347Y010228D01*
X017347Y009800D01*
X017603Y009800D02*
X017603Y010229D01*
X017650Y010276D01*
X018225Y010276D01*
X018327Y010173D01*
X018327Y009477D01*
X018327Y009138D01*
X018400Y009066D01*
X018327Y009477D02*
X019528Y009477D01*
X019528Y009127D01*
X019525Y009174D01*
X019727Y009477D02*
X019750Y009475D01*
X019772Y009471D01*
X019793Y009463D01*
X019814Y009452D01*
X019832Y009438D01*
X019848Y009422D01*
X019862Y009404D01*
X019873Y009383D01*
X019881Y009362D01*
X019885Y009340D01*
X019887Y009317D01*
X019887Y008337D01*
X019472Y008472D02*
X019227Y008227D01*
X019472Y008472D02*
X019472Y008577D01*
X019888Y008337D02*
X019843Y008318D01*
X019801Y008296D01*
X019760Y008270D01*
X019721Y008241D01*
X019685Y008209D01*
X019652Y008174D01*
X019621Y008137D01*
X019594Y008097D01*
X019570Y008055D01*
X019549Y008012D01*
X019533Y007967D01*
X019519Y007920D01*
X019510Y007873D01*
X019505Y007825D01*
X019503Y007777D01*
X019502Y007777D02*
X019505Y007729D01*
X019512Y007682D01*
X019522Y007635D01*
X019536Y007589D01*
X019554Y007544D01*
X019575Y007501D01*
X019599Y007459D01*
X019627Y007420D01*
X019657Y007382D01*
X019690Y007348D01*
X019726Y007316D01*
X019765Y007287D01*
X019805Y007261D01*
X019848Y007238D01*
X019892Y007219D01*
X019938Y007203D01*
X019984Y007191D01*
X020031Y007183D01*
X020079Y007178D01*
X020128Y007177D01*
X020127Y007177D02*
X020877Y007177D01*
X021027Y007327D01*
X021165Y007327D02*
X021165Y007786D01*
X021165Y007327D02*
X021327Y007327D01*
X021327Y006877D02*
X019451Y006877D01*
X018925Y007404D01*
X021327Y006877D02*
X021877Y007427D01*
X024192Y007427D01*
X024323Y007296D01*
X024770Y007296D02*
X024770Y006870D01*
X024770Y007296D02*
X024796Y007296D01*
X024927Y007427D01*
X027227Y007427D01*
X027771Y006884D01*
X028127Y006884D01*
X028464Y006884D01*
X019727Y009477D02*
X019528Y009477D01*
D45*
X013377Y006827D02*
X013077Y006827D01*
X012325Y012574D02*
X012325Y013027D01*
X012127Y013027D01*
X012527Y013027D01*
D46*
X025577Y004777D02*
X025671Y004684D01*
X025677Y004684D01*
X026700Y004310D02*
X027160Y004310D01*
X027177Y004327D01*
X027177Y004077D02*
X027086Y003936D01*
X026700Y003936D01*
X026706Y005383D02*
X027172Y005383D01*
X027177Y005377D01*
D47*
X027177Y004327D01*
X027177Y004077D01*
X025577Y004777D02*
X025577Y004827D01*
X025377Y005027D01*
X025377Y005377D01*
X025372Y005383D01*
X025336Y005383D01*
X025377Y005377D02*
X025377Y006648D01*
X025390Y006660D01*
X026787Y006660D02*
X026905Y006777D01*
X027177Y006777D01*
X027177Y006477D02*
X027177Y005377D01*
X024047Y005383D02*
X024047Y006153D01*
X023990Y006210D01*
X023798Y006402D01*
X023798Y006860D01*
X023251Y006860D02*
X023145Y006860D01*
X022977Y007027D01*
X023011Y005956D02*
X023011Y005185D01*
X022836Y005009D01*
X022836Y004790D02*
X023089Y004820D01*
X023089Y004213D01*
X022499Y004709D02*
X022470Y004679D01*
X022499Y004709D02*
X022836Y004709D01*
X021722Y004680D02*
X021704Y004707D01*
X021689Y004735D01*
X021677Y004765D01*
X021668Y004796D01*
X021663Y004828D01*
X021661Y004860D01*
X021662Y004893D01*
X021662Y004892D02*
X021662Y005215D01*
X021662Y005876D01*
X021722Y005956D01*
X021277Y006050D02*
X021277Y003823D01*
X022096Y003823D01*
X021277Y003823D02*
X020433Y003823D01*
X020329Y003876D01*
X019015Y003718D02*
X018637Y003718D01*
X018497Y003857D01*
X018497Y005722D01*
X018677Y005902D01*
X019577Y005902D01*
X020160Y005902D01*
X020160Y005903D02*
X020161Y005903D01*
X020161Y005904D01*
X020161Y005904D01*
X020161Y006450D02*
X020761Y006450D01*
X020877Y006450D01*
X020916Y006448D01*
X020955Y006442D01*
X020993Y006433D01*
X021030Y006420D01*
X021066Y006403D01*
X021099Y006383D01*
X021131Y006359D01*
X021160Y006333D01*
X021186Y006304D01*
X021210Y006272D01*
X021230Y006239D01*
X021247Y006203D01*
X021260Y006166D01*
X021269Y006128D01*
X021275Y006089D01*
X021277Y006050D01*
X020329Y005274D02*
X020024Y005124D01*
X019618Y004718D01*
X019015Y004718D01*
X019015Y005218D02*
X019228Y005218D01*
X019558Y005904D02*
X019576Y005904D01*
X019576Y005903D02*
X019577Y005903D01*
X019577Y005903D01*
X019577Y005902D01*
X020165Y007497D02*
X020252Y007497D01*
X020527Y007497D01*
X027827Y007452D02*
X027965Y007452D01*
X027965Y007886D01*
X012923Y014637D02*
X012923Y014932D01*
X012922Y014932D02*
X012918Y014979D01*
X012911Y015026D01*
X012899Y015071D01*
X012883Y015116D01*
X012864Y015159D01*
X012842Y015200D01*
X012816Y015240D01*
X012787Y015277D01*
X012755Y015312D01*
X012720Y015344D01*
X012683Y015373D01*
X012643Y015398D01*
X012602Y015421D01*
X012558Y015439D01*
X012514Y015455D01*
X012468Y015466D01*
X012421Y015474D01*
X012374Y015478D01*
X012327Y015477D01*
X012325Y015477D01*
X012327Y015477D02*
X012279Y015478D01*
X012232Y015474D01*
X012185Y015466D01*
X012138Y015454D01*
X012093Y015439D01*
X012050Y015420D01*
X012008Y015397D01*
X011968Y015371D01*
X011930Y015342D01*
X011895Y015310D01*
X011862Y015275D01*
X011833Y015237D01*
X011807Y015197D01*
X011784Y015155D01*
X011765Y015112D01*
X011749Y015067D01*
X011738Y015021D01*
X011730Y014974D01*
X011726Y014926D01*
X011726Y014637D01*
X006627Y014577D02*
X006532Y014723D01*
D48*
X012325Y015327D03*
X012325Y015627D03*
D49*
X012325Y015477D01*
X006627Y014877D02*
X006627Y014577D01*
X021722Y005956D02*
X022027Y005876D01*
X022027Y005807D01*
X022027Y006107D01*
X022677Y007027D02*
X022977Y007027D01*
X022836Y005017D02*
X022836Y005009D01*
X022836Y004790D01*
X022836Y004709D01*
X020527Y003947D02*
X020177Y003947D01*
X020327Y003948D01*
X020329Y003876D01*
X019377Y005107D02*
X019377Y005407D01*
X027177Y006477D02*
X027177Y006777D01*
X027827Y007452D02*
X028077Y007452D01*
D50*
X012325Y015327D02*
X012325Y015627D01*
D51*
X006627Y014877D03*
X006627Y014577D03*
X019377Y005407D03*
X019377Y005107D03*
X020177Y003947D03*
X020527Y003947D03*
X022836Y004709D03*
X022836Y005009D03*
X022027Y005807D03*
X022027Y006107D03*
X022677Y007027D03*
X022977Y007027D03*
X027177Y006777D03*
X027177Y006477D03*
D52*
X024595Y004510D02*
X024127Y004977D01*
X024027Y005077D01*
X024127Y004977D02*
X024127Y005277D01*
X024072Y005333D01*
X024047Y005383D01*
X023059Y005348D02*
X023059Y004770D01*
X023089Y004820D01*
X023089Y004213D02*
X023059Y004103D01*
X023059Y003705D01*
X024595Y004445D02*
X024595Y004510D01*
X025042Y004445D02*
X025042Y004035D01*
X025170Y004035D01*
X025269Y003936D01*
X025677Y003936D01*
X021866Y005215D02*
X021662Y005215D01*
D53*
X021327Y007327D02*
X021027Y007327D01*
X018927Y009827D02*
X018677Y009827D01*
D54*
X006532Y014723D02*
X005931Y014723D01*
D55*
X011025Y010251D02*
X014004Y010251D01*
X014004Y010250D02*
X014029Y010248D01*
X014053Y010243D01*
X014076Y010234D01*
X014098Y010223D01*
X014117Y010208D01*
X014135Y010190D01*
X014150Y010171D01*
X014161Y010149D01*
X014170Y010126D01*
X014175Y010102D01*
X014177Y010077D01*
X014177Y009801D01*
X014570Y009801D01*
X014570Y009800D02*
X014570Y009800D01*
X014570Y009800D01*
X014570Y009800D01*
X014177Y009801D02*
X013779Y009801D01*
X013779Y009150D02*
X014177Y009150D01*
X014177Y008877D01*
X014178Y008877D02*
X014176Y008851D01*
X014171Y008825D01*
X014163Y008800D01*
X014151Y008776D01*
X014136Y008754D01*
X014119Y008734D01*
X014099Y008717D01*
X014077Y008702D01*
X014053Y008690D01*
X014028Y008682D01*
X014002Y008677D01*
X013976Y008675D01*
X013976Y008676D02*
X012625Y008676D01*
X012595Y008678D01*
X012565Y008683D01*
X012536Y008692D01*
X012509Y008705D01*
X012483Y008720D01*
X012459Y008739D01*
X012438Y008760D01*
X012419Y008784D01*
X012404Y008810D01*
X012391Y008837D01*
X012382Y008866D01*
X012377Y008896D01*
X012375Y008926D01*
X012375Y009251D01*
X012373Y009289D01*
X012367Y009326D01*
X012357Y009362D01*
X012344Y009397D01*
X012327Y009431D01*
X012306Y009463D01*
X012283Y009492D01*
X012256Y009519D01*
X012227Y009542D01*
X012195Y009563D01*
X012161Y009580D01*
X012126Y009593D01*
X012090Y009603D01*
X012053Y009609D01*
X012015Y009611D01*
X011075Y009611D01*
X011025Y010250D02*
X010972Y010248D01*
X010919Y010242D01*
X010866Y010233D01*
X010815Y010220D01*
X010764Y010203D01*
X010715Y010182D01*
X010667Y010159D01*
X010621Y010131D01*
X010577Y010101D01*
X010536Y010068D01*
X010497Y010031D01*
X010460Y009992D01*
X010427Y009951D01*
X010397Y009907D01*
X010369Y009861D01*
X010346Y009813D01*
X010325Y009764D01*
X010308Y009713D01*
X010295Y009662D01*
X010286Y009609D01*
X010280Y009556D01*
X010278Y009503D01*
X010277Y009503D02*
X010277Y006706D01*
X009675Y006103D01*
X009675Y004826D01*
X009677Y004778D01*
X009682Y004731D01*
X009691Y004684D01*
X009703Y004637D01*
X009719Y004592D01*
X009738Y004548D01*
X009761Y004506D01*
X009786Y004465D01*
X009815Y004427D01*
X009846Y004391D01*
X009880Y004357D01*
X009916Y004326D01*
X009954Y004297D01*
X009995Y004272D01*
X010037Y004249D01*
X010081Y004230D01*
X010126Y004214D01*
X010173Y004202D01*
X010220Y004193D01*
X010267Y004188D01*
X010315Y004186D01*
X010319Y004186D01*
X010365Y004186D01*
X010365Y005760D02*
X010598Y005760D01*
X010665Y005827D01*
X010665Y009201D01*
X010667Y009239D01*
X010672Y009276D01*
X010681Y009313D01*
X010693Y009349D01*
X010708Y009384D01*
X010726Y009417D01*
X010748Y009448D01*
X010772Y009477D01*
X010799Y009504D01*
X010828Y009528D01*
X010859Y009550D01*
X010892Y009568D01*
X010927Y009583D01*
X010963Y009595D01*
X011000Y009604D01*
X011037Y009609D01*
X011075Y009611D01*
X014177Y009150D02*
X014570Y009150D01*
X015279Y009150D02*
X015575Y009296D01*
X017746Y009296D01*
X017746Y009295D02*
X017772Y009297D01*
X017797Y009302D01*
X017822Y009311D01*
X017844Y009324D01*
X017865Y009339D01*
X017884Y009358D01*
X017899Y009379D01*
X017912Y009401D01*
X017921Y009426D01*
X017926Y009451D01*
X017928Y009477D01*
X017927Y009477D02*
X017927Y009627D01*
X017000Y009635D02*
X016827Y009635D01*
X015625Y009635D01*
X015279Y009800D01*
X015496Y008266D02*
X015196Y008226D01*
X015496Y008266D02*
X015496Y007842D01*
X015496Y008266D02*
X015796Y008226D01*
X010665Y005827D02*
X010665Y005760D01*
D56*
X020502Y007502D03*
X021027Y007327D03*
X021327Y007327D03*
D57*
X017026Y006996D02*
X017026Y006377D01*
X017026Y006996D02*
X015796Y008226D01*
M02*
