%
M48
M72
T01C0.0120
T02C0.0140
T03C0.0160
T04C0.0180
T05C0.0394
T06C0.0454
T07C0.0492
T08C0.0550
T09C0.1181
%
T01
X9925Y4076
X10125Y5326
X12184Y5205
X12184Y5505
X13315Y4956
X13334Y4555
X15477Y5952
X15827Y5952
X16396Y5709
X16617Y6125
X16617Y6425
X16617Y6725
X17722Y6860
X18022Y6860
X18222Y6360
X18522Y6360
X18822Y6360
X19122Y6360
X19072Y7810
X18772Y7810
X18872Y8110
X19172Y8110
X18047Y8885
X17747Y8885
X17447Y8885
X16657Y8935
X16657Y8635
X16657Y8335
X16657Y8035
X15796Y8226
X15496Y8266
X15196Y8226
X12734Y9155
X12734Y9480
X12734Y9805
X15784Y9985
X16084Y9985
X16384Y9985
X16684Y9985
X18677Y9827
X18927Y9827
X16219Y12635
X12527Y13027
X12127Y13027
X7419Y13085
X7419Y12785
X7119Y12785
X7119Y13085
X7119Y14235
X7419Y14235
X7419Y14535
X7119Y14535
X7119Y14835
X7419Y14835
X11125Y16110
X11425Y16110
X11725Y16110
X12025Y16110
X12325Y16110
X12625Y16110
X12925Y16110
X13225Y16110
X13525Y16110
X27827Y7452
X28077Y7452
X28177Y6727
X26742Y5900
X26442Y5900
X26092Y6390
X26092Y6690
X26092Y6990
X26192Y4900
X26192Y4650
X26192Y4400
X25042Y4815
X24867Y5015
X24567Y5015
X24027Y5077
X22647Y3927
X20767Y4565
X20467Y4565
X20167Y4565
X18117Y4625
X17827Y4625
X17827Y4325
X18117Y4325
X18117Y4925
X17827Y4925
X16327Y3777
X15696Y3547
X15867Y4546
X13377Y6827
X13077Y6827
X22192Y6590
X22492Y6590
X22792Y6590
X27592Y4900
X27842Y4750
X27592Y4600
X28177Y3727
X28721Y4384
T02
X21327Y7327
X21027Y7327
X20502Y7502
T03
X22027Y6107
X22027Y5807
X22836Y5009
X22836Y4709
X20527Y3947
X20177Y3947
X19377Y5107
X19377Y5407
X22677Y7027
X22977Y7027
X27177Y6777
X27177Y6477
X6627Y14577
X6627Y14877
T04
X12325Y15327
X12325Y15627
T05
X13224Y7203
T06
X1321Y17283
X30925Y1321
T07
X15496Y7842
T08
X19290Y10111
X20115Y7786
X21165Y7786
X27965Y7886
X27965Y5886
X27965Y5761
X27965Y5636
X12325Y12574
T09
X2031Y2959
X2031Y12459
X31309Y12459
X31309Y2959
M30
