G75*
G70*
%OFA0B0*%
%FSLAX24Y24*%
%IPPOS*%
%LPD*%
%AMOC8*
5,1,8,0,0,1.08239X$1,22.5*
%
%ADD10C,0.0050*%
%ADD11C,0.0000*%
%ADD12C,0.0004*%
%ADD13C,0.0433*%
%ADD14C,0.0709*%
%ADD15C,0.0500*%
%ADD16C,0.0850*%
%ADD17C,0.0825*%
%ADD18C,0.0984*%
%ADD19C,0.0591*%
%ADD20C,0.0787*%
%ADD21C,0.0800*%
%ADD22C,0.0080*%
%ADD23C,0.0240*%
%ADD24C,0.0100*%
%ADD25C,0.0320*%
%ADD26C,0.0300*%
%ADD27C,0.0240*%
%ADD28C,0.0300*%
%ADD29C,0.0280*%
%ADD30C,0.0280*%
%ADD31C,0.0260*%
%ADD32C,0.0220*%
D10*
X001427Y000927D02*
X031912Y000927D01*
X031957Y000928D01*
X032000Y000934D01*
X032044Y000943D01*
X032086Y000956D01*
X032127Y000972D01*
X032166Y000992D01*
X032204Y001015D01*
X032239Y001042D01*
X032272Y001071D01*
X032302Y001104D01*
X032329Y001138D01*
X032353Y001175D01*
X032374Y001214D01*
X032392Y001255D01*
X032405Y001297D01*
X032415Y001340D01*
X032422Y001383D01*
X032424Y001427D01*
X032423Y001427D02*
X032423Y018144D01*
X032424Y018145D02*
X032421Y018188D01*
X032415Y018232D01*
X032405Y018275D01*
X032391Y018317D01*
X032374Y018357D01*
X032353Y018396D01*
X032329Y018433D01*
X032302Y018468D01*
X032271Y018500D01*
X032239Y018529D01*
X032203Y018555D01*
X032166Y018579D01*
X032127Y018598D01*
X032086Y018615D01*
X032043Y018627D01*
X032000Y018636D01*
X031957Y018642D01*
X031912Y018643D01*
X031912Y018642D02*
X015500Y018642D01*
X015500Y018614D01*
X015496Y018586D01*
X015489Y018559D01*
X015478Y018533D01*
X015464Y018509D01*
X015447Y018487D01*
X015427Y018467D01*
X015405Y018450D01*
X015381Y018436D01*
X015355Y018425D01*
X015328Y018418D01*
X015300Y018414D01*
X015150Y018414D01*
X015122Y018418D01*
X015095Y018425D01*
X015069Y018436D01*
X015045Y018450D01*
X015023Y018467D01*
X015003Y018487D01*
X014986Y018509D01*
X014972Y018533D01*
X014961Y018559D01*
X014954Y018586D01*
X014950Y018614D01*
X014950Y018642D01*
X009762Y018642D01*
X009762Y018614D01*
X009758Y018586D01*
X009751Y018559D01*
X009740Y018533D01*
X009726Y018509D01*
X009709Y018487D01*
X009689Y018467D01*
X009667Y018450D01*
X009643Y018436D01*
X009617Y018425D01*
X009590Y018418D01*
X009562Y018414D01*
X009412Y018414D01*
X009413Y018414D02*
X009384Y018418D01*
X009357Y018425D01*
X009331Y018435D01*
X009306Y018449D01*
X009283Y018466D01*
X009263Y018486D01*
X009245Y018508D01*
X009231Y018533D01*
X009219Y018559D01*
X009212Y018586D01*
X009208Y018614D01*
X009207Y018642D01*
X001427Y018642D01*
X001383Y018640D01*
X001340Y018635D01*
X001298Y018625D01*
X001256Y018612D01*
X001216Y018596D01*
X001177Y018576D01*
X001141Y018552D01*
X001106Y018526D01*
X001074Y018497D01*
X001044Y018465D01*
X001018Y018430D01*
X000994Y018393D01*
X000974Y018355D01*
X000957Y018315D01*
X000944Y018273D01*
X000935Y018231D01*
X000929Y018187D01*
X000927Y018144D01*
X000927Y001427D01*
X000929Y001383D01*
X000935Y001340D01*
X000944Y001298D01*
X000957Y001256D01*
X000974Y001216D01*
X000994Y001177D01*
X001017Y001140D01*
X001044Y001106D01*
X001073Y001073D01*
X001106Y001044D01*
X001140Y001017D01*
X001177Y000994D01*
X001216Y000974D01*
X001256Y000957D01*
X001298Y000944D01*
X001340Y000935D01*
X001383Y000929D01*
X001427Y000927D01*
X008225Y002376D02*
X008225Y003826D01*
X009365Y003826D01*
X009365Y003586D01*
X009367Y003556D01*
X009372Y003526D01*
X009381Y003497D01*
X009394Y003470D01*
X009409Y003444D01*
X009428Y003420D01*
X009449Y003399D01*
X009473Y003380D01*
X009499Y003365D01*
X009526Y003352D01*
X009555Y003343D01*
X009585Y003338D01*
X009615Y003336D01*
X010765Y003336D01*
X010795Y003338D01*
X010825Y003343D01*
X010854Y003352D01*
X010881Y003365D01*
X010907Y003380D01*
X010931Y003399D01*
X010952Y003420D01*
X010971Y003444D01*
X010986Y003470D01*
X010999Y003497D01*
X011008Y003526D01*
X011013Y003556D01*
X011015Y003586D01*
X011015Y009086D01*
X011017Y009116D01*
X011022Y009146D01*
X011031Y009175D01*
X011044Y009202D01*
X011059Y009228D01*
X011078Y009252D01*
X011099Y009273D01*
X011123Y009292D01*
X011149Y009307D01*
X011176Y009320D01*
X011205Y009329D01*
X011235Y009334D01*
X011265Y009336D01*
X011815Y009336D01*
X011845Y009334D01*
X011875Y009329D01*
X011904Y009320D01*
X011931Y009307D01*
X011957Y009292D01*
X011981Y009273D01*
X012002Y009252D01*
X012021Y009228D01*
X012036Y009202D01*
X012049Y009175D01*
X012058Y009146D01*
X012063Y009116D01*
X012065Y009086D01*
X012065Y008686D01*
X012067Y008652D01*
X012073Y008619D01*
X012082Y008587D01*
X012095Y008556D01*
X012111Y008526D01*
X012130Y008499D01*
X012153Y008474D01*
X012178Y008451D01*
X012205Y008432D01*
X012235Y008416D01*
X012266Y008403D01*
X012298Y008394D01*
X012331Y008388D01*
X012365Y008386D01*
X014715Y008386D01*
X014738Y008384D01*
X014761Y008379D01*
X014783Y008370D01*
X014803Y008357D01*
X014821Y008342D01*
X014836Y008324D01*
X014849Y008304D01*
X014858Y008282D01*
X014863Y008259D01*
X014865Y008236D01*
X014865Y007986D01*
X014865Y007985D02*
X014868Y007957D01*
X014876Y007930D01*
X014887Y007904D01*
X014901Y007880D01*
X014919Y007858D01*
X014939Y007838D01*
X014961Y007821D01*
X014986Y007807D01*
X015012Y007796D01*
X015039Y007789D01*
X015067Y007785D01*
X015096Y007786D01*
X015665Y007786D01*
X015691Y007784D01*
X015717Y007779D01*
X015742Y007771D01*
X015765Y007759D01*
X015787Y007745D01*
X015806Y007727D01*
X015824Y007708D01*
X015838Y007686D01*
X015850Y007663D01*
X015858Y007638D01*
X015863Y007612D01*
X015865Y007586D01*
X015865Y006896D01*
X015861Y006869D01*
X015854Y006843D01*
X015843Y006818D01*
X015829Y006795D01*
X015812Y006774D01*
X015792Y006756D01*
X015769Y006741D01*
X015745Y006729D01*
X015719Y006721D01*
X015692Y006717D01*
X015665Y006716D01*
X015465Y006716D01*
X015439Y006714D01*
X015413Y006709D01*
X015388Y006701D01*
X015365Y006689D01*
X015343Y006675D01*
X015324Y006657D01*
X015306Y006638D01*
X015292Y006616D01*
X015280Y006593D01*
X015272Y006568D01*
X015267Y006542D01*
X015265Y006516D01*
X015265Y005830D01*
X015262Y005806D01*
X015256Y005784D01*
X015247Y005762D01*
X015235Y005742D01*
X015220Y005724D01*
X015203Y005708D01*
X015183Y005695D01*
X015162Y005685D01*
X015140Y005678D01*
X015117Y005674D01*
X015094Y005673D01*
X015093Y005673D02*
X014360Y005673D01*
X014360Y005674D02*
X014337Y005678D01*
X014315Y005685D01*
X014294Y005695D01*
X014275Y005708D01*
X014258Y005724D01*
X014244Y005742D01*
X014232Y005762D01*
X014223Y005783D01*
X014217Y005805D01*
X014214Y005828D01*
X014215Y005851D01*
X014215Y005913D01*
X014215Y005914D02*
X014215Y005937D01*
X014211Y005960D01*
X014205Y005982D01*
X014195Y006003D01*
X014183Y006022D01*
X014168Y006039D01*
X014150Y006054D01*
X014131Y006067D01*
X014110Y006076D01*
X014088Y006082D01*
X014065Y006086D01*
X013875Y006086D01*
X013875Y006087D02*
X013852Y006090D01*
X013830Y006097D01*
X013809Y006107D01*
X013789Y006120D01*
X013772Y006136D01*
X013756Y006153D01*
X013744Y006173D01*
X013735Y006195D01*
X013728Y006217D01*
X013725Y006240D01*
X013726Y006264D01*
X013725Y006263D02*
X013725Y007213D01*
X012725Y007213D01*
X012725Y006713D01*
X012704Y006656D01*
X012681Y006600D01*
X012654Y006546D01*
X012624Y006493D01*
X012592Y006442D01*
X012556Y006393D01*
X012518Y006346D01*
X012478Y006301D01*
X012435Y006258D01*
X012389Y006218D01*
X012341Y006181D01*
X012292Y006146D01*
X012240Y006114D01*
X012187Y006085D01*
X012187Y006086D02*
X012137Y006048D01*
X012089Y006007D01*
X012044Y005963D01*
X012002Y005917D01*
X011962Y005868D01*
X011926Y005816D01*
X011893Y005763D01*
X011863Y005708D01*
X011836Y005651D01*
X011813Y005592D01*
X011794Y005532D01*
X011778Y005471D01*
X011766Y005410D01*
X011757Y005347D01*
X011753Y005284D01*
X011752Y005222D01*
X011755Y005159D01*
X011762Y005096D01*
X011773Y005034D01*
X011787Y004973D01*
X011805Y004913D01*
X011827Y004854D01*
X011852Y004796D01*
X011881Y004740D01*
X011913Y004686D01*
X011948Y004634D01*
X011986Y004584D01*
X012027Y004536D01*
X012072Y004491D01*
X012118Y004449D01*
X012167Y004410D01*
X012219Y004374D01*
X012272Y004341D01*
X012328Y004311D01*
X012385Y004285D01*
X012443Y004262D01*
X012503Y004243D01*
X012564Y004227D01*
X012626Y004215D01*
X012688Y004207D01*
X012751Y004203D01*
X012814Y004202D01*
X012877Y004206D01*
X012939Y004213D01*
X013001Y004224D01*
X013063Y004238D01*
X013123Y004256D01*
X013182Y004278D01*
X013239Y004304D01*
X013240Y004303D02*
X013460Y004303D01*
X013660Y004103D01*
X013660Y003903D01*
X013659Y003903D02*
X013661Y003871D01*
X013666Y003839D01*
X013676Y003808D01*
X013689Y003778D01*
X013705Y003750D01*
X013724Y003724D01*
X013746Y003701D01*
X013771Y003680D01*
X013798Y003662D01*
X013827Y003648D01*
X013857Y003637D01*
X013889Y003629D01*
X013921Y003625D01*
X013953Y003625D01*
X013985Y003629D01*
X014017Y003637D01*
X014047Y003648D01*
X014076Y003662D01*
X014103Y003680D01*
X014128Y003701D01*
X014150Y003724D01*
X014169Y003750D01*
X014185Y003778D01*
X014198Y003808D01*
X014208Y003839D01*
X014213Y003871D01*
X014215Y003903D01*
X014215Y004625D01*
X014218Y004648D01*
X014225Y004670D01*
X014235Y004691D01*
X014248Y004711D01*
X014263Y004728D01*
X014281Y004743D01*
X014301Y004755D01*
X014322Y004765D01*
X014345Y004771D01*
X014368Y004774D01*
X014391Y004773D01*
X015115Y004773D01*
X015138Y004770D01*
X015160Y004763D01*
X015180Y004754D01*
X015200Y004742D01*
X015217Y004727D01*
X015232Y004710D01*
X015245Y004691D01*
X015254Y004670D01*
X015261Y004648D01*
X015264Y004626D01*
X015265Y004603D01*
X015265Y003586D01*
X015267Y003552D01*
X015273Y003519D01*
X015282Y003487D01*
X015295Y003456D01*
X015311Y003426D01*
X015330Y003399D01*
X015353Y003374D01*
X015378Y003351D01*
X015405Y003332D01*
X015435Y003316D01*
X015466Y003303D01*
X015498Y003294D01*
X015531Y003288D01*
X015565Y003286D01*
X017025Y003286D01*
X017025Y002126D01*
X008475Y002126D01*
X008445Y002128D01*
X008415Y002133D01*
X008386Y002142D01*
X008359Y002155D01*
X008333Y002170D01*
X008309Y002189D01*
X008288Y002210D01*
X008269Y002234D01*
X008254Y002260D01*
X008241Y002287D01*
X008232Y002316D01*
X008227Y002346D01*
X008225Y002376D01*
X008225Y004676D02*
X009365Y004676D01*
X009365Y009486D01*
X007615Y011236D01*
X006515Y011236D01*
X006485Y011235D01*
X006455Y011237D01*
X006426Y011243D01*
X006398Y011252D01*
X006370Y011263D01*
X006344Y011278D01*
X006320Y011296D01*
X006299Y011316D01*
X006279Y011339D01*
X006262Y011364D01*
X006248Y011390D01*
X006237Y011418D01*
X006230Y011447D01*
X006225Y011476D01*
X004475Y011476D01*
X004475Y010476D01*
X004477Y010446D01*
X004482Y010416D01*
X004491Y010387D01*
X004504Y010360D01*
X004519Y010334D01*
X004538Y010310D01*
X004559Y010289D01*
X004583Y010270D01*
X004609Y010255D01*
X004636Y010242D01*
X004665Y010233D01*
X004695Y010228D01*
X004725Y010226D01*
X007025Y010226D01*
X008225Y009026D01*
X008225Y004676D01*
X017875Y003286D02*
X017875Y002126D01*
X029775Y002126D01*
X029805Y002128D01*
X029835Y002133D01*
X029864Y002142D01*
X029891Y002155D01*
X029917Y002170D01*
X029941Y002189D01*
X029962Y002210D01*
X029981Y002234D01*
X029996Y002260D01*
X030009Y002287D01*
X030018Y002316D01*
X030023Y002346D01*
X030025Y002376D01*
X030025Y005901D01*
X028965Y005901D01*
X028965Y003636D01*
X028966Y003602D01*
X028963Y003568D01*
X028957Y003534D01*
X028947Y003502D01*
X028934Y003470D01*
X028918Y003440D01*
X028898Y003412D01*
X028876Y003386D01*
X028851Y003363D01*
X028824Y003342D01*
X028795Y003324D01*
X028764Y003310D01*
X028732Y003298D01*
X028699Y003290D01*
X028665Y003286D01*
X017875Y003286D01*
X021865Y007636D02*
X021665Y007836D01*
X020325Y007836D01*
X020295Y007838D01*
X020265Y007843D01*
X020236Y007852D01*
X020209Y007865D01*
X020183Y007880D01*
X020159Y007899D01*
X020138Y007920D01*
X020119Y007944D01*
X020104Y007970D01*
X020091Y007997D01*
X020082Y008026D01*
X020077Y008056D01*
X020075Y008086D01*
X020075Y009955D01*
X020072Y009983D01*
X020066Y010009D01*
X020056Y010035D01*
X020043Y010059D01*
X020027Y010081D01*
X020008Y010101D01*
X019986Y010118D01*
X019963Y010132D01*
X019938Y010143D01*
X019912Y010151D01*
X019885Y010155D01*
X019858Y010156D01*
X019858Y010155D02*
X018821Y010155D01*
X018798Y010157D01*
X018776Y010162D01*
X018755Y010170D01*
X018735Y010182D01*
X018718Y010197D01*
X018703Y010214D01*
X018690Y010234D01*
X018681Y010255D01*
X018676Y010277D01*
X018674Y010300D01*
X018675Y010299D02*
X018674Y010325D01*
X018670Y010349D01*
X018663Y010374D01*
X018652Y010396D01*
X018638Y010417D01*
X018621Y010436D01*
X018602Y010452D01*
X018580Y010466D01*
X018557Y010476D01*
X018533Y010483D01*
X018508Y010486D01*
X011825Y010486D01*
X011825Y012524D01*
X013725Y012524D01*
X013724Y012525D02*
X013785Y012530D01*
X013846Y012540D01*
X013905Y012553D01*
X013964Y012570D01*
X014022Y012590D01*
X014078Y012615D01*
X014132Y012642D01*
X014185Y012673D01*
X014235Y012708D01*
X014283Y012745D01*
X014329Y012786D01*
X014372Y012829D01*
X014413Y012875D01*
X014450Y012924D01*
X014484Y012974D01*
X014515Y013027D01*
X014542Y013082D01*
X014566Y013138D01*
X014586Y013196D01*
X014603Y013255D01*
X014616Y013314D01*
X014625Y013375D01*
X014625Y013374D02*
X014625Y014264D01*
X015785Y014264D01*
X015785Y012426D01*
X015787Y012396D01*
X015792Y012366D01*
X015801Y012337D01*
X015814Y012310D01*
X015829Y012284D01*
X015848Y012260D01*
X015869Y012239D01*
X015893Y012220D01*
X015919Y012205D01*
X015946Y012192D01*
X015975Y012183D01*
X016005Y012178D01*
X016035Y012176D01*
X020775Y012176D01*
X020805Y012174D01*
X020835Y012169D01*
X020864Y012160D01*
X020891Y012147D01*
X020917Y012132D01*
X020941Y012113D01*
X020962Y012092D01*
X020981Y012068D01*
X020996Y012042D01*
X021009Y012015D01*
X021018Y011986D01*
X021023Y011956D01*
X021025Y011926D01*
X021025Y010436D01*
X022075Y009376D01*
X029775Y009376D01*
X029805Y009374D01*
X029835Y009369D01*
X029864Y009360D01*
X029891Y009347D01*
X029917Y009332D01*
X029941Y009313D01*
X029962Y009292D01*
X029981Y009268D01*
X029996Y009242D01*
X030009Y009215D01*
X030018Y009186D01*
X030023Y009156D01*
X030025Y009126D01*
X030025Y006801D01*
X028965Y006801D01*
X028965Y007455D01*
X028966Y007479D01*
X028964Y007502D01*
X028958Y007524D01*
X028949Y007546D01*
X028938Y007566D01*
X028923Y007584D01*
X028906Y007600D01*
X028887Y007614D01*
X028866Y007624D01*
X028844Y007632D01*
X028822Y007636D01*
X028821Y007636D02*
X028758Y007636D01*
X028732Y007635D01*
X028706Y007639D01*
X028680Y007646D01*
X028656Y007657D01*
X028634Y007671D01*
X028614Y007688D01*
X028596Y007708D01*
X028582Y007730D01*
X028570Y007753D01*
X028563Y007779D01*
X028559Y007805D01*
X028558Y007805D02*
X028556Y007828D01*
X028551Y007851D01*
X028542Y007873D01*
X028529Y007893D01*
X028514Y007911D01*
X028496Y007926D01*
X028476Y007939D01*
X028454Y007948D01*
X028431Y007953D01*
X028408Y007955D01*
X027521Y007955D01*
X027498Y007953D01*
X027475Y007948D01*
X027453Y007939D01*
X027433Y007926D01*
X027415Y007911D01*
X027400Y007893D01*
X027387Y007873D01*
X027378Y007851D01*
X027373Y007828D01*
X027371Y007805D01*
X027367Y007779D01*
X027360Y007753D01*
X027348Y007730D01*
X027334Y007708D01*
X027316Y007688D01*
X027296Y007671D01*
X027274Y007657D01*
X027250Y007646D01*
X027224Y007639D01*
X027198Y007635D01*
X027172Y007636D01*
X027171Y007636D02*
X021865Y007636D01*
X011025Y010486D02*
X011025Y012524D01*
X010975Y012524D01*
X010025Y013374D02*
X010025Y016238D01*
X010045Y016282D01*
X010069Y016324D01*
X010096Y016364D01*
X010126Y016402D01*
X010159Y016437D01*
X010195Y016470D01*
X010233Y016500D01*
X010273Y016527D01*
X010316Y016550D01*
X010360Y016570D01*
X010405Y016587D01*
X010452Y016600D01*
X010499Y016609D01*
X010547Y016614D01*
X010596Y016616D01*
X010644Y016614D01*
X010692Y016608D01*
X010739Y016598D01*
X010786Y016585D01*
X010831Y016568D01*
X010928Y016474D02*
X013718Y016474D01*
X013719Y016474D02*
X013730Y016494D01*
X013744Y016513D01*
X013760Y016530D01*
X013778Y016545D01*
X013798Y016558D01*
X013818Y016568D01*
X014625Y016238D02*
X014625Y015114D01*
X015785Y015114D01*
X015785Y017014D01*
X015784Y017044D01*
X015779Y017073D01*
X015771Y017101D01*
X015759Y017128D01*
X015744Y017154D01*
X015727Y017178D01*
X015706Y017199D01*
X015683Y017218D01*
X015658Y017234D01*
X015632Y017246D01*
X015603Y017256D01*
X015574Y017262D01*
X015545Y017264D01*
X015500Y017264D01*
X015500Y017292D01*
X015496Y017320D01*
X015489Y017347D01*
X015478Y017373D01*
X015464Y017397D01*
X015447Y017419D01*
X015427Y017439D01*
X015405Y017456D01*
X015381Y017470D01*
X015355Y017481D01*
X015328Y017488D01*
X015300Y017492D01*
X015150Y017492D01*
X015122Y017488D01*
X015095Y017481D01*
X015069Y017470D01*
X015045Y017456D01*
X015023Y017439D01*
X015003Y017419D01*
X014986Y017397D01*
X014972Y017373D01*
X014961Y017347D01*
X014954Y017320D01*
X014950Y017292D01*
X014950Y017264D01*
X009762Y017264D01*
X009762Y017292D01*
X009758Y017320D01*
X009751Y017347D01*
X009740Y017373D01*
X009726Y017397D01*
X009709Y017419D01*
X009689Y017439D01*
X009667Y017456D01*
X009643Y017470D01*
X009617Y017481D01*
X009590Y017488D01*
X009562Y017492D01*
X009412Y017492D01*
X009413Y017493D02*
X009384Y017489D01*
X009357Y017482D01*
X009331Y017472D01*
X009306Y017458D01*
X009283Y017441D01*
X009263Y017421D01*
X009245Y017399D01*
X009231Y017374D01*
X009219Y017348D01*
X009212Y017321D01*
X009208Y017293D01*
X009207Y017265D01*
X009207Y017264D02*
X004725Y017264D01*
X004695Y017262D01*
X004665Y017257D01*
X004636Y017248D01*
X004609Y017235D01*
X004583Y017220D01*
X004559Y017201D01*
X004538Y017180D01*
X004519Y017156D01*
X004504Y017130D01*
X004491Y017103D01*
X004482Y017074D01*
X004477Y017044D01*
X004475Y017014D01*
X004475Y012326D01*
X006225Y012326D01*
X006225Y013526D01*
X005925Y013976D02*
X005625Y014076D01*
X005599Y014085D01*
X005574Y014097D01*
X005551Y014113D01*
X005530Y014131D01*
X005512Y014152D01*
X005496Y014175D01*
X005484Y014200D01*
X005475Y014226D01*
X005475Y014826D01*
X005625Y014976D02*
X005925Y015076D01*
X006075Y015226D02*
X006075Y015476D01*
X006077Y015499D01*
X006082Y015522D01*
X006091Y015544D01*
X006104Y015564D01*
X006119Y015582D01*
X006137Y015597D01*
X006157Y015610D01*
X006179Y015619D01*
X006202Y015624D01*
X006225Y015626D01*
X007675Y015626D01*
X007698Y015624D01*
X007721Y015619D01*
X007743Y015610D01*
X007763Y015597D01*
X007781Y015582D01*
X007796Y015564D01*
X007809Y015544D01*
X007818Y015522D01*
X007823Y015499D01*
X007825Y015476D01*
X007825Y014176D01*
X007869Y014174D01*
X007912Y014168D01*
X007954Y014159D01*
X007996Y014146D01*
X008036Y014129D01*
X008075Y014109D01*
X008112Y014086D01*
X008146Y014059D01*
X008179Y014030D01*
X008208Y013997D01*
X008235Y013963D01*
X008258Y013926D01*
X008278Y013887D01*
X008295Y013847D01*
X008308Y013805D01*
X008317Y013763D01*
X008323Y013720D01*
X008325Y013676D01*
X008323Y013632D01*
X008317Y013589D01*
X008308Y013547D01*
X008295Y013505D01*
X008278Y013465D01*
X008258Y013426D01*
X008235Y013389D01*
X008208Y013355D01*
X008179Y013322D01*
X008146Y013293D01*
X008112Y013266D01*
X008075Y013243D01*
X008036Y013223D01*
X007996Y013206D01*
X007954Y013193D01*
X007912Y013184D01*
X007869Y013178D01*
X007825Y013176D01*
X007825Y012636D01*
X009965Y010486D01*
X011025Y010486D01*
X010974Y012524D02*
X010914Y012527D01*
X010855Y012535D01*
X010795Y012546D01*
X010737Y012560D01*
X010680Y012578D01*
X010623Y012600D01*
X010569Y012625D01*
X010515Y012653D01*
X010464Y012684D01*
X010415Y012719D01*
X010367Y012756D01*
X010322Y012796D01*
X010280Y012839D01*
X010240Y012884D01*
X010204Y012932D01*
X010170Y012982D01*
X010139Y013033D01*
X010111Y013087D01*
X010087Y013142D01*
X010066Y013198D01*
X010048Y013256D01*
X010034Y013315D01*
X010024Y013374D01*
X005625Y014976D02*
X005599Y014967D01*
X005574Y014955D01*
X005551Y014939D01*
X005530Y014921D01*
X005512Y014900D01*
X005496Y014877D01*
X005484Y014852D01*
X005475Y014826D01*
X005925Y015076D02*
X005954Y015089D01*
X005980Y015105D01*
X006005Y015124D01*
X006027Y015146D01*
X006046Y015171D01*
X006062Y015197D01*
X006075Y015226D01*
X005925Y013976D02*
X005963Y013950D01*
X006000Y013922D01*
X006035Y013891D01*
X006067Y013857D01*
X006097Y013822D01*
X006125Y013784D01*
X006149Y013744D01*
X006170Y013703D01*
X006189Y013660D01*
X006204Y013616D01*
X006216Y013571D01*
X006225Y013526D01*
X010831Y016568D02*
X010851Y016558D01*
X010870Y016545D01*
X010888Y016530D01*
X010903Y016513D01*
X010917Y016494D01*
X010928Y016474D01*
X013819Y016568D02*
X013864Y016585D01*
X013911Y016598D01*
X013958Y016608D01*
X014006Y016614D01*
X014054Y016616D01*
X014103Y016614D01*
X014151Y016609D01*
X014198Y016600D01*
X014245Y016587D01*
X014290Y016570D01*
X014334Y016550D01*
X014377Y016527D01*
X014417Y016500D01*
X014455Y016470D01*
X014491Y016437D01*
X014524Y016402D01*
X014554Y016364D01*
X014581Y016324D01*
X014605Y016282D01*
X014625Y016238D01*
D11*
X001440Y012459D02*
X001442Y012507D01*
X001448Y012555D01*
X001458Y012602D01*
X001471Y012648D01*
X001489Y012693D01*
X001509Y012737D01*
X001534Y012779D01*
X001562Y012818D01*
X001592Y012855D01*
X001626Y012889D01*
X001663Y012921D01*
X001701Y012950D01*
X001742Y012975D01*
X001785Y012997D01*
X001830Y013015D01*
X001876Y013029D01*
X001923Y013040D01*
X001971Y013047D01*
X002019Y013050D01*
X002067Y013049D01*
X002115Y013044D01*
X002163Y013035D01*
X002209Y013023D01*
X002254Y013006D01*
X002298Y012986D01*
X002340Y012963D01*
X002380Y012936D01*
X002418Y012906D01*
X002453Y012873D01*
X002485Y012837D01*
X002515Y012799D01*
X002541Y012758D01*
X002563Y012715D01*
X002583Y012671D01*
X002598Y012626D01*
X002610Y012579D01*
X002618Y012531D01*
X002622Y012483D01*
X002622Y012435D01*
X002618Y012387D01*
X002610Y012339D01*
X002598Y012292D01*
X002583Y012247D01*
X002563Y012203D01*
X002541Y012160D01*
X002515Y012119D01*
X002485Y012081D01*
X002453Y012045D01*
X002418Y012012D01*
X002380Y011982D01*
X002340Y011955D01*
X002298Y011932D01*
X002254Y011912D01*
X002209Y011895D01*
X002163Y011883D01*
X002115Y011874D01*
X002067Y011869D01*
X002019Y011868D01*
X001971Y011871D01*
X001923Y011878D01*
X001876Y011889D01*
X001830Y011903D01*
X001785Y011921D01*
X001742Y011943D01*
X001701Y011968D01*
X001663Y011997D01*
X001626Y012029D01*
X001592Y012063D01*
X001562Y012100D01*
X001534Y012139D01*
X001509Y012181D01*
X001489Y012225D01*
X001471Y012270D01*
X001458Y012316D01*
X001448Y012363D01*
X001442Y012411D01*
X001440Y012459D01*
X001094Y017283D02*
X001096Y017313D01*
X001102Y017342D01*
X001111Y017370D01*
X001124Y017396D01*
X001141Y017421D01*
X001160Y017444D01*
X001183Y017463D01*
X001207Y017480D01*
X001234Y017493D01*
X001262Y017502D01*
X001291Y017508D01*
X001321Y017510D01*
X001351Y017508D01*
X001380Y017502D01*
X001408Y017493D01*
X001434Y017480D01*
X001459Y017463D01*
X001482Y017444D01*
X001501Y017421D01*
X001518Y017397D01*
X001531Y017370D01*
X001540Y017342D01*
X001546Y017313D01*
X001548Y017283D01*
X001546Y017253D01*
X001540Y017224D01*
X001531Y017196D01*
X001518Y017170D01*
X001501Y017145D01*
X001482Y017122D01*
X001459Y017103D01*
X001435Y017086D01*
X001408Y017073D01*
X001380Y017064D01*
X001351Y017058D01*
X001321Y017056D01*
X001291Y017058D01*
X001262Y017064D01*
X001234Y017073D01*
X001208Y017086D01*
X001183Y017103D01*
X001160Y017122D01*
X001141Y017145D01*
X001124Y017169D01*
X001111Y017196D01*
X001102Y017224D01*
X001096Y017253D01*
X001094Y017283D01*
X001440Y002959D02*
X001442Y003007D01*
X001448Y003055D01*
X001458Y003102D01*
X001471Y003148D01*
X001489Y003193D01*
X001509Y003237D01*
X001534Y003279D01*
X001562Y003318D01*
X001592Y003355D01*
X001626Y003389D01*
X001663Y003421D01*
X001701Y003450D01*
X001742Y003475D01*
X001785Y003497D01*
X001830Y003515D01*
X001876Y003529D01*
X001923Y003540D01*
X001971Y003547D01*
X002019Y003550D01*
X002067Y003549D01*
X002115Y003544D01*
X002163Y003535D01*
X002209Y003523D01*
X002254Y003506D01*
X002298Y003486D01*
X002340Y003463D01*
X002380Y003436D01*
X002418Y003406D01*
X002453Y003373D01*
X002485Y003337D01*
X002515Y003299D01*
X002541Y003258D01*
X002563Y003215D01*
X002583Y003171D01*
X002598Y003126D01*
X002610Y003079D01*
X002618Y003031D01*
X002622Y002983D01*
X002622Y002935D01*
X002618Y002887D01*
X002610Y002839D01*
X002598Y002792D01*
X002583Y002747D01*
X002563Y002703D01*
X002541Y002660D01*
X002515Y002619D01*
X002485Y002581D01*
X002453Y002545D01*
X002418Y002512D01*
X002380Y002482D01*
X002340Y002455D01*
X002298Y002432D01*
X002254Y002412D01*
X002209Y002395D01*
X002163Y002383D01*
X002115Y002374D01*
X002067Y002369D01*
X002019Y002368D01*
X001971Y002371D01*
X001923Y002378D01*
X001876Y002389D01*
X001830Y002403D01*
X001785Y002421D01*
X001742Y002443D01*
X001701Y002468D01*
X001663Y002497D01*
X001626Y002529D01*
X001592Y002563D01*
X001562Y002600D01*
X001534Y002639D01*
X001509Y002681D01*
X001489Y002725D01*
X001471Y002770D01*
X001458Y002816D01*
X001448Y002863D01*
X001442Y002911D01*
X001440Y002959D01*
X030698Y001321D02*
X030700Y001351D01*
X030706Y001380D01*
X030715Y001408D01*
X030728Y001434D01*
X030745Y001459D01*
X030764Y001482D01*
X030787Y001501D01*
X030811Y001518D01*
X030838Y001531D01*
X030866Y001540D01*
X030895Y001546D01*
X030925Y001548D01*
X030955Y001546D01*
X030984Y001540D01*
X031012Y001531D01*
X031038Y001518D01*
X031063Y001501D01*
X031086Y001482D01*
X031105Y001459D01*
X031122Y001435D01*
X031135Y001408D01*
X031144Y001380D01*
X031150Y001351D01*
X031152Y001321D01*
X031150Y001291D01*
X031144Y001262D01*
X031135Y001234D01*
X031122Y001208D01*
X031105Y001183D01*
X031086Y001160D01*
X031063Y001141D01*
X031039Y001124D01*
X031012Y001111D01*
X030984Y001102D01*
X030955Y001096D01*
X030925Y001094D01*
X030895Y001096D01*
X030866Y001102D01*
X030838Y001111D01*
X030812Y001124D01*
X030787Y001141D01*
X030764Y001160D01*
X030745Y001183D01*
X030728Y001207D01*
X030715Y001234D01*
X030706Y001262D01*
X030700Y001291D01*
X030698Y001321D01*
X030718Y002959D02*
X030720Y003007D01*
X030726Y003055D01*
X030736Y003102D01*
X030749Y003148D01*
X030767Y003193D01*
X030787Y003237D01*
X030812Y003279D01*
X030840Y003318D01*
X030870Y003355D01*
X030904Y003389D01*
X030941Y003421D01*
X030979Y003450D01*
X031020Y003475D01*
X031063Y003497D01*
X031108Y003515D01*
X031154Y003529D01*
X031201Y003540D01*
X031249Y003547D01*
X031297Y003550D01*
X031345Y003549D01*
X031393Y003544D01*
X031441Y003535D01*
X031487Y003523D01*
X031532Y003506D01*
X031576Y003486D01*
X031618Y003463D01*
X031658Y003436D01*
X031696Y003406D01*
X031731Y003373D01*
X031763Y003337D01*
X031793Y003299D01*
X031819Y003258D01*
X031841Y003215D01*
X031861Y003171D01*
X031876Y003126D01*
X031888Y003079D01*
X031896Y003031D01*
X031900Y002983D01*
X031900Y002935D01*
X031896Y002887D01*
X031888Y002839D01*
X031876Y002792D01*
X031861Y002747D01*
X031841Y002703D01*
X031819Y002660D01*
X031793Y002619D01*
X031763Y002581D01*
X031731Y002545D01*
X031696Y002512D01*
X031658Y002482D01*
X031618Y002455D01*
X031576Y002432D01*
X031532Y002412D01*
X031487Y002395D01*
X031441Y002383D01*
X031393Y002374D01*
X031345Y002369D01*
X031297Y002368D01*
X031249Y002371D01*
X031201Y002378D01*
X031154Y002389D01*
X031108Y002403D01*
X031063Y002421D01*
X031020Y002443D01*
X030979Y002468D01*
X030941Y002497D01*
X030904Y002529D01*
X030870Y002563D01*
X030840Y002600D01*
X030812Y002639D01*
X030787Y002681D01*
X030767Y002725D01*
X030749Y002770D01*
X030736Y002816D01*
X030726Y002863D01*
X030720Y002911D01*
X030718Y002959D01*
X030718Y012459D02*
X030720Y012507D01*
X030726Y012555D01*
X030736Y012602D01*
X030749Y012648D01*
X030767Y012693D01*
X030787Y012737D01*
X030812Y012779D01*
X030840Y012818D01*
X030870Y012855D01*
X030904Y012889D01*
X030941Y012921D01*
X030979Y012950D01*
X031020Y012975D01*
X031063Y012997D01*
X031108Y013015D01*
X031154Y013029D01*
X031201Y013040D01*
X031249Y013047D01*
X031297Y013050D01*
X031345Y013049D01*
X031393Y013044D01*
X031441Y013035D01*
X031487Y013023D01*
X031532Y013006D01*
X031576Y012986D01*
X031618Y012963D01*
X031658Y012936D01*
X031696Y012906D01*
X031731Y012873D01*
X031763Y012837D01*
X031793Y012799D01*
X031819Y012758D01*
X031841Y012715D01*
X031861Y012671D01*
X031876Y012626D01*
X031888Y012579D01*
X031896Y012531D01*
X031900Y012483D01*
X031900Y012435D01*
X031896Y012387D01*
X031888Y012339D01*
X031876Y012292D01*
X031861Y012247D01*
X031841Y012203D01*
X031819Y012160D01*
X031793Y012119D01*
X031763Y012081D01*
X031731Y012045D01*
X031696Y012012D01*
X031658Y011982D01*
X031618Y011955D01*
X031576Y011932D01*
X031532Y011912D01*
X031487Y011895D01*
X031441Y011883D01*
X031393Y011874D01*
X031345Y011869D01*
X031297Y011868D01*
X031249Y011871D01*
X031201Y011878D01*
X031154Y011889D01*
X031108Y011903D01*
X031063Y011921D01*
X031020Y011943D01*
X030979Y011968D01*
X030941Y011997D01*
X030904Y012029D01*
X030870Y012063D01*
X030840Y012100D01*
X030812Y012139D01*
X030787Y012181D01*
X030767Y012225D01*
X030749Y012270D01*
X030736Y012316D01*
X030726Y012363D01*
X030720Y012411D01*
X030718Y012459D01*
D12*
X014134Y014566D02*
X014134Y014810D01*
X014132Y014830D01*
X014127Y014849D01*
X014118Y014867D01*
X014106Y014883D01*
X014091Y014896D01*
X014074Y014907D01*
X014056Y014914D01*
X014036Y014918D01*
X014016Y014918D01*
X013996Y014914D01*
X013978Y014907D01*
X013961Y014896D01*
X013946Y014883D01*
X013934Y014867D01*
X013925Y014849D01*
X013920Y014830D01*
X013918Y014810D01*
X013917Y014810D02*
X013917Y014566D01*
X013918Y014566D02*
X013920Y014546D01*
X013925Y014527D01*
X013934Y014509D01*
X013946Y014493D01*
X013961Y014480D01*
X013978Y014469D01*
X013996Y014462D01*
X014016Y014458D01*
X014036Y014458D01*
X014056Y014462D01*
X014074Y014469D01*
X014091Y014480D01*
X014106Y014493D01*
X014118Y014509D01*
X014127Y014527D01*
X014132Y014546D01*
X014134Y014566D01*
X014134Y016062D02*
X014134Y016306D01*
X014132Y016326D01*
X014127Y016345D01*
X014118Y016363D01*
X014106Y016379D01*
X014091Y016392D01*
X014074Y016403D01*
X014056Y016410D01*
X014036Y016414D01*
X014016Y016414D01*
X013996Y016410D01*
X013978Y016403D01*
X013961Y016392D01*
X013946Y016379D01*
X013934Y016363D01*
X013925Y016345D01*
X013920Y016326D01*
X013918Y016306D01*
X013917Y016306D02*
X013917Y016062D01*
X013918Y016062D02*
X013920Y016042D01*
X013925Y016023D01*
X013934Y016005D01*
X013946Y015989D01*
X013961Y015976D01*
X013978Y015965D01*
X013996Y015958D01*
X014016Y015954D01*
X014036Y015954D01*
X014056Y015958D01*
X014074Y015965D01*
X014091Y015976D01*
X014106Y015989D01*
X014118Y016005D01*
X014127Y016023D01*
X014132Y016042D01*
X014134Y016062D01*
X010732Y016062D02*
X010732Y016306D01*
X010730Y016326D01*
X010725Y016345D01*
X010716Y016363D01*
X010704Y016379D01*
X010689Y016392D01*
X010672Y016403D01*
X010654Y016410D01*
X010634Y016414D01*
X010614Y016414D01*
X010594Y016410D01*
X010576Y016403D01*
X010559Y016392D01*
X010544Y016379D01*
X010532Y016363D01*
X010523Y016345D01*
X010518Y016326D01*
X010516Y016306D01*
X010516Y016062D01*
X010518Y016042D01*
X010523Y016023D01*
X010532Y016005D01*
X010544Y015989D01*
X010559Y015976D01*
X010576Y015965D01*
X010594Y015958D01*
X010614Y015954D01*
X010634Y015954D01*
X010654Y015958D01*
X010672Y015965D01*
X010689Y015976D01*
X010704Y015989D01*
X010716Y016005D01*
X010725Y016023D01*
X010730Y016042D01*
X010732Y016062D01*
X010732Y014810D02*
X010732Y014566D01*
X010730Y014546D01*
X010725Y014527D01*
X010716Y014509D01*
X010704Y014493D01*
X010689Y014480D01*
X010672Y014469D01*
X010654Y014462D01*
X010634Y014458D01*
X010614Y014458D01*
X010594Y014462D01*
X010576Y014469D01*
X010559Y014480D01*
X010544Y014493D01*
X010532Y014509D01*
X010523Y014527D01*
X010518Y014546D01*
X010516Y014566D01*
X010516Y014810D01*
X010518Y014830D01*
X010523Y014849D01*
X010532Y014867D01*
X010544Y014883D01*
X010559Y014896D01*
X010576Y014907D01*
X010594Y014914D01*
X010614Y014918D01*
X010634Y014918D01*
X010654Y014914D01*
X010672Y014907D01*
X010689Y014896D01*
X010704Y014883D01*
X010716Y014867D01*
X010725Y014849D01*
X010730Y014830D01*
X010732Y014810D01*
D13*
X010624Y014808D02*
X010624Y014808D01*
X010624Y014572D01*
X010624Y014572D01*
X010624Y014808D01*
X010624Y016304D02*
X010624Y016304D01*
X010624Y016068D01*
X010624Y016068D01*
X010624Y016304D01*
X014026Y016304D02*
X014026Y016304D01*
X014026Y016068D01*
X014026Y016068D01*
X014026Y016304D01*
X014026Y014808D02*
X014026Y014808D01*
X014026Y014572D01*
X014026Y014572D01*
X014026Y014808D01*
D14*
X013224Y007203D03*
D15*
X013265Y005216D03*
D16*
X020115Y007786D03*
X021165Y007786D03*
X019290Y010111D03*
X012325Y012574D03*
X027965Y007886D03*
X027965Y005636D03*
D17*
X027965Y005761D03*
X027965Y005886D03*
D18*
X015496Y007842D03*
D19*
X015496Y008476D03*
X007771Y004724D03*
X007771Y003724D03*
X024628Y011076D03*
X025628Y011076D03*
X026628Y011076D03*
X026628Y012076D03*
X025628Y012076D03*
D20*
X007827Y013676D03*
D21*
X011325Y015224D03*
X013325Y015224D03*
D22*
X013365Y015214D02*
X014360Y015214D01*
X014360Y015136D02*
X014258Y015136D01*
X014250Y015144D02*
X014104Y015204D01*
X013947Y015204D01*
X013863Y015170D01*
X013865Y015182D01*
X013865Y015184D01*
X013365Y015184D01*
X013365Y014684D01*
X013367Y014684D01*
X013451Y014698D01*
X013532Y014724D01*
X013608Y014762D01*
X013629Y014778D01*
X013629Y014493D01*
X013689Y014347D01*
X013801Y014235D01*
X013947Y014175D01*
X014104Y014175D01*
X014250Y014235D01*
X014362Y014347D01*
X014422Y014493D01*
X014422Y014887D01*
X014362Y015032D01*
X014250Y015144D01*
X014337Y015057D02*
X014361Y015057D01*
X014360Y015062D02*
X014400Y014964D01*
X014475Y014890D01*
X014480Y014887D01*
X014480Y014824D01*
X014600Y014704D01*
X015940Y014704D01*
X016060Y014824D01*
X016060Y015162D01*
X016050Y015172D01*
X016050Y017012D01*
X016052Y017110D01*
X016052Y017110D01*
X015978Y017299D01*
X015978Y017299D01*
X015837Y017446D01*
X015717Y017498D01*
X015709Y017523D01*
X015692Y017542D01*
X015692Y018364D01*
X015703Y018377D01*
X031861Y018377D01*
X031863Y018377D01*
X031914Y018377D01*
X031916Y018377D01*
X031963Y018373D01*
X032049Y018339D01*
X032116Y018273D01*
X032153Y018187D01*
X032158Y018141D01*
X032158Y001430D01*
X032153Y001383D01*
X032116Y001297D01*
X032049Y001231D01*
X031962Y001196D01*
X031916Y001192D01*
X031914Y001192D01*
X031863Y001193D01*
X031861Y001192D01*
X031377Y001192D01*
X031392Y001228D01*
X031392Y001414D01*
X031321Y001586D01*
X031190Y001717D01*
X031018Y001788D01*
X030832Y001788D01*
X030661Y001717D01*
X030529Y001586D01*
X030458Y001414D01*
X030458Y001228D01*
X030473Y001192D01*
X001427Y001192D01*
X001382Y001197D01*
X001297Y001232D01*
X001232Y001297D01*
X001197Y001382D01*
X001192Y001427D01*
X001192Y016831D01*
X001228Y016816D01*
X001414Y016816D01*
X001586Y016887D01*
X001717Y017019D01*
X001788Y017190D01*
X001788Y017376D01*
X001717Y017548D01*
X001586Y017679D01*
X001414Y017750D01*
X001228Y017750D01*
X001192Y017735D01*
X001192Y018144D01*
X001197Y018189D01*
X001232Y018274D01*
X001297Y018338D01*
X001381Y018373D01*
X001427Y018377D01*
X001480Y018377D01*
X008942Y018377D01*
X008942Y017529D01*
X004622Y017529D01*
X004433Y017451D01*
X004288Y017306D01*
X004210Y017117D01*
X004210Y010373D01*
X004288Y010184D01*
X004433Y010039D01*
X004433Y010039D01*
X004622Y009961D01*
X006915Y009961D01*
X007960Y008916D01*
X007960Y005160D01*
X007866Y005199D01*
X007677Y005199D01*
X007502Y005127D01*
X007368Y004993D01*
X007296Y004818D01*
X007296Y004629D01*
X007368Y004454D01*
X007502Y004321D01*
X007677Y004248D01*
X007769Y004248D01*
X007782Y004235D01*
X007746Y004199D01*
X007677Y004199D01*
X007502Y004127D01*
X007368Y003993D01*
X007296Y003818D01*
X007296Y003629D01*
X007368Y003454D01*
X007502Y003321D01*
X007677Y003248D01*
X007866Y003248D01*
X007960Y003287D01*
X007960Y002273D01*
X008038Y002084D01*
X008183Y001939D01*
X008183Y001939D01*
X008372Y001861D01*
X029877Y001861D01*
X030067Y001939D01*
X030211Y002084D01*
X030290Y002273D01*
X030290Y005841D01*
X030292Y005841D01*
X030603Y005944D01*
X030867Y006137D01*
X031058Y006403D01*
X031158Y006715D01*
X031157Y006878D01*
X031157Y009722D01*
X031037Y010093D01*
X030808Y010408D01*
X030808Y010408D01*
X030808Y010408D01*
X030493Y010637D01*
X030493Y010637D01*
X030122Y010757D01*
X027627Y010757D01*
X027623Y010758D01*
X027616Y010761D01*
X027611Y010766D01*
X027608Y010773D01*
X027607Y010777D01*
X027607Y011642D01*
X027481Y011947D01*
X027248Y012180D01*
X027068Y012254D01*
X027030Y012345D01*
X026897Y012479D01*
X026722Y012551D01*
X026533Y012551D01*
X026358Y012479D01*
X026225Y012345D01*
X026152Y012171D01*
X026152Y011982D01*
X026225Y011807D01*
X026226Y011806D01*
X025969Y011806D01*
X026000Y011848D01*
X026031Y011909D01*
X026052Y011974D01*
X026062Y012036D01*
X025668Y012036D01*
X025668Y012116D01*
X026062Y012116D01*
X026052Y012178D01*
X026031Y012243D01*
X026000Y012304D01*
X025960Y012360D01*
X025911Y012408D01*
X025856Y012448D01*
X025795Y012479D01*
X025729Y012501D01*
X025668Y012510D01*
X025668Y012116D01*
X025588Y012116D01*
X025588Y012510D01*
X025526Y012501D01*
X025460Y012479D01*
X025399Y012448D01*
X025344Y012408D01*
X025296Y012360D01*
X025255Y012304D01*
X025224Y012243D01*
X025203Y012178D01*
X025193Y012116D01*
X025588Y012116D01*
X025588Y012036D01*
X025193Y012036D01*
X025203Y011974D01*
X025224Y011909D01*
X025255Y011848D01*
X025288Y011803D01*
X025010Y011803D01*
X025043Y011836D01*
X025108Y012076D01*
X025043Y012316D01*
X025043Y012316D01*
X024868Y012492D01*
X024628Y012556D01*
X024628Y012556D01*
X024388Y012492D01*
X024388Y012492D01*
X024212Y012316D01*
X024148Y012076D01*
X024212Y011836D01*
X024388Y011660D01*
X024619Y011598D01*
X024572Y011551D01*
X024533Y011551D01*
X024358Y011479D01*
X024225Y011345D01*
X024152Y011171D01*
X024152Y010982D01*
X024225Y010807D01*
X024358Y010673D01*
X024533Y010601D01*
X024722Y010601D01*
X024897Y010673D01*
X025030Y010807D01*
X025103Y010982D01*
X025103Y011171D01*
X025039Y011324D01*
X025073Y011338D01*
X025125Y011343D01*
X025224Y011343D01*
X025152Y011171D01*
X025152Y010982D01*
X025225Y010807D01*
X025358Y010673D01*
X025533Y010601D01*
X025710Y010601D01*
X025797Y010517D01*
X026165Y010357D01*
X026277Y010351D01*
X026283Y010346D01*
X026371Y010346D01*
X026460Y010341D01*
X026466Y010346D01*
X026592Y010346D01*
X026614Y010329D01*
X026619Y010322D01*
X026683Y010167D01*
X026683Y010167D01*
X026933Y009893D01*
X027261Y009722D01*
X027367Y009708D01*
X027380Y009696D01*
X027460Y009696D01*
X027539Y009685D01*
X027553Y009696D01*
X029875Y009696D01*
X029918Y009691D01*
X029997Y009659D01*
X030058Y009598D01*
X030077Y009552D01*
X030067Y009562D01*
X030067Y009562D01*
X030067Y009562D01*
X029877Y009641D01*
X022185Y009641D01*
X030015Y009641D01*
X030066Y009562D02*
X030072Y009562D01*
X031107Y009876D02*
X032158Y009876D01*
X032158Y009798D02*
X031133Y009798D01*
X031157Y009719D02*
X032158Y009719D01*
X032158Y009641D02*
X031157Y009641D01*
X031157Y009562D02*
X032158Y009562D01*
X032158Y009484D02*
X031157Y009484D01*
X031157Y009405D02*
X032158Y009405D01*
X032158Y009327D02*
X031157Y009327D01*
X031157Y009248D02*
X032158Y009248D01*
X032158Y009170D02*
X031157Y009170D01*
X031157Y009091D02*
X032158Y009091D01*
X032158Y009013D02*
X031157Y009013D01*
X031157Y008934D02*
X032158Y008934D01*
X032158Y008856D02*
X031157Y008856D01*
X031157Y008777D02*
X032158Y008777D01*
X032158Y008699D02*
X031157Y008699D01*
X031157Y008620D02*
X032158Y008620D01*
X032158Y008542D02*
X031157Y008542D01*
X031157Y008463D02*
X032158Y008463D01*
X032158Y008385D02*
X031157Y008385D01*
X031157Y008306D02*
X032158Y008306D01*
X032158Y008228D02*
X031157Y008228D01*
X031157Y008149D02*
X032158Y008149D01*
X032158Y008071D02*
X031157Y008071D01*
X031157Y007992D02*
X032158Y007992D01*
X032158Y007914D02*
X031157Y007914D01*
X031157Y007835D02*
X032158Y007835D01*
X032158Y007757D02*
X031157Y007757D01*
X031157Y007678D02*
X032158Y007678D01*
X032158Y007600D02*
X031157Y007600D01*
X031157Y007521D02*
X032158Y007521D01*
X032158Y007443D02*
X031157Y007443D01*
X031157Y007364D02*
X032158Y007364D01*
X032158Y007286D02*
X031157Y007286D01*
X031157Y007207D02*
X032158Y007207D01*
X032158Y007129D02*
X031157Y007129D01*
X031157Y007050D02*
X032158Y007050D01*
X032158Y006972D02*
X031157Y006972D01*
X031157Y006893D02*
X032158Y006893D01*
X032158Y006815D02*
X031158Y006815D01*
X031158Y006736D02*
X032158Y006736D01*
X032158Y006658D02*
X031140Y006658D01*
X031158Y006715D02*
X031158Y006715D01*
X031115Y006579D02*
X032158Y006579D01*
X032158Y006501D02*
X031090Y006501D01*
X031064Y006422D02*
X032158Y006422D01*
X032158Y006344D02*
X031016Y006344D01*
X031058Y006403D02*
X031058Y006403D01*
X030959Y006265D02*
X032158Y006265D01*
X032158Y006187D02*
X030903Y006187D01*
X030867Y006137D02*
X030867Y006137D01*
X030827Y006108D02*
X032158Y006108D01*
X032158Y006030D02*
X030720Y006030D01*
X030613Y005951D02*
X032158Y005951D01*
X032158Y005873D02*
X030388Y005873D01*
X030290Y005794D02*
X032158Y005794D01*
X032158Y005716D02*
X030290Y005716D01*
X030290Y005637D02*
X032158Y005637D01*
X032158Y005559D02*
X030290Y005559D01*
X030290Y005480D02*
X032158Y005480D01*
X032158Y005402D02*
X030290Y005402D01*
X030290Y005323D02*
X032158Y005323D01*
X032158Y005245D02*
X030290Y005245D01*
X030290Y005166D02*
X032158Y005166D01*
X032158Y005088D02*
X030290Y005088D01*
X030290Y005009D02*
X032158Y005009D01*
X032158Y004931D02*
X030290Y004931D01*
X030290Y004852D02*
X032158Y004852D01*
X032158Y004774D02*
X030290Y004774D01*
X030290Y004695D02*
X032158Y004695D01*
X032158Y004617D02*
X030290Y004617D01*
X030290Y004538D02*
X032158Y004538D01*
X032158Y004460D02*
X030290Y004460D01*
X030290Y004381D02*
X032158Y004381D01*
X032158Y004303D02*
X030290Y004303D01*
X030290Y004224D02*
X032158Y004224D01*
X032158Y004146D02*
X030290Y004146D01*
X030290Y004067D02*
X032158Y004067D01*
X032158Y003989D02*
X030290Y003989D01*
X030290Y003910D02*
X032158Y003910D01*
X032158Y003832D02*
X030290Y003832D01*
X030290Y003753D02*
X031057Y003753D01*
X031144Y003789D02*
X030839Y003663D01*
X030605Y003429D01*
X030479Y003124D01*
X030479Y002794D01*
X030605Y002488D01*
X030839Y002255D01*
X031144Y002128D01*
X031474Y002128D01*
X031780Y002255D01*
X032013Y002488D01*
X032140Y002794D01*
X032140Y003124D01*
X032013Y003429D01*
X031780Y003663D01*
X031474Y003789D01*
X031144Y003789D01*
X030868Y003675D02*
X030290Y003675D01*
X030290Y003596D02*
X030772Y003596D01*
X030694Y003518D02*
X030290Y003518D01*
X030290Y003439D02*
X030615Y003439D01*
X030577Y003361D02*
X030290Y003361D01*
X030290Y003282D02*
X030544Y003282D01*
X030512Y003204D02*
X030290Y003204D01*
X030290Y003125D02*
X030479Y003125D01*
X030479Y003047D02*
X030290Y003047D01*
X030290Y002968D02*
X030479Y002968D01*
X030479Y002890D02*
X030290Y002890D01*
X030290Y002811D02*
X030479Y002811D01*
X030504Y002733D02*
X030290Y002733D01*
X030290Y002654D02*
X030536Y002654D01*
X030569Y002576D02*
X030290Y002576D01*
X030290Y002497D02*
X030601Y002497D01*
X030675Y002419D02*
X030290Y002419D01*
X030290Y002340D02*
X030753Y002340D01*
X030832Y002262D02*
X030285Y002262D01*
X030253Y002183D02*
X031011Y002183D01*
X031607Y002183D02*
X032158Y002183D01*
X032158Y002105D02*
X030220Y002105D01*
X030211Y002084D02*
X030211Y002084D01*
X030154Y002026D02*
X032158Y002026D01*
X032158Y001948D02*
X030075Y001948D01*
X030067Y001939D02*
X030067Y001939D01*
X029898Y001869D02*
X032158Y001869D01*
X032158Y001791D02*
X001192Y001791D01*
X001192Y001869D02*
X008351Y001869D01*
X008174Y001948D02*
X001192Y001948D01*
X001192Y002026D02*
X008096Y002026D01*
X008038Y002084D02*
X008038Y002084D01*
X008030Y002105D02*
X001192Y002105D01*
X001192Y002183D02*
X001732Y002183D01*
X001865Y002128D02*
X002196Y002128D01*
X002501Y002255D01*
X002735Y002488D01*
X002861Y002794D01*
X002861Y003124D01*
X002735Y003429D01*
X002501Y003663D01*
X002196Y003789D01*
X001865Y003789D01*
X001560Y003663D01*
X001326Y003429D01*
X001200Y003124D01*
X001200Y002794D01*
X001326Y002488D01*
X001560Y002255D01*
X001865Y002128D01*
X001553Y002262D02*
X001192Y002262D01*
X001192Y002340D02*
X001474Y002340D01*
X001396Y002419D02*
X001192Y002419D01*
X001192Y002497D02*
X001323Y002497D01*
X001290Y002576D02*
X001192Y002576D01*
X001192Y002654D02*
X001258Y002654D01*
X001225Y002733D02*
X001192Y002733D01*
X001192Y002811D02*
X001200Y002811D01*
X001192Y002890D02*
X001200Y002890D01*
X001192Y002968D02*
X001200Y002968D01*
X001192Y003047D02*
X001200Y003047D01*
X001192Y003125D02*
X001201Y003125D01*
X001192Y003204D02*
X001233Y003204D01*
X001266Y003282D02*
X001192Y003282D01*
X001192Y003361D02*
X001298Y003361D01*
X001336Y003439D02*
X001192Y003439D01*
X001192Y003518D02*
X001415Y003518D01*
X001493Y003596D02*
X001192Y003596D01*
X001192Y003675D02*
X001589Y003675D01*
X001778Y003753D02*
X001192Y003753D01*
X001192Y003832D02*
X007302Y003832D01*
X007296Y003753D02*
X002283Y003753D01*
X002472Y003675D02*
X007296Y003675D01*
X007310Y003596D02*
X002568Y003596D01*
X002646Y003518D02*
X007342Y003518D01*
X007383Y003439D02*
X002725Y003439D01*
X002763Y003361D02*
X007462Y003361D01*
X007595Y003282D02*
X002796Y003282D01*
X002828Y003204D02*
X007960Y003204D01*
X007948Y003282D02*
X007960Y003282D01*
X007960Y003125D02*
X002861Y003125D01*
X002861Y003047D02*
X007960Y003047D01*
X007960Y002968D02*
X002861Y002968D01*
X002861Y002890D02*
X007960Y002890D01*
X007960Y002811D02*
X002861Y002811D01*
X002836Y002733D02*
X007960Y002733D01*
X007960Y002654D02*
X002803Y002654D01*
X002771Y002576D02*
X007960Y002576D01*
X007960Y002497D02*
X002738Y002497D01*
X002665Y002419D02*
X007960Y002419D01*
X007960Y002340D02*
X002587Y002340D01*
X002508Y002262D02*
X007964Y002262D01*
X007997Y002183D02*
X002329Y002183D01*
X001192Y001712D02*
X030656Y001712D01*
X030577Y001634D02*
X001192Y001634D01*
X001192Y001555D02*
X030517Y001555D01*
X030484Y001477D02*
X001192Y001477D01*
X001195Y001398D02*
X030458Y001398D01*
X030458Y001320D02*
X001222Y001320D01*
X001287Y001241D02*
X030458Y001241D01*
X031194Y001712D02*
X032158Y001712D01*
X032158Y001634D02*
X031273Y001634D01*
X031333Y001555D02*
X032158Y001555D01*
X032158Y001477D02*
X031366Y001477D01*
X031392Y001398D02*
X032155Y001398D01*
X032126Y001320D02*
X031392Y001320D01*
X031392Y001241D02*
X032060Y001241D01*
X032158Y002262D02*
X031787Y002262D01*
X031865Y002340D02*
X032158Y002340D01*
X032158Y002419D02*
X031944Y002419D01*
X032017Y002497D02*
X032158Y002497D01*
X032158Y002576D02*
X032050Y002576D01*
X032082Y002654D02*
X032158Y002654D01*
X032158Y002733D02*
X032115Y002733D01*
X032140Y002811D02*
X032158Y002811D01*
X032158Y002890D02*
X032140Y002890D01*
X032140Y002968D02*
X032158Y002968D01*
X032158Y003047D02*
X032140Y003047D01*
X032139Y003125D02*
X032158Y003125D01*
X032158Y003204D02*
X032107Y003204D01*
X032074Y003282D02*
X032158Y003282D01*
X032158Y003361D02*
X032042Y003361D01*
X032003Y003439D02*
X032158Y003439D01*
X032158Y003518D02*
X031925Y003518D01*
X031846Y003596D02*
X032158Y003596D01*
X032158Y003675D02*
X031751Y003675D01*
X031562Y003753D02*
X032158Y003753D01*
X030603Y005944D02*
X030603Y005944D01*
X028545Y006671D02*
X028477Y006671D01*
X028477Y006787D01*
X028432Y006897D01*
X028347Y006982D01*
X028237Y007027D01*
X028118Y007027D01*
X028007Y006982D01*
X027923Y006897D01*
X027877Y006787D01*
X027877Y006668D01*
X027923Y006557D01*
X028007Y006473D01*
X028011Y006472D01*
X028026Y006435D01*
X028008Y006438D01*
X028005Y006438D01*
X028005Y005926D01*
X027925Y005926D01*
X027925Y006438D01*
X027921Y006438D01*
X027835Y006425D01*
X027753Y006398D01*
X027675Y006358D01*
X027605Y006307D01*
X027543Y006246D01*
X027492Y006175D01*
X027453Y006098D01*
X027426Y006015D01*
X027412Y005929D01*
X027412Y005926D01*
X027437Y005926D01*
X027426Y005890D01*
X027419Y005846D01*
X027412Y005846D01*
X027412Y005842D01*
X027415Y005823D01*
X027412Y005804D01*
X027412Y005801D01*
X027419Y005801D01*
X027421Y005789D01*
X027414Y005768D01*
X027400Y005680D01*
X027400Y005676D01*
X027419Y005676D01*
X027426Y005631D01*
X027437Y005596D01*
X027400Y005596D01*
X027400Y005591D01*
X027414Y005503D01*
X027441Y005419D01*
X027482Y005340D01*
X027534Y005268D01*
X027597Y005205D01*
X027669Y005152D01*
X027748Y005112D01*
X027832Y005085D01*
X027920Y005071D01*
X027925Y005071D01*
X027925Y005596D01*
X028005Y005596D01*
X028005Y005071D01*
X028009Y005071D01*
X028097Y005085D01*
X028182Y005112D01*
X028261Y005152D01*
X028333Y005205D01*
X028347Y005219D01*
X028347Y004998D01*
X027632Y004282D01*
X024257Y004282D01*
X024257Y004883D01*
X024282Y004907D01*
X024327Y005018D01*
X024327Y005137D01*
X024282Y005247D01*
X024197Y005332D01*
X024087Y005377D01*
X023968Y005377D01*
X023857Y005332D01*
X023773Y005247D01*
X023727Y005137D01*
X023727Y005018D01*
X023773Y004907D01*
X023797Y004883D01*
X023797Y004155D01*
X023840Y004082D01*
X022908Y004082D01*
X022902Y004097D01*
X022817Y004182D01*
X022707Y004227D01*
X022588Y004227D01*
X022477Y004182D01*
X022393Y004097D01*
X022347Y003987D01*
X022347Y003882D01*
X020857Y003882D01*
X020857Y004013D01*
X020807Y004134D01*
X020714Y004227D01*
X020593Y004277D01*
X020112Y004277D01*
X019991Y004227D01*
X016802Y004227D01*
X016540Y004489D01*
X016540Y005443D01*
X016566Y005454D01*
X016651Y005539D01*
X016696Y005649D01*
X016696Y005768D01*
X016651Y005879D01*
X016566Y005963D01*
X016540Y005974D01*
X016540Y008012D01*
X016555Y008171D01*
X016500Y008515D01*
X016360Y008834D01*
X016145Y009108D01*
X016037Y009191D01*
X016023Y009209D01*
X015990Y009227D01*
X015960Y009250D01*
X015938Y009256D01*
X015833Y009315D01*
X015522Y009370D01*
X015522Y009370D01*
X015210Y009321D01*
X014931Y009173D01*
X014931Y009173D01*
X014747Y008976D01*
X014689Y008976D01*
X014684Y008977D01*
X012677Y008977D01*
X012677Y009171D01*
X012679Y009174D01*
X012677Y009231D01*
X012677Y009287D01*
X012676Y009290D01*
X012674Y009371D01*
X012674Y009371D01*
X012564Y009623D01*
X012564Y009623D01*
X012365Y009814D01*
X012109Y009914D01*
X012109Y009914D01*
X011974Y009911D01*
X009752Y009911D01*
X006927Y012751D01*
X006927Y014465D01*
X006947Y014514D01*
X006947Y014641D01*
X006927Y014689D01*
X006927Y014765D01*
X006947Y014814D01*
X006947Y014941D01*
X006899Y015059D01*
X006809Y015149D01*
X006691Y015197D01*
X006564Y015197D01*
X006446Y015149D01*
X006356Y015059D01*
X006307Y014941D01*
X006307Y014814D01*
X006327Y014765D01*
X006327Y014689D01*
X006307Y014641D01*
X006307Y014514D01*
X006327Y014465D01*
X006327Y013965D01*
X006176Y014133D01*
X006176Y014133D01*
X006176Y014133D01*
X006082Y014190D01*
X006059Y014210D01*
X006037Y014218D01*
X006017Y014229D01*
X005987Y014234D01*
X005751Y014313D01*
X005744Y014318D01*
X005740Y014319D01*
X005740Y014732D01*
X005744Y014733D01*
X005751Y014738D01*
X005962Y014809D01*
X005966Y014809D01*
X006012Y014825D01*
X006059Y014841D01*
X006061Y014843D01*
X006123Y014866D01*
X006285Y015028D01*
X006322Y015130D01*
X006340Y015173D01*
X006340Y015179D01*
X006342Y015185D01*
X006340Y015231D01*
X006340Y015361D01*
X007560Y015361D01*
X007560Y014186D01*
X007502Y014162D01*
X007341Y014001D01*
X007254Y013790D01*
X007254Y013562D01*
X007341Y013351D01*
X007502Y013189D01*
X007560Y013166D01*
X007560Y012636D01*
X007560Y012584D01*
X007560Y012583D01*
X007580Y012534D01*
X007600Y012486D01*
X007600Y012486D01*
X007600Y012486D01*
X007637Y012448D01*
X009740Y010336D01*
X009740Y010336D01*
X009777Y010299D01*
X009814Y010261D01*
X009814Y010261D01*
X009815Y010261D01*
X009863Y010241D01*
X009911Y010221D01*
X009912Y010221D01*
X009912Y010221D01*
X009964Y010221D01*
X010017Y010221D01*
X011078Y010221D01*
X011175Y010261D01*
X011249Y010336D01*
X011290Y010433D01*
X011290Y012577D01*
X011249Y012674D01*
X011175Y012749D01*
X011078Y012789D01*
X010982Y012789D01*
X010882Y012799D01*
X010690Y012861D01*
X010522Y012974D01*
X010391Y013128D01*
X010308Y013313D01*
X010290Y013399D01*
X010290Y014345D01*
X010399Y014235D01*
X010545Y014175D01*
X010703Y014175D01*
X010849Y014235D01*
X010960Y014347D01*
X011021Y014493D01*
X011021Y014778D01*
X011042Y014762D01*
X011118Y014724D01*
X011198Y014698D01*
X011282Y014684D01*
X011285Y014684D01*
X011285Y015184D01*
X011365Y015184D01*
X011365Y014684D01*
X011367Y014684D01*
X011451Y014698D01*
X011532Y014724D01*
X011608Y014762D01*
X011677Y014812D01*
X011737Y014872D01*
X011787Y014941D01*
X011825Y015017D01*
X011852Y015098D01*
X011865Y015182D01*
X011865Y015184D01*
X011365Y015184D01*
X011365Y015264D01*
X011865Y015264D01*
X011865Y015267D01*
X011852Y015351D01*
X011825Y015432D01*
X011787Y015507D01*
X011737Y015576D01*
X011677Y015636D01*
X011608Y015686D01*
X011532Y015725D01*
X011451Y015751D01*
X011367Y015764D01*
X011365Y015764D01*
X011285Y015764D01*
X011282Y015764D01*
X011198Y015751D01*
X011118Y015725D01*
X011042Y015686D01*
X010973Y015636D01*
X010913Y015576D01*
X010863Y015507D01*
X010824Y015432D01*
X010798Y015351D01*
X010785Y015267D01*
X010785Y015264D01*
X011285Y015264D01*
X011285Y015184D01*
X010785Y015184D01*
X010785Y015182D01*
X010787Y015170D01*
X010703Y015204D01*
X010545Y015204D01*
X010399Y015144D01*
X010290Y015034D01*
X010290Y015841D01*
X010399Y015731D01*
X010545Y015671D01*
X010703Y015671D01*
X010849Y015731D01*
X010960Y015843D01*
X011021Y015989D01*
X011021Y016209D01*
X013629Y016209D01*
X013629Y015989D01*
X013689Y015843D01*
X013801Y015731D01*
X013947Y015671D01*
X014104Y015671D01*
X014250Y015731D01*
X014360Y015841D01*
X014360Y015062D01*
X014384Y014979D02*
X014394Y014979D01*
X014416Y014900D02*
X014464Y014900D01*
X014482Y014822D02*
X014422Y014822D01*
X014422Y014743D02*
X014561Y014743D01*
X014600Y014674D02*
X014480Y014554D01*
X014480Y014491D01*
X014475Y014489D01*
X014400Y014414D01*
X014360Y014317D01*
X014360Y013395D01*
X014344Y013309D01*
X014269Y013130D01*
X014148Y012978D01*
X013989Y012866D01*
X013806Y012801D01*
X013713Y012789D01*
X012891Y012789D01*
X012838Y012917D01*
X012816Y012939D01*
X012827Y012968D01*
X012827Y013087D01*
X012782Y013197D01*
X012697Y013282D01*
X012665Y013295D01*
X012665Y015695D01*
X012613Y015820D01*
X012517Y015916D01*
X012392Y015967D01*
X012257Y015967D01*
X012132Y015916D01*
X012037Y015820D01*
X011985Y015695D01*
X011985Y013293D01*
X011957Y013282D01*
X011873Y013197D01*
X011827Y013087D01*
X011827Y012968D01*
X011832Y012957D01*
X011626Y012957D01*
X011449Y012856D01*
X011449Y012856D01*
X011449Y012856D01*
X011347Y012679D01*
X011347Y010432D01*
X011420Y010256D01*
X011420Y010256D01*
X011556Y010120D01*
X011732Y010047D01*
X016797Y010047D01*
X016797Y009800D01*
X016775Y009745D01*
X016775Y005880D01*
X016851Y005695D01*
X016993Y005554D01*
X017177Y005477D01*
X019049Y005477D01*
X019047Y005473D01*
X019047Y005042D01*
X019098Y004920D01*
X019190Y004828D01*
X019312Y004777D01*
X019443Y004777D01*
X019564Y004828D01*
X019657Y004920D01*
X019707Y005042D01*
X019707Y005473D01*
X019706Y005477D01*
X020246Y005477D01*
X021185Y004539D01*
X021269Y004455D01*
X021379Y004409D01*
X022698Y004409D01*
X022770Y004379D01*
X022901Y004379D01*
X023023Y004429D01*
X023115Y004522D01*
X023166Y004643D01*
X023166Y005083D01*
X023115Y005204D01*
X023023Y005297D01*
X022901Y005347D01*
X022770Y005347D01*
X022649Y005297D01*
X022556Y005204D01*
X022506Y005083D01*
X022506Y005009D01*
X021563Y005009D01*
X020541Y006032D01*
X020430Y006077D01*
X017375Y006077D01*
X017375Y009626D01*
X018427Y009626D01*
X018496Y009556D01*
X018614Y009507D01*
X018991Y009507D01*
X019078Y009543D01*
X019169Y009506D01*
X019410Y009506D01*
X019633Y009598D01*
X019803Y009768D01*
X019810Y009785D01*
X019810Y008314D01*
X019772Y008299D01*
X019602Y008128D01*
X019510Y007906D01*
X019510Y007665D01*
X019602Y007443D01*
X017375Y007443D01*
X017375Y007521D02*
X019569Y007521D01*
X019602Y007443D02*
X019772Y007273D01*
X019817Y007254D01*
X019818Y007214D01*
X019818Y007214D01*
X019939Y006940D01*
X020155Y006733D01*
X020434Y006624D01*
X020581Y006627D01*
X021011Y006627D01*
X021697Y006002D01*
X021697Y005742D01*
X021748Y005620D01*
X021840Y005528D01*
X021962Y005477D01*
X022093Y005477D01*
X022214Y005528D01*
X022307Y005620D01*
X022357Y005742D01*
X022357Y006173D01*
X022307Y006294D01*
X022214Y006387D01*
X022125Y006424D01*
X021463Y007027D01*
X022253Y007027D01*
X022368Y006913D01*
X022398Y006840D01*
X022490Y006748D01*
X022612Y006697D01*
X023043Y006697D01*
X023164Y006748D01*
X023257Y006840D01*
X023307Y006962D01*
X023307Y007093D01*
X023257Y007214D01*
X023164Y007307D01*
X023043Y007357D01*
X022772Y007357D01*
X022758Y007371D01*
X027096Y007371D01*
X027007Y007282D01*
X026923Y007197D01*
X026877Y007087D01*
X026877Y006915D01*
X026847Y006843D01*
X026847Y006412D01*
X026898Y006290D01*
X026990Y006198D01*
X027112Y006147D01*
X027243Y006147D01*
X027364Y006198D01*
X027457Y006290D01*
X027507Y006412D01*
X027507Y006843D01*
X027481Y006907D01*
X027716Y007141D01*
X027762Y007122D01*
X028143Y007122D01*
X028264Y007173D01*
X028308Y007217D01*
X028545Y006980D01*
X028545Y006671D01*
X028545Y006736D02*
X028477Y006736D01*
X028466Y006815D02*
X028545Y006815D01*
X028545Y006893D02*
X028433Y006893D01*
X028357Y006972D02*
X028545Y006972D01*
X028475Y007050D02*
X027625Y007050D01*
X027546Y006972D02*
X027998Y006972D01*
X027921Y006893D02*
X027487Y006893D01*
X027507Y006815D02*
X027889Y006815D01*
X027877Y006736D02*
X027507Y006736D01*
X027507Y006658D02*
X027881Y006658D01*
X027914Y006579D02*
X027507Y006579D01*
X027507Y006501D02*
X027980Y006501D01*
X028005Y006422D02*
X027925Y006422D01*
X027925Y006344D02*
X028005Y006344D01*
X028005Y006265D02*
X027925Y006265D01*
X027925Y006187D02*
X028005Y006187D01*
X028005Y006108D02*
X027925Y006108D01*
X027925Y006030D02*
X028005Y006030D01*
X028005Y005951D02*
X027925Y005951D01*
X027925Y005846D02*
X028005Y005846D01*
X028005Y005801D01*
X027925Y005801D01*
X027925Y005846D01*
X027925Y005721D02*
X028005Y005721D01*
X028005Y005676D01*
X027925Y005676D01*
X027925Y005721D01*
X027925Y005716D02*
X028005Y005716D01*
X028005Y005559D02*
X027925Y005559D01*
X027925Y005480D02*
X028005Y005480D01*
X028005Y005402D02*
X027925Y005402D01*
X027925Y005323D02*
X028005Y005323D01*
X028005Y005245D02*
X027925Y005245D01*
X027925Y005166D02*
X028005Y005166D01*
X028005Y005088D02*
X027925Y005088D01*
X027822Y005088D02*
X024327Y005088D01*
X024324Y005009D02*
X028347Y005009D01*
X028347Y005088D02*
X028107Y005088D01*
X028280Y005166D02*
X028347Y005166D01*
X028281Y004931D02*
X024291Y004931D01*
X024257Y004852D02*
X028202Y004852D01*
X028124Y004774D02*
X024257Y004774D01*
X024257Y004695D02*
X028045Y004695D01*
X027967Y004617D02*
X024257Y004617D01*
X024257Y004538D02*
X027888Y004538D01*
X027810Y004460D02*
X024257Y004460D01*
X024257Y004381D02*
X027731Y004381D01*
X027653Y004303D02*
X024257Y004303D01*
X023797Y004303D02*
X016726Y004303D01*
X016648Y004381D02*
X022765Y004381D01*
X022907Y004381D02*
X023797Y004381D01*
X023797Y004460D02*
X023053Y004460D01*
X023122Y004538D02*
X023797Y004538D01*
X023797Y004617D02*
X023155Y004617D01*
X023166Y004695D02*
X023797Y004695D01*
X023797Y004774D02*
X023166Y004774D01*
X023166Y004852D02*
X023797Y004852D01*
X023763Y004931D02*
X023166Y004931D01*
X023166Y005009D02*
X023731Y005009D01*
X023727Y005088D02*
X023164Y005088D01*
X023131Y005166D02*
X023740Y005166D01*
X023772Y005245D02*
X023075Y005245D01*
X022959Y005323D02*
X023849Y005323D01*
X024206Y005323D02*
X027493Y005323D01*
X027450Y005402D02*
X021170Y005402D01*
X021092Y005480D02*
X021954Y005480D01*
X022100Y005480D02*
X027421Y005480D01*
X027405Y005559D02*
X022246Y005559D01*
X022314Y005637D02*
X027425Y005637D01*
X027405Y005716D02*
X022347Y005716D01*
X022357Y005794D02*
X027420Y005794D01*
X027423Y005873D02*
X022357Y005873D01*
X022357Y005951D02*
X027416Y005951D01*
X027431Y006030D02*
X022357Y006030D01*
X022357Y006108D02*
X027458Y006108D01*
X027501Y006187D02*
X027338Y006187D01*
X027432Y006265D02*
X027563Y006265D01*
X027479Y006344D02*
X027656Y006344D01*
X027507Y006422D02*
X027829Y006422D01*
X027016Y006187D02*
X022352Y006187D01*
X022319Y006265D02*
X026923Y006265D01*
X026876Y006344D02*
X022258Y006344D01*
X022129Y006422D02*
X026847Y006422D01*
X026847Y006501D02*
X022041Y006501D01*
X021955Y006579D02*
X026847Y006579D01*
X026847Y006658D02*
X021869Y006658D01*
X021782Y006736D02*
X022518Y006736D01*
X022423Y006815D02*
X021696Y006815D01*
X021610Y006893D02*
X022376Y006893D01*
X022309Y006972D02*
X021524Y006972D01*
X021150Y006501D02*
X017375Y006501D01*
X017375Y006579D02*
X021064Y006579D01*
X021236Y006422D02*
X017375Y006422D01*
X017375Y006344D02*
X021322Y006344D01*
X021409Y006265D02*
X017375Y006265D01*
X017375Y006187D02*
X021495Y006187D01*
X021581Y006108D02*
X017375Y006108D01*
X016775Y006108D02*
X016540Y006108D01*
X016540Y006030D02*
X016775Y006030D01*
X016775Y005951D02*
X016578Y005951D01*
X016653Y005873D02*
X016778Y005873D01*
X016810Y005794D02*
X016685Y005794D01*
X016696Y005716D02*
X016843Y005716D01*
X016851Y005695D02*
X016851Y005695D01*
X016909Y005637D02*
X016691Y005637D01*
X016659Y005559D02*
X016988Y005559D01*
X016993Y005554D02*
X016993Y005554D01*
X017170Y005480D02*
X016592Y005480D01*
X016540Y005402D02*
X019047Y005402D01*
X019047Y005323D02*
X016540Y005323D01*
X016540Y005245D02*
X019047Y005245D01*
X019047Y005166D02*
X016540Y005166D01*
X016540Y005088D02*
X019047Y005088D01*
X019061Y005009D02*
X016540Y005009D01*
X016540Y004931D02*
X019093Y004931D01*
X019166Y004852D02*
X016540Y004852D01*
X016540Y004774D02*
X020950Y004774D01*
X021028Y004695D02*
X016540Y004695D01*
X016540Y004617D02*
X021107Y004617D01*
X021185Y004538D02*
X016540Y004538D01*
X016569Y004460D02*
X021264Y004460D01*
X020796Y004146D02*
X022442Y004146D01*
X022381Y004067D02*
X020835Y004067D01*
X020857Y003989D02*
X022348Y003989D01*
X022347Y003910D02*
X020857Y003910D01*
X020717Y004224D02*
X022581Y004224D01*
X022714Y004224D02*
X023797Y004224D01*
X023803Y004146D02*
X022853Y004146D01*
X022506Y005009D02*
X021563Y005009D01*
X021484Y005088D02*
X022508Y005088D01*
X022540Y005166D02*
X021406Y005166D01*
X021327Y005245D02*
X022596Y005245D01*
X022712Y005323D02*
X021249Y005323D01*
X021013Y005559D02*
X021809Y005559D01*
X021741Y005637D02*
X020935Y005637D01*
X020856Y005716D02*
X021708Y005716D01*
X021697Y005794D02*
X020778Y005794D01*
X020699Y005873D02*
X021697Y005873D01*
X021697Y005951D02*
X020621Y005951D01*
X020542Y006030D02*
X021667Y006030D01*
X020400Y005323D02*
X019707Y005323D01*
X019707Y005245D02*
X020479Y005245D01*
X020557Y005166D02*
X019707Y005166D01*
X019707Y005088D02*
X020636Y005088D01*
X020714Y005009D02*
X019694Y005009D01*
X019661Y004931D02*
X020793Y004931D01*
X020871Y004852D02*
X019589Y004852D01*
X019707Y005402D02*
X020322Y005402D01*
X020347Y006658D02*
X017375Y006658D01*
X017375Y006736D02*
X020151Y006736D01*
X020155Y006733D02*
X020155Y006733D01*
X020069Y006815D02*
X017375Y006815D01*
X017375Y006893D02*
X019987Y006893D01*
X019939Y006940D02*
X019939Y006940D01*
X019925Y006972D02*
X017375Y006972D01*
X017375Y007050D02*
X019890Y007050D01*
X019856Y007129D02*
X017375Y007129D01*
X017375Y007207D02*
X019821Y007207D01*
X019759Y007286D02*
X017375Y007286D01*
X017375Y007364D02*
X019680Y007364D01*
X019537Y007600D02*
X017375Y007600D01*
X017375Y007678D02*
X019510Y007678D01*
X019510Y007757D02*
X017375Y007757D01*
X017375Y007835D02*
X019510Y007835D01*
X019513Y007914D02*
X017375Y007914D01*
X017375Y007992D02*
X019546Y007992D01*
X019578Y008071D02*
X017375Y008071D01*
X017375Y008149D02*
X019623Y008149D01*
X019701Y008228D02*
X017375Y008228D01*
X017375Y008306D02*
X019791Y008306D01*
X019810Y008385D02*
X017375Y008385D01*
X017375Y008463D02*
X019810Y008463D01*
X019810Y008542D02*
X017375Y008542D01*
X017375Y008620D02*
X019810Y008620D01*
X019810Y008699D02*
X017375Y008699D01*
X017375Y008777D02*
X019810Y008777D01*
X019810Y008856D02*
X017375Y008856D01*
X017375Y008934D02*
X019810Y008934D01*
X019810Y009013D02*
X017375Y009013D01*
X017375Y009091D02*
X019810Y009091D01*
X019810Y009170D02*
X017375Y009170D01*
X017375Y009248D02*
X019810Y009248D01*
X019810Y009327D02*
X017375Y009327D01*
X017375Y009405D02*
X019810Y009405D01*
X019810Y009484D02*
X017375Y009484D01*
X017375Y009562D02*
X018490Y009562D01*
X019547Y009562D02*
X019810Y009562D01*
X019810Y009641D02*
X019676Y009641D01*
X019754Y009719D02*
X019810Y009719D01*
X021290Y010545D02*
X021290Y012028D01*
X021211Y012217D01*
X021067Y012362D01*
X021067Y012362D01*
X020877Y012441D01*
X016050Y012441D01*
X016050Y014195D01*
X016060Y014205D01*
X016060Y014554D01*
X015940Y014674D01*
X014600Y014674D01*
X014591Y014665D02*
X014422Y014665D01*
X014422Y014586D02*
X014512Y014586D01*
X014480Y014508D02*
X014422Y014508D01*
X014415Y014429D02*
X014396Y014429D01*
X014374Y014351D02*
X014363Y014351D01*
X014360Y014272D02*
X014287Y014272D01*
X014360Y014194D02*
X014150Y014194D01*
X014360Y014115D02*
X012665Y014115D01*
X012665Y014037D02*
X014360Y014037D01*
X014360Y013958D02*
X012665Y013958D01*
X012665Y013880D02*
X014360Y013880D01*
X014360Y013801D02*
X012665Y013801D01*
X012665Y013723D02*
X014360Y013723D01*
X014360Y013644D02*
X012665Y013644D01*
X012665Y013566D02*
X014360Y013566D01*
X014360Y013487D02*
X012665Y013487D01*
X012665Y013409D02*
X014360Y013409D01*
X014348Y013330D02*
X012665Y013330D01*
X012727Y013252D02*
X014320Y013252D01*
X014287Y013173D02*
X012792Y013173D01*
X012824Y013095D02*
X014241Y013095D01*
X014178Y013016D02*
X012827Y013016D01*
X012817Y012938D02*
X014091Y012938D01*
X013971Y012859D02*
X012862Y012859D01*
X011985Y013330D02*
X010305Y013330D01*
X010290Y013409D02*
X011985Y013409D01*
X011985Y013487D02*
X010290Y013487D01*
X010290Y013566D02*
X011985Y013566D01*
X011985Y013644D02*
X010290Y013644D01*
X010290Y013723D02*
X011985Y013723D01*
X011985Y013801D02*
X010290Y013801D01*
X010290Y013880D02*
X011985Y013880D01*
X011985Y013958D02*
X010290Y013958D01*
X010290Y014037D02*
X011985Y014037D01*
X011985Y014115D02*
X010290Y014115D01*
X010290Y014194D02*
X010499Y014194D01*
X010362Y014272D02*
X010290Y014272D01*
X010749Y014194D02*
X011985Y014194D01*
X011985Y014272D02*
X010886Y014272D01*
X010962Y014351D02*
X011985Y014351D01*
X011985Y014429D02*
X010994Y014429D01*
X011021Y014508D02*
X011985Y014508D01*
X011985Y014586D02*
X011021Y014586D01*
X011021Y014665D02*
X011985Y014665D01*
X011985Y014743D02*
X011571Y014743D01*
X011686Y014822D02*
X011985Y014822D01*
X011985Y014900D02*
X011757Y014900D01*
X011806Y014979D02*
X011985Y014979D01*
X011985Y015057D02*
X011838Y015057D01*
X011858Y015136D02*
X011985Y015136D01*
X011985Y015214D02*
X011365Y015214D01*
X011365Y015264D02*
X011285Y015264D01*
X011285Y015764D01*
X011280Y015764D02*
X010881Y015764D01*
X010960Y015842D02*
X012059Y015842D01*
X012013Y015764D02*
X011369Y015764D01*
X011365Y015764D02*
X011365Y015264D01*
X011365Y015293D02*
X011285Y015293D01*
X011285Y015371D02*
X011365Y015371D01*
X011365Y015450D02*
X011285Y015450D01*
X011285Y015528D02*
X011365Y015528D01*
X011365Y015607D02*
X011285Y015607D01*
X011285Y015685D02*
X011365Y015685D01*
X011609Y015685D02*
X011985Y015685D01*
X011985Y015607D02*
X011706Y015607D01*
X011771Y015528D02*
X011985Y015528D01*
X011985Y015450D02*
X011816Y015450D01*
X011845Y015371D02*
X011985Y015371D01*
X011985Y015293D02*
X011861Y015293D01*
X011365Y015136D02*
X011285Y015136D01*
X011285Y015214D02*
X010290Y015214D01*
X010290Y015136D02*
X010391Y015136D01*
X010313Y015057D02*
X010290Y015057D01*
X010290Y015293D02*
X010789Y015293D01*
X010805Y015371D02*
X010290Y015371D01*
X010290Y015450D02*
X010834Y015450D01*
X010878Y015528D02*
X010290Y015528D01*
X010290Y015607D02*
X010944Y015607D01*
X011041Y015685D02*
X010738Y015685D01*
X010510Y015685D02*
X010290Y015685D01*
X010290Y015764D02*
X010367Y015764D01*
X010992Y015921D02*
X012145Y015921D01*
X012505Y015921D02*
X013657Y015921D01*
X013629Y015999D02*
X011021Y015999D01*
X011021Y016078D02*
X013629Y016078D01*
X013629Y016156D02*
X011021Y016156D01*
X012591Y015842D02*
X013690Y015842D01*
X013768Y015764D02*
X013369Y015764D01*
X013367Y015764D02*
X013365Y015764D01*
X013285Y015764D01*
X013282Y015764D01*
X013198Y015751D01*
X013118Y015725D01*
X013042Y015686D01*
X012973Y015636D01*
X012913Y015576D01*
X012863Y015507D01*
X012824Y015432D01*
X012798Y015351D01*
X012785Y015267D01*
X012785Y015264D01*
X013285Y015264D01*
X013285Y015184D01*
X013365Y015184D01*
X013365Y015264D01*
X013865Y015264D01*
X013865Y015267D01*
X013852Y015351D01*
X013825Y015432D01*
X013787Y015507D01*
X013737Y015576D01*
X013677Y015636D01*
X013608Y015686D01*
X013532Y015725D01*
X013451Y015751D01*
X013367Y015764D01*
X013365Y015764D02*
X013365Y015264D01*
X013285Y015264D01*
X013285Y015764D01*
X013280Y015764D02*
X012636Y015764D01*
X012665Y015685D02*
X013041Y015685D01*
X012944Y015607D02*
X012665Y015607D01*
X012665Y015528D02*
X012878Y015528D01*
X012834Y015450D02*
X012665Y015450D01*
X012665Y015371D02*
X012805Y015371D01*
X012789Y015293D02*
X012665Y015293D01*
X012665Y015214D02*
X013285Y015214D01*
X013285Y015184D02*
X012785Y015184D01*
X012785Y015182D01*
X012798Y015098D01*
X012824Y015017D01*
X012863Y014941D01*
X012913Y014872D01*
X012973Y014812D01*
X013042Y014762D01*
X013118Y014724D01*
X013198Y014698D01*
X013282Y014684D01*
X013285Y014684D01*
X013285Y015184D01*
X013285Y015136D02*
X013365Y015136D01*
X013365Y015057D02*
X013285Y015057D01*
X013285Y014979D02*
X013365Y014979D01*
X013365Y014900D02*
X013285Y014900D01*
X013285Y014822D02*
X013365Y014822D01*
X013365Y014743D02*
X013285Y014743D01*
X013079Y014743D02*
X012665Y014743D01*
X012665Y014665D02*
X013629Y014665D01*
X013629Y014743D02*
X013571Y014743D01*
X013629Y014586D02*
X012665Y014586D01*
X012665Y014508D02*
X013629Y014508D01*
X013655Y014429D02*
X012665Y014429D01*
X012665Y014351D02*
X013688Y014351D01*
X013764Y014272D02*
X012665Y014272D01*
X012665Y014194D02*
X013901Y014194D01*
X012963Y014822D02*
X012665Y014822D01*
X012665Y014900D02*
X012893Y014900D01*
X012844Y014979D02*
X012665Y014979D01*
X012665Y015057D02*
X012811Y015057D01*
X012792Y015136D02*
X012665Y015136D01*
X013285Y015293D02*
X013365Y015293D01*
X013365Y015371D02*
X013285Y015371D01*
X013285Y015450D02*
X013365Y015450D01*
X013365Y015528D02*
X013285Y015528D01*
X013285Y015607D02*
X013365Y015607D01*
X013365Y015685D02*
X013285Y015685D01*
X013609Y015685D02*
X013912Y015685D01*
X013771Y015528D02*
X014360Y015528D01*
X014360Y015450D02*
X013816Y015450D01*
X013845Y015371D02*
X014360Y015371D01*
X014360Y015293D02*
X013861Y015293D01*
X013706Y015607D02*
X014360Y015607D01*
X014360Y015685D02*
X014139Y015685D01*
X014283Y015764D02*
X014360Y015764D01*
X016050Y015764D02*
X032158Y015764D01*
X032158Y015842D02*
X016050Y015842D01*
X016050Y015921D02*
X032158Y015921D01*
X032158Y015999D02*
X016050Y015999D01*
X016050Y016078D02*
X032158Y016078D01*
X032158Y016156D02*
X016050Y016156D01*
X016050Y016235D02*
X032158Y016235D01*
X032158Y016313D02*
X016050Y016313D01*
X016050Y016392D02*
X032158Y016392D01*
X032158Y016470D02*
X016050Y016470D01*
X016050Y016549D02*
X032158Y016549D01*
X032158Y016627D02*
X016050Y016627D01*
X016050Y016706D02*
X032158Y016706D01*
X032158Y016784D02*
X016050Y016784D01*
X016050Y016863D02*
X032158Y016863D01*
X032158Y016941D02*
X016050Y016941D01*
X016050Y017020D02*
X032158Y017020D01*
X032158Y017098D02*
X016052Y017098D01*
X016026Y017177D02*
X032158Y017177D01*
X032158Y017255D02*
X015995Y017255D01*
X015945Y017334D02*
X032158Y017334D01*
X032158Y017412D02*
X015869Y017412D01*
X015837Y017446D02*
X015837Y017446D01*
X015734Y017491D02*
X032158Y017491D01*
X032158Y017569D02*
X015692Y017569D01*
X015709Y017523D02*
X015709Y017523D01*
X015692Y017648D02*
X032158Y017648D01*
X032158Y017726D02*
X015692Y017726D01*
X015692Y017805D02*
X032158Y017805D01*
X032158Y017883D02*
X015692Y017883D01*
X015692Y017962D02*
X032158Y017962D01*
X032158Y018040D02*
X015692Y018040D01*
X015692Y018119D02*
X032158Y018119D01*
X032149Y018197D02*
X015692Y018197D01*
X015692Y018276D02*
X032114Y018276D01*
X032010Y018354D02*
X015692Y018354D01*
X016050Y015685D02*
X032158Y015685D01*
X032158Y015607D02*
X016050Y015607D01*
X016050Y015528D02*
X032158Y015528D01*
X032158Y015450D02*
X016050Y015450D01*
X016050Y015371D02*
X032158Y015371D01*
X032158Y015293D02*
X016050Y015293D01*
X016050Y015214D02*
X032158Y015214D01*
X032158Y015136D02*
X016060Y015136D01*
X016060Y015057D02*
X032158Y015057D01*
X032158Y014979D02*
X016060Y014979D01*
X016060Y014900D02*
X032158Y014900D01*
X032158Y014822D02*
X016057Y014822D01*
X015979Y014743D02*
X032158Y014743D01*
X032158Y014665D02*
X015949Y014665D01*
X016028Y014586D02*
X032158Y014586D01*
X032158Y014508D02*
X016060Y014508D01*
X016060Y014429D02*
X032158Y014429D01*
X032158Y014351D02*
X016060Y014351D01*
X016060Y014272D02*
X032158Y014272D01*
X032158Y014194D02*
X016050Y014194D01*
X016050Y014115D02*
X032158Y014115D01*
X032158Y014037D02*
X016050Y014037D01*
X016050Y013958D02*
X032158Y013958D01*
X032158Y013880D02*
X016050Y013880D01*
X016050Y013801D02*
X032158Y013801D01*
X032158Y013723D02*
X016050Y013723D01*
X016050Y013644D02*
X032158Y013644D01*
X032158Y013566D02*
X016050Y013566D01*
X016050Y013487D02*
X032158Y013487D01*
X032158Y013409D02*
X016050Y013409D01*
X016050Y013330D02*
X032158Y013330D01*
X032158Y013252D02*
X031565Y013252D01*
X031474Y013289D02*
X031144Y013289D01*
X030839Y013163D01*
X030605Y012929D01*
X030479Y012624D01*
X016050Y012624D01*
X016050Y012702D02*
X030511Y012702D01*
X030479Y012624D02*
X030479Y012294D01*
X030605Y011988D01*
X030839Y011755D01*
X031144Y011628D01*
X031474Y011628D01*
X031780Y011755D01*
X032013Y011988D01*
X032140Y012294D01*
X032140Y012624D01*
X032158Y012624D01*
X032140Y012624D02*
X032013Y012929D01*
X031780Y013163D01*
X031474Y013289D01*
X031755Y013173D02*
X032158Y013173D01*
X032158Y013095D02*
X031848Y013095D01*
X031926Y013016D02*
X032158Y013016D01*
X032158Y012938D02*
X032005Y012938D01*
X032042Y012859D02*
X032158Y012859D01*
X032158Y012781D02*
X032075Y012781D01*
X032107Y012702D02*
X032158Y012702D01*
X032158Y012545D02*
X032140Y012545D01*
X032140Y012467D02*
X032158Y012467D01*
X032158Y012388D02*
X032140Y012388D01*
X032140Y012310D02*
X032158Y012310D01*
X032158Y012231D02*
X032114Y012231D01*
X032082Y012153D02*
X032158Y012153D01*
X032158Y012074D02*
X032049Y012074D01*
X032017Y011996D02*
X032158Y011996D01*
X032158Y011917D02*
X031942Y011917D01*
X031864Y011839D02*
X032158Y011839D01*
X032158Y011760D02*
X031785Y011760D01*
X031604Y011682D02*
X032158Y011682D01*
X032158Y011603D02*
X027607Y011603D01*
X027607Y011525D02*
X032158Y011525D01*
X032158Y011446D02*
X027607Y011446D01*
X027607Y011368D02*
X032158Y011368D01*
X032158Y011289D02*
X027607Y011289D01*
X027607Y011211D02*
X032158Y011211D01*
X032158Y011132D02*
X027607Y011132D01*
X027607Y011054D02*
X032158Y011054D01*
X032158Y010975D02*
X027607Y010975D01*
X027607Y010897D02*
X032158Y010897D01*
X032158Y010818D02*
X027607Y010818D01*
X026641Y010269D02*
X021563Y010269D01*
X021485Y010347D02*
X026281Y010347D01*
X026165Y010357D02*
X026165Y010357D01*
X026007Y010426D02*
X021407Y010426D01*
X021330Y010504D02*
X025827Y010504D01*
X025797Y010517D02*
X025797Y010517D01*
X025729Y010583D02*
X021290Y010583D01*
X021290Y010545D02*
X022185Y009641D01*
X022107Y009719D02*
X027281Y009719D01*
X027261Y009722D02*
X027261Y009722D01*
X027116Y009798D02*
X022030Y009798D01*
X021952Y009876D02*
X026965Y009876D01*
X026933Y009893D02*
X026933Y009893D01*
X026876Y009955D02*
X021874Y009955D01*
X021796Y010033D02*
X026805Y010033D01*
X026733Y010112D02*
X021718Y010112D01*
X021641Y010190D02*
X026673Y010190D01*
X025387Y010661D02*
X024869Y010661D01*
X024964Y010740D02*
X025292Y010740D01*
X025220Y010818D02*
X025035Y010818D01*
X025068Y010897D02*
X025187Y010897D01*
X025155Y010975D02*
X025100Y010975D01*
X025103Y011054D02*
X025152Y011054D01*
X025152Y011132D02*
X025103Y011132D01*
X025086Y011211D02*
X025169Y011211D01*
X025202Y011289D02*
X025054Y011289D01*
X024600Y011603D02*
X021290Y011603D01*
X021290Y011525D02*
X024469Y011525D01*
X024388Y011660D02*
X024388Y011660D01*
X024366Y011682D02*
X021290Y011682D01*
X021290Y011760D02*
X024287Y011760D01*
X024212Y011836D02*
X024212Y011836D01*
X024211Y011839D02*
X021290Y011839D01*
X021290Y011917D02*
X024190Y011917D01*
X024169Y011996D02*
X021290Y011996D01*
X021271Y012074D02*
X024148Y012074D01*
X024148Y012076D02*
X024148Y012076D01*
X024168Y012153D02*
X021238Y012153D01*
X021211Y012217D02*
X021211Y012217D01*
X021197Y012231D02*
X024189Y012231D01*
X024210Y012310D02*
X021119Y012310D01*
X021003Y012388D02*
X024284Y012388D01*
X024212Y012316D02*
X024212Y012316D01*
X024363Y012467D02*
X016050Y012467D01*
X016050Y012545D02*
X024588Y012545D01*
X024667Y012545D02*
X026519Y012545D01*
X026346Y012467D02*
X025819Y012467D01*
X025931Y012388D02*
X026268Y012388D01*
X026210Y012310D02*
X025996Y012310D01*
X026035Y012231D02*
X026177Y012231D01*
X026152Y012153D02*
X026056Y012153D01*
X026152Y012074D02*
X025668Y012074D01*
X025668Y012153D02*
X025588Y012153D01*
X025588Y012231D02*
X025668Y012231D01*
X025668Y012310D02*
X025588Y012310D01*
X025588Y012388D02*
X025668Y012388D01*
X025668Y012467D02*
X025588Y012467D01*
X025436Y012467D02*
X024892Y012467D01*
X024868Y012492D02*
X024868Y012492D01*
X024971Y012388D02*
X025324Y012388D01*
X025259Y012310D02*
X025045Y012310D01*
X025066Y012231D02*
X025220Y012231D01*
X025199Y012153D02*
X025087Y012153D01*
X025108Y012076D02*
X025108Y012076D01*
X025107Y012074D02*
X025588Y012074D01*
X025200Y011996D02*
X025086Y011996D01*
X025065Y011917D02*
X025221Y011917D01*
X025262Y011839D02*
X025044Y011839D01*
X025043Y011836D02*
X025043Y011836D01*
X025993Y011839D02*
X026211Y011839D01*
X026179Y011917D02*
X026034Y011917D01*
X026056Y011996D02*
X026152Y011996D01*
X026909Y012467D02*
X030479Y012467D01*
X030479Y012545D02*
X026736Y012545D01*
X026987Y012388D02*
X030479Y012388D01*
X030479Y012310D02*
X027045Y012310D01*
X027123Y012231D02*
X030505Y012231D01*
X030537Y012153D02*
X027275Y012153D01*
X027248Y012180D02*
X027248Y012180D01*
X027353Y012074D02*
X030570Y012074D01*
X030602Y011996D02*
X027432Y011996D01*
X027481Y011947D02*
X027481Y011947D01*
X027493Y011917D02*
X030676Y011917D01*
X030755Y011839D02*
X027526Y011839D01*
X027558Y011760D02*
X030833Y011760D01*
X031015Y011682D02*
X027591Y011682D01*
X030176Y010740D02*
X032158Y010740D01*
X032158Y010661D02*
X030418Y010661D01*
X030567Y010583D02*
X032158Y010583D01*
X032158Y010504D02*
X030675Y010504D01*
X030783Y010426D02*
X032158Y010426D01*
X032158Y010347D02*
X030852Y010347D01*
X030909Y010269D02*
X032158Y010269D01*
X032158Y010190D02*
X030966Y010190D01*
X031023Y010112D02*
X032158Y010112D01*
X032158Y010033D02*
X031056Y010033D01*
X031037Y010093D02*
X031037Y010093D01*
X031082Y009955D02*
X032158Y009955D01*
X028396Y007129D02*
X028159Y007129D01*
X028299Y007207D02*
X028318Y007207D01*
X027746Y007129D02*
X027703Y007129D01*
X027090Y007364D02*
X022765Y007364D01*
X023186Y007286D02*
X027012Y007286D01*
X026933Y007207D02*
X023260Y007207D01*
X023293Y007129D02*
X026895Y007129D01*
X026877Y007050D02*
X023307Y007050D01*
X023307Y006972D02*
X026877Y006972D01*
X026868Y006893D02*
X023279Y006893D01*
X023232Y006815D02*
X026847Y006815D01*
X026847Y006736D02*
X023137Y006736D01*
X024283Y005245D02*
X027557Y005245D01*
X027649Y005166D02*
X024315Y005166D01*
X016775Y006187D02*
X016540Y006187D01*
X016540Y006265D02*
X016775Y006265D01*
X016775Y006344D02*
X016540Y006344D01*
X016540Y006422D02*
X016775Y006422D01*
X016775Y006501D02*
X016540Y006501D01*
X016540Y006579D02*
X016775Y006579D01*
X016775Y006658D02*
X016540Y006658D01*
X016540Y006736D02*
X016775Y006736D01*
X016775Y006815D02*
X016540Y006815D01*
X016540Y006893D02*
X016775Y006893D01*
X016775Y006972D02*
X016540Y006972D01*
X016540Y007050D02*
X016775Y007050D01*
X016775Y007129D02*
X016540Y007129D01*
X016540Y007207D02*
X016775Y007207D01*
X016775Y007286D02*
X016540Y007286D01*
X016540Y007364D02*
X016775Y007364D01*
X016775Y007443D02*
X016540Y007443D01*
X016540Y007521D02*
X016775Y007521D01*
X016775Y007600D02*
X016540Y007600D01*
X016540Y007678D02*
X016775Y007678D01*
X016775Y007757D02*
X016540Y007757D01*
X016540Y007835D02*
X016775Y007835D01*
X016775Y007914D02*
X016540Y007914D01*
X016540Y007992D02*
X016775Y007992D01*
X016775Y008071D02*
X016545Y008071D01*
X016553Y008149D02*
X016775Y008149D01*
X016775Y008228D02*
X016546Y008228D01*
X016555Y008171D02*
X016555Y008171D01*
X016533Y008306D02*
X016775Y008306D01*
X016775Y008385D02*
X016521Y008385D01*
X016508Y008463D02*
X016775Y008463D01*
X016775Y008542D02*
X016488Y008542D01*
X016500Y008515D02*
X016500Y008515D01*
X016454Y008620D02*
X016775Y008620D01*
X016775Y008699D02*
X016419Y008699D01*
X016385Y008777D02*
X016775Y008777D01*
X016775Y008856D02*
X016343Y008856D01*
X016360Y008834D02*
X016360Y008834D01*
X016282Y008934D02*
X016775Y008934D01*
X016775Y009013D02*
X016220Y009013D01*
X016159Y009091D02*
X016775Y009091D01*
X016775Y009170D02*
X016065Y009170D01*
X016145Y009108D02*
X016145Y009108D01*
X016145Y009108D01*
X015962Y009248D02*
X016775Y009248D01*
X016775Y009327D02*
X015763Y009327D01*
X015833Y009315D02*
X015833Y009315D01*
X015249Y009327D02*
X012675Y009327D01*
X012677Y009248D02*
X015073Y009248D01*
X015210Y009321D02*
X015210Y009321D01*
X014928Y009170D02*
X012677Y009170D01*
X012677Y009091D02*
X014855Y009091D01*
X014781Y009013D02*
X012677Y009013D01*
X012659Y009405D02*
X016775Y009405D01*
X016775Y009484D02*
X012625Y009484D01*
X012590Y009562D02*
X016775Y009562D01*
X016775Y009641D02*
X012545Y009641D01*
X012463Y009719D02*
X016775Y009719D01*
X016797Y009798D02*
X012381Y009798D01*
X012365Y009814D02*
X012365Y009814D01*
X012204Y009876D02*
X016797Y009876D01*
X016797Y009955D02*
X009708Y009955D01*
X009630Y010033D02*
X016797Y010033D01*
X021290Y010661D02*
X024387Y010661D01*
X024292Y010740D02*
X021290Y010740D01*
X021290Y010818D02*
X024220Y010818D01*
X024187Y010897D02*
X021290Y010897D01*
X021290Y010975D02*
X024155Y010975D01*
X024152Y011054D02*
X021290Y011054D01*
X021290Y011132D02*
X024152Y011132D01*
X024169Y011211D02*
X021290Y011211D01*
X021290Y011289D02*
X024202Y011289D01*
X024247Y011368D02*
X021290Y011368D01*
X021290Y011446D02*
X024326Y011446D01*
X030544Y012781D02*
X016050Y012781D01*
X016050Y012859D02*
X030576Y012859D01*
X030614Y012938D02*
X016050Y012938D01*
X016050Y013016D02*
X030692Y013016D01*
X030771Y013095D02*
X016050Y013095D01*
X016050Y013173D02*
X030864Y013173D01*
X031054Y013252D02*
X016050Y013252D01*
X011928Y013252D02*
X010336Y013252D01*
X010371Y013173D02*
X011863Y013173D01*
X011831Y013095D02*
X010420Y013095D01*
X010486Y013016D02*
X011827Y013016D01*
X011592Y012938D02*
X010575Y012938D01*
X010696Y012859D02*
X011456Y012859D01*
X011406Y012781D02*
X011098Y012781D01*
X011221Y012702D02*
X011361Y012702D01*
X011347Y012624D02*
X011270Y012624D01*
X011290Y012545D02*
X011347Y012545D01*
X011347Y012467D02*
X011290Y012467D01*
X011290Y012388D02*
X011347Y012388D01*
X011347Y012310D02*
X011290Y012310D01*
X011290Y012231D02*
X011347Y012231D01*
X011347Y012153D02*
X011290Y012153D01*
X011290Y012074D02*
X011347Y012074D01*
X011347Y011996D02*
X011290Y011996D01*
X011290Y011917D02*
X011347Y011917D01*
X011347Y011839D02*
X011290Y011839D01*
X011290Y011760D02*
X011347Y011760D01*
X011347Y011682D02*
X011290Y011682D01*
X011290Y011603D02*
X011347Y011603D01*
X011347Y011525D02*
X011290Y011525D01*
X011290Y011446D02*
X011347Y011446D01*
X011347Y011368D02*
X011290Y011368D01*
X011290Y011289D02*
X011347Y011289D01*
X011347Y011211D02*
X011290Y011211D01*
X011290Y011132D02*
X011347Y011132D01*
X011347Y011054D02*
X011290Y011054D01*
X011290Y010975D02*
X011347Y010975D01*
X011347Y010897D02*
X011290Y010897D01*
X011290Y010818D02*
X011347Y010818D01*
X011347Y010740D02*
X011290Y010740D01*
X011290Y010661D02*
X011347Y010661D01*
X011347Y010583D02*
X011290Y010583D01*
X011290Y010504D02*
X011347Y010504D01*
X011350Y010426D02*
X011287Y010426D01*
X011254Y010347D02*
X011382Y010347D01*
X011415Y010269D02*
X011183Y010269D01*
X011486Y010190D02*
X009474Y010190D01*
X009552Y010112D02*
X011576Y010112D01*
X011556Y010120D02*
X011556Y010120D01*
X010017Y010221D02*
X010017Y010221D01*
X009807Y010269D02*
X009396Y010269D01*
X009318Y010347D02*
X009729Y010347D01*
X009650Y010426D02*
X009240Y010426D01*
X009162Y010504D02*
X009572Y010504D01*
X009494Y010583D02*
X009084Y010583D01*
X009006Y010661D02*
X009416Y010661D01*
X009338Y010740D02*
X008927Y010740D01*
X008849Y010818D02*
X009260Y010818D01*
X009182Y010897D02*
X008771Y010897D01*
X008693Y010975D02*
X009103Y010975D01*
X009025Y011054D02*
X008615Y011054D01*
X008537Y011132D02*
X008947Y011132D01*
X008869Y011211D02*
X008459Y011211D01*
X008381Y011289D02*
X008791Y011289D01*
X008713Y011368D02*
X008303Y011368D01*
X008225Y011446D02*
X008635Y011446D01*
X008556Y011525D02*
X008147Y011525D01*
X008069Y011603D02*
X008478Y011603D01*
X008400Y011682D02*
X007991Y011682D01*
X007913Y011760D02*
X008322Y011760D01*
X008244Y011839D02*
X007835Y011839D01*
X007757Y011917D02*
X008166Y011917D01*
X008088Y011996D02*
X007678Y011996D01*
X007600Y012074D02*
X008010Y012074D01*
X007931Y012153D02*
X007522Y012153D01*
X007444Y012231D02*
X007853Y012231D01*
X007775Y012310D02*
X007366Y012310D01*
X007288Y012388D02*
X007697Y012388D01*
X007619Y012467D02*
X007210Y012467D01*
X007132Y012545D02*
X007575Y012545D01*
X007560Y012583D02*
X007560Y012583D01*
X007560Y012624D02*
X007054Y012624D01*
X006976Y012702D02*
X007560Y012702D01*
X007560Y012781D02*
X006927Y012781D01*
X006927Y012859D02*
X007560Y012859D01*
X007560Y012938D02*
X006927Y012938D01*
X006927Y013016D02*
X007560Y013016D01*
X007560Y013095D02*
X006927Y013095D01*
X006927Y013173D02*
X007541Y013173D01*
X007440Y013252D02*
X006927Y013252D01*
X006927Y013330D02*
X007361Y013330D01*
X007317Y013409D02*
X006927Y013409D01*
X006927Y013487D02*
X007284Y013487D01*
X007254Y013566D02*
X006927Y013566D01*
X006927Y013644D02*
X007254Y013644D01*
X007254Y013723D02*
X006927Y013723D01*
X006927Y013801D02*
X007259Y013801D01*
X007291Y013880D02*
X006927Y013880D01*
X006927Y013958D02*
X007324Y013958D01*
X007377Y014037D02*
X006927Y014037D01*
X006927Y014115D02*
X007456Y014115D01*
X007560Y014194D02*
X006927Y014194D01*
X006927Y014272D02*
X007560Y014272D01*
X007560Y014351D02*
X006927Y014351D01*
X006927Y014429D02*
X007560Y014429D01*
X007560Y014508D02*
X006945Y014508D01*
X006947Y014586D02*
X007560Y014586D01*
X007560Y014665D02*
X006938Y014665D01*
X006927Y014743D02*
X007560Y014743D01*
X007560Y014822D02*
X006947Y014822D01*
X006947Y014900D02*
X007560Y014900D01*
X007560Y014979D02*
X006932Y014979D01*
X006899Y015057D02*
X007560Y015057D01*
X007560Y015136D02*
X006821Y015136D01*
X006433Y015136D02*
X006324Y015136D01*
X006341Y015214D02*
X007560Y015214D01*
X007560Y015293D02*
X006340Y015293D01*
X006356Y015057D02*
X006296Y015057D01*
X006285Y015028D02*
X006285Y015028D01*
X006323Y014979D02*
X006236Y014979D01*
X006307Y014900D02*
X006158Y014900D01*
X006123Y014866D02*
X006123Y014866D01*
X006003Y014822D02*
X006307Y014822D01*
X006327Y014743D02*
X005766Y014743D01*
X005740Y014665D02*
X006317Y014665D01*
X006307Y014586D02*
X005740Y014586D01*
X005740Y014508D02*
X006310Y014508D01*
X006327Y014429D02*
X005740Y014429D01*
X005740Y014351D02*
X006327Y014351D01*
X006327Y014272D02*
X005872Y014272D01*
X006078Y014194D02*
X006327Y014194D01*
X006327Y014115D02*
X006192Y014115D01*
X006262Y014037D02*
X006327Y014037D01*
X004210Y014037D02*
X001192Y014037D01*
X001192Y014115D02*
X004210Y014115D01*
X004210Y014194D02*
X001192Y014194D01*
X001192Y014272D02*
X004210Y014272D01*
X004210Y014351D02*
X001192Y014351D01*
X001192Y014429D02*
X004210Y014429D01*
X004210Y014508D02*
X001192Y014508D01*
X001192Y014586D02*
X004210Y014586D01*
X004210Y014665D02*
X001192Y014665D01*
X001192Y014743D02*
X004210Y014743D01*
X004210Y014822D02*
X001192Y014822D01*
X001192Y014900D02*
X004210Y014900D01*
X004210Y014979D02*
X001192Y014979D01*
X001192Y015057D02*
X004210Y015057D01*
X004210Y015136D02*
X001192Y015136D01*
X001192Y015214D02*
X004210Y015214D01*
X004210Y015293D02*
X001192Y015293D01*
X001192Y015371D02*
X004210Y015371D01*
X004210Y015450D02*
X001192Y015450D01*
X001192Y015528D02*
X004210Y015528D01*
X004210Y015607D02*
X001192Y015607D01*
X001192Y015685D02*
X004210Y015685D01*
X004210Y015764D02*
X001192Y015764D01*
X001192Y015842D02*
X004210Y015842D01*
X004210Y015921D02*
X001192Y015921D01*
X001192Y015999D02*
X004210Y015999D01*
X004210Y016078D02*
X001192Y016078D01*
X001192Y016156D02*
X004210Y016156D01*
X004210Y016235D02*
X001192Y016235D01*
X001192Y016313D02*
X004210Y016313D01*
X004210Y016392D02*
X001192Y016392D01*
X001192Y016470D02*
X004210Y016470D01*
X004210Y016549D02*
X001192Y016549D01*
X001192Y016627D02*
X004210Y016627D01*
X004210Y016706D02*
X001192Y016706D01*
X001192Y016784D02*
X004210Y016784D01*
X004210Y016863D02*
X001527Y016863D01*
X001640Y016941D02*
X004210Y016941D01*
X004210Y017020D02*
X001717Y017020D01*
X001750Y017098D02*
X004210Y017098D01*
X004235Y017177D02*
X001783Y017177D01*
X001788Y017255D02*
X004267Y017255D01*
X004288Y017306D02*
X004288Y017306D01*
X004316Y017334D02*
X001788Y017334D01*
X001773Y017412D02*
X004395Y017412D01*
X004433Y017451D02*
X004433Y017451D01*
X004530Y017491D02*
X001741Y017491D01*
X001695Y017569D02*
X008942Y017569D01*
X008942Y017648D02*
X001617Y017648D01*
X001472Y017726D02*
X008942Y017726D01*
X008942Y017805D02*
X001192Y017805D01*
X001192Y017883D02*
X008942Y017883D01*
X008942Y017962D02*
X001192Y017962D01*
X001192Y018040D02*
X008942Y018040D01*
X008942Y018119D02*
X001192Y018119D01*
X001200Y018197D02*
X008942Y018197D01*
X008942Y018276D02*
X001234Y018276D01*
X001337Y018354D02*
X008942Y018354D01*
X011285Y015057D02*
X011365Y015057D01*
X011365Y014979D02*
X011285Y014979D01*
X011285Y014900D02*
X011365Y014900D01*
X011365Y014822D02*
X011285Y014822D01*
X011285Y014743D02*
X011365Y014743D01*
X011079Y014743D02*
X011021Y014743D01*
X004210Y013958D02*
X001192Y013958D01*
X001192Y013880D02*
X004210Y013880D01*
X004210Y013801D02*
X001192Y013801D01*
X001192Y013723D02*
X004210Y013723D01*
X004210Y013644D02*
X001192Y013644D01*
X001192Y013566D02*
X004210Y013566D01*
X004210Y013487D02*
X001192Y013487D01*
X001192Y013409D02*
X004210Y013409D01*
X004210Y013330D02*
X001192Y013330D01*
X001192Y013252D02*
X001775Y013252D01*
X001865Y013289D02*
X001560Y013163D01*
X001326Y012929D01*
X001200Y012624D01*
X001192Y012624D01*
X001200Y012624D02*
X001200Y012294D01*
X001326Y011988D01*
X001560Y011755D01*
X001865Y011628D01*
X002196Y011628D01*
X002501Y011755D01*
X002735Y011988D01*
X002861Y012294D01*
X002861Y012624D01*
X004210Y012624D01*
X004210Y012702D02*
X002829Y012702D01*
X002861Y012624D02*
X002735Y012929D01*
X002501Y013163D01*
X002196Y013289D01*
X001865Y013289D01*
X001585Y013173D02*
X001192Y013173D01*
X001192Y013095D02*
X001492Y013095D01*
X001414Y013016D02*
X001192Y013016D01*
X001192Y012938D02*
X001335Y012938D01*
X001297Y012859D02*
X001192Y012859D01*
X001192Y012781D02*
X001265Y012781D01*
X001232Y012702D02*
X001192Y012702D01*
X001192Y012545D02*
X001200Y012545D01*
X001192Y012467D02*
X001200Y012467D01*
X001192Y012388D02*
X001200Y012388D01*
X001192Y012310D02*
X001200Y012310D01*
X001192Y012231D02*
X001226Y012231D01*
X001258Y012153D02*
X001192Y012153D01*
X001192Y012074D02*
X001291Y012074D01*
X001323Y011996D02*
X001192Y011996D01*
X001192Y011917D02*
X001397Y011917D01*
X001476Y011839D02*
X001192Y011839D01*
X001192Y011760D02*
X001554Y011760D01*
X001736Y011682D02*
X001192Y011682D01*
X001192Y011603D02*
X004210Y011603D01*
X004210Y011525D02*
X001192Y011525D01*
X001192Y011446D02*
X004210Y011446D01*
X004210Y011368D02*
X001192Y011368D01*
X001192Y011289D02*
X004210Y011289D01*
X004210Y011211D02*
X001192Y011211D01*
X001192Y011132D02*
X004210Y011132D01*
X004210Y011054D02*
X001192Y011054D01*
X001192Y010975D02*
X004210Y010975D01*
X004210Y010897D02*
X001192Y010897D01*
X001192Y010818D02*
X004210Y010818D01*
X004210Y010740D02*
X001192Y010740D01*
X001192Y010661D02*
X004210Y010661D01*
X004210Y010583D02*
X001192Y010583D01*
X001192Y010504D02*
X004210Y010504D01*
X004210Y010426D02*
X001192Y010426D01*
X001192Y010347D02*
X004220Y010347D01*
X004253Y010269D02*
X001192Y010269D01*
X001192Y010190D02*
X004286Y010190D01*
X004288Y010184D02*
X004288Y010184D01*
X004360Y010112D02*
X001192Y010112D01*
X001192Y010033D02*
X004447Y010033D01*
X006921Y009955D02*
X001192Y009955D01*
X001192Y009876D02*
X006999Y009876D01*
X007078Y009798D02*
X001192Y009798D01*
X001192Y009719D02*
X007156Y009719D01*
X007235Y009641D02*
X001192Y009641D01*
X001192Y009562D02*
X007313Y009562D01*
X007392Y009484D02*
X001192Y009484D01*
X001192Y009405D02*
X007470Y009405D01*
X007549Y009327D02*
X001192Y009327D01*
X001192Y009248D02*
X007627Y009248D01*
X007706Y009170D02*
X001192Y009170D01*
X001192Y009091D02*
X007784Y009091D01*
X007863Y009013D02*
X001192Y009013D01*
X001192Y008934D02*
X007941Y008934D01*
X007960Y008856D02*
X001192Y008856D01*
X001192Y008777D02*
X007960Y008777D01*
X007960Y008699D02*
X001192Y008699D01*
X001192Y008620D02*
X007960Y008620D01*
X007960Y008542D02*
X001192Y008542D01*
X001192Y008463D02*
X007960Y008463D01*
X007960Y008385D02*
X001192Y008385D01*
X001192Y008306D02*
X007960Y008306D01*
X007960Y008228D02*
X001192Y008228D01*
X001192Y008149D02*
X007960Y008149D01*
X007960Y008071D02*
X001192Y008071D01*
X001192Y007992D02*
X007960Y007992D01*
X007960Y007914D02*
X001192Y007914D01*
X001192Y007835D02*
X007960Y007835D01*
X007960Y007757D02*
X001192Y007757D01*
X001192Y007678D02*
X007960Y007678D01*
X007960Y007600D02*
X001192Y007600D01*
X001192Y007521D02*
X007960Y007521D01*
X007960Y007443D02*
X001192Y007443D01*
X001192Y007364D02*
X007960Y007364D01*
X007960Y007286D02*
X001192Y007286D01*
X001192Y007207D02*
X007960Y007207D01*
X007960Y007129D02*
X001192Y007129D01*
X001192Y007050D02*
X007960Y007050D01*
X007960Y006972D02*
X001192Y006972D01*
X001192Y006893D02*
X007960Y006893D01*
X007960Y006815D02*
X001192Y006815D01*
X001192Y006736D02*
X007960Y006736D01*
X007960Y006658D02*
X001192Y006658D01*
X001192Y006579D02*
X007960Y006579D01*
X007960Y006501D02*
X001192Y006501D01*
X001192Y006422D02*
X007960Y006422D01*
X007960Y006344D02*
X001192Y006344D01*
X001192Y006265D02*
X007960Y006265D01*
X007960Y006187D02*
X001192Y006187D01*
X001192Y006108D02*
X007960Y006108D01*
X007960Y006030D02*
X001192Y006030D01*
X001192Y005951D02*
X007960Y005951D01*
X007960Y005873D02*
X001192Y005873D01*
X001192Y005794D02*
X007960Y005794D01*
X007960Y005716D02*
X001192Y005716D01*
X001192Y005637D02*
X007960Y005637D01*
X007960Y005559D02*
X001192Y005559D01*
X001192Y005480D02*
X007960Y005480D01*
X007960Y005402D02*
X001192Y005402D01*
X001192Y005323D02*
X007960Y005323D01*
X007960Y005245D02*
X001192Y005245D01*
X001192Y005166D02*
X007598Y005166D01*
X007463Y005088D02*
X001192Y005088D01*
X001192Y005009D02*
X007385Y005009D01*
X007343Y004931D02*
X001192Y004931D01*
X001192Y004852D02*
X007310Y004852D01*
X007296Y004774D02*
X001192Y004774D01*
X001192Y004695D02*
X007296Y004695D01*
X007301Y004617D02*
X001192Y004617D01*
X001192Y004538D02*
X007334Y004538D01*
X007366Y004460D02*
X001192Y004460D01*
X001192Y004381D02*
X007441Y004381D01*
X007545Y004303D02*
X001192Y004303D01*
X001192Y004224D02*
X007772Y004224D01*
X007549Y004146D02*
X001192Y004146D01*
X001192Y004067D02*
X007443Y004067D01*
X007367Y003989D02*
X001192Y003989D01*
X001192Y003910D02*
X007334Y003910D01*
X007944Y005166D02*
X007960Y005166D01*
X012024Y005323D02*
X012844Y005323D01*
X012835Y005301D02*
X012900Y005459D01*
X013021Y005580D01*
X013179Y005646D01*
X013350Y005646D01*
X013508Y005580D01*
X013629Y005459D01*
X013695Y005301D01*
X013695Y005130D01*
X013629Y004972D01*
X013615Y004957D01*
X013615Y004896D01*
X013569Y004786D01*
X013485Y004701D01*
X013374Y004656D01*
X013255Y004656D01*
X013145Y004701D01*
X013060Y004786D01*
X013036Y004845D01*
X013021Y004851D01*
X012900Y004972D01*
X012835Y005130D01*
X012835Y005301D01*
X012835Y005245D02*
X012027Y005245D01*
X012030Y005166D02*
X012835Y005166D01*
X012852Y005088D02*
X012033Y005088D01*
X012034Y005084D02*
X012024Y005338D01*
X012096Y005581D01*
X012244Y005788D01*
X012331Y005862D01*
X012465Y005930D01*
X012465Y005930D01*
X012729Y006166D01*
X012922Y006463D01*
X012974Y006622D01*
X012990Y006661D01*
X012990Y006671D01*
X012993Y006681D01*
X012990Y006724D01*
X012990Y006768D01*
X013034Y006745D01*
X013108Y006721D01*
X013184Y006709D01*
X013184Y006948D01*
X013264Y006948D01*
X013264Y006709D01*
X013340Y006721D01*
X013414Y006745D01*
X013460Y006768D01*
X013460Y006275D01*
X013451Y006171D01*
X013549Y005963D01*
X013738Y005831D01*
X013811Y005825D01*
X013822Y005821D01*
X013864Y005821D01*
X013905Y005817D01*
X013916Y005821D01*
X013945Y005821D01*
X013940Y005764D01*
X013950Y005741D01*
X013950Y004689D01*
X013953Y004685D01*
X013950Y004678D01*
X013950Y004636D01*
X013946Y004595D01*
X013950Y004584D01*
X013950Y003903D01*
X013949Y003901D01*
X013947Y003896D01*
X013943Y003892D01*
X013937Y003891D01*
X013932Y003892D01*
X013928Y003896D01*
X013925Y003901D01*
X013925Y003903D01*
X013925Y004156D01*
X013884Y004253D01*
X013810Y004328D01*
X013810Y004328D01*
X013610Y004528D01*
X013513Y004568D01*
X013285Y004568D01*
X013278Y004571D01*
X013233Y004568D01*
X013187Y004568D01*
X013180Y004566D01*
X013173Y004565D01*
X013132Y004546D01*
X013113Y004538D01*
X013006Y004497D01*
X012754Y004468D01*
X012506Y004521D01*
X012288Y004653D01*
X012125Y004847D01*
X012034Y005084D01*
X012062Y005009D02*
X012885Y005009D01*
X012941Y004931D02*
X012093Y004931D01*
X012123Y004852D02*
X013020Y004852D01*
X013072Y004774D02*
X012186Y004774D01*
X012252Y004695D02*
X013159Y004695D01*
X013115Y004538D02*
X012477Y004538D01*
X012347Y004617D02*
X013948Y004617D01*
X013950Y004695D02*
X013471Y004695D01*
X013557Y004774D02*
X013950Y004774D01*
X013950Y004852D02*
X013597Y004852D01*
X013615Y004931D02*
X013950Y004931D01*
X013950Y005009D02*
X013645Y005009D01*
X013677Y005088D02*
X013950Y005088D01*
X013950Y005166D02*
X013695Y005166D01*
X013695Y005245D02*
X013950Y005245D01*
X013950Y005323D02*
X013686Y005323D01*
X013653Y005402D02*
X013950Y005402D01*
X013950Y005480D02*
X013608Y005480D01*
X013530Y005559D02*
X013950Y005559D01*
X013950Y005637D02*
X013370Y005637D01*
X013160Y005637D02*
X012137Y005637D01*
X012090Y005559D02*
X013000Y005559D01*
X012922Y005480D02*
X012066Y005480D01*
X012043Y005402D02*
X012877Y005402D01*
X012252Y005794D02*
X013943Y005794D01*
X013940Y005764D02*
X013940Y005764D01*
X013950Y005716D02*
X012193Y005716D01*
X012354Y005873D02*
X013678Y005873D01*
X013738Y005831D02*
X013738Y005831D01*
X013565Y005951D02*
X012489Y005951D01*
X012577Y006030D02*
X013517Y006030D01*
X013549Y005963D02*
X013549Y005963D01*
X013480Y006108D02*
X012664Y006108D01*
X012729Y006166D02*
X012729Y006166D01*
X012729Y006166D01*
X012742Y006187D02*
X013452Y006187D01*
X013451Y006171D02*
X013451Y006171D01*
X013459Y006265D02*
X012793Y006265D01*
X012844Y006344D02*
X013460Y006344D01*
X013460Y006422D02*
X012895Y006422D01*
X012922Y006463D02*
X012922Y006463D01*
X012934Y006501D02*
X013460Y006501D01*
X013460Y006579D02*
X012960Y006579D01*
X012989Y006658D02*
X013460Y006658D01*
X013460Y006736D02*
X013388Y006736D01*
X013264Y006736D02*
X013184Y006736D01*
X013184Y006815D02*
X013264Y006815D01*
X013264Y006893D02*
X013184Y006893D01*
X013060Y006736D02*
X012990Y006736D01*
X013227Y007200D02*
X013227Y006177D01*
X013927Y005477D01*
X015277Y005477D01*
X015300Y005479D01*
X015323Y005484D01*
X015345Y005493D01*
X015365Y005506D01*
X015383Y005521D01*
X015398Y005539D01*
X015411Y005559D01*
X015420Y005581D01*
X015425Y005604D01*
X015427Y005627D01*
X015427Y005927D01*
X015477Y005952D01*
X013950Y004538D02*
X013585Y004538D01*
X013678Y004460D02*
X013950Y004460D01*
X013950Y004381D02*
X013757Y004381D01*
X013835Y004303D02*
X013950Y004303D01*
X013950Y004224D02*
X013897Y004224D01*
X013925Y004146D02*
X013950Y004146D01*
X013950Y004067D02*
X013925Y004067D01*
X013925Y003989D02*
X013950Y003989D01*
X013950Y003910D02*
X013925Y003910D01*
X004210Y011682D02*
X002325Y011682D01*
X002507Y011760D02*
X004210Y011760D01*
X004210Y011839D02*
X002585Y011839D01*
X002664Y011917D02*
X004210Y011917D01*
X004210Y011996D02*
X002738Y011996D01*
X002770Y012074D02*
X004210Y012074D01*
X004210Y012153D02*
X002803Y012153D01*
X002835Y012231D02*
X004210Y012231D01*
X004210Y012310D02*
X002861Y012310D01*
X002861Y012388D02*
X004210Y012388D01*
X004210Y012467D02*
X002861Y012467D01*
X002861Y012545D02*
X004210Y012545D01*
X004210Y012781D02*
X002796Y012781D01*
X002764Y012859D02*
X004210Y012859D01*
X004210Y012938D02*
X002726Y012938D01*
X002648Y013016D02*
X004210Y013016D01*
X004210Y013095D02*
X002569Y013095D01*
X002476Y013173D02*
X004210Y013173D01*
X004210Y013252D02*
X002286Y013252D01*
X001480Y018377D02*
X001480Y018377D01*
X001427Y018377D02*
X001427Y018377D01*
D23*
X007119Y014835D03*
X007119Y014535D03*
X007419Y014535D03*
X007419Y014835D03*
X007419Y014235D03*
X007119Y014235D03*
X007119Y013085D03*
X007119Y012785D03*
X007419Y012785D03*
X007419Y013085D03*
X012127Y013027D03*
X012527Y013027D03*
X016219Y012635D03*
X016084Y009985D03*
X015784Y009985D03*
X016384Y009985D03*
X016684Y009985D03*
X016657Y008935D03*
X016657Y008635D03*
X016657Y008335D03*
X016657Y008035D03*
X015796Y008226D03*
X015496Y008266D03*
X015196Y008226D03*
X017447Y008885D03*
X017747Y008885D03*
X018047Y008885D03*
X018872Y008110D03*
X019172Y008110D03*
X019072Y007810D03*
X018772Y007810D03*
X018022Y006860D03*
X017722Y006860D03*
X018222Y006360D03*
X018522Y006360D03*
X018822Y006360D03*
X019122Y006360D03*
X018117Y004925D03*
X017827Y004925D03*
X017827Y004625D03*
X018117Y004625D03*
X018117Y004325D03*
X017827Y004325D03*
X016327Y003777D03*
X015696Y003547D03*
X015867Y004546D03*
X016396Y005709D03*
X016617Y006125D03*
X016617Y006425D03*
X016617Y006725D03*
X015827Y005952D03*
X015477Y005952D03*
X013377Y006827D03*
X013077Y006827D03*
X012184Y005505D03*
X012184Y005205D03*
X013315Y004956D03*
X013334Y004555D03*
X010125Y005326D03*
X009925Y004076D03*
X012734Y009155D03*
X012734Y009480D03*
X012734Y009805D03*
X018677Y009827D03*
X018927Y009827D03*
X022192Y006590D03*
X022492Y006590D03*
X022792Y006590D03*
X024027Y005077D03*
X024567Y005015D03*
X024867Y005015D03*
X025042Y004815D03*
X026192Y004900D03*
X026192Y004650D03*
X026192Y004400D03*
X027592Y004600D03*
X027842Y004750D03*
X027592Y004900D03*
X028721Y004384D03*
X028177Y003727D03*
X026742Y005900D03*
X026442Y005900D03*
X026092Y006390D03*
X026092Y006690D03*
X026092Y006990D03*
X027827Y007452D03*
X028077Y007452D03*
X028177Y006727D03*
X022647Y003927D03*
X020767Y004565D03*
X020467Y004565D03*
X020167Y004565D03*
X013525Y016110D03*
X013225Y016110D03*
X012925Y016110D03*
X012625Y016110D03*
X012325Y016110D03*
X012025Y016110D03*
X011725Y016110D03*
X011425Y016110D03*
X011125Y016110D03*
D24*
X011727Y012727D02*
X012272Y012727D01*
X012325Y012574D01*
X011727Y012727D02*
X011704Y012725D01*
X011681Y012720D01*
X011659Y012711D01*
X011639Y012698D01*
X011621Y012683D01*
X011606Y012665D01*
X011593Y012645D01*
X011584Y012623D01*
X011579Y012600D01*
X011577Y012577D01*
X011577Y010527D01*
X011579Y010497D01*
X011584Y010467D01*
X011593Y010438D01*
X011606Y010411D01*
X011621Y010385D01*
X011640Y010361D01*
X011661Y010340D01*
X011685Y010321D01*
X011711Y010306D01*
X011738Y010293D01*
X011767Y010284D01*
X011797Y010279D01*
X011827Y010277D01*
X016827Y010277D01*
X016853Y010275D01*
X016879Y010270D01*
X016904Y010262D01*
X016927Y010250D01*
X016949Y010236D01*
X016968Y010218D01*
X016986Y010199D01*
X017000Y010177D01*
X017012Y010154D01*
X017020Y010129D01*
X017025Y010103D01*
X017027Y010077D01*
X017027Y009673D01*
X017075Y009626D01*
X018677Y009827D02*
X018677Y009926D01*
X024625Y011076D02*
X024628Y011076D01*
X024630Y011119D01*
X024636Y011162D01*
X024645Y011205D01*
X024658Y011246D01*
X024675Y011286D01*
X024695Y011325D01*
X024718Y011361D01*
X024744Y011395D01*
X024774Y011427D01*
X024806Y011457D01*
X024840Y011483D01*
X024877Y011506D01*
X024915Y011526D01*
X024955Y011543D01*
X024996Y011556D01*
X025039Y011565D01*
X025082Y011571D01*
X025125Y011573D01*
X025772Y011573D01*
X025772Y011574D02*
X025773Y011574D01*
X025774Y011575D01*
X025774Y011576D01*
X025775Y011576D02*
X026879Y011576D01*
X027377Y011477D02*
X027375Y011524D01*
X027370Y011571D01*
X027360Y011617D01*
X027348Y011662D01*
X027331Y011706D01*
X027312Y011748D01*
X027289Y011789D01*
X027263Y011828D01*
X027234Y011865D01*
X027202Y011900D01*
X027167Y011932D01*
X027130Y011961D01*
X027091Y011987D01*
X027050Y012010D01*
X027008Y012029D01*
X026964Y012046D01*
X026919Y012058D01*
X026873Y012068D01*
X026826Y012073D01*
X026779Y012075D01*
X026779Y012076D02*
X026628Y012076D01*
X026628Y012076D01*
X026628Y012076D01*
X026628Y012076D01*
X025628Y011076D02*
X025655Y011023D01*
X025686Y010973D01*
X025720Y010925D01*
X025758Y010879D01*
X025798Y010836D01*
X025841Y010795D01*
X025887Y010758D01*
X025935Y010723D01*
X025985Y010692D01*
X026037Y010665D01*
X026091Y010640D01*
X026147Y010620D01*
X026203Y010603D01*
X026261Y010590D01*
X026319Y010581D01*
X026378Y010575D01*
X026378Y010576D02*
X026625Y010576D01*
X026975Y010729D02*
X026973Y010765D01*
X026967Y010801D01*
X026958Y010836D01*
X026945Y010870D01*
X026929Y010902D01*
X026909Y010933D01*
X026886Y010961D01*
X026860Y010987D01*
X026832Y011010D01*
X026801Y011030D01*
X026769Y011046D01*
X026735Y011059D01*
X026700Y011068D01*
X026664Y011074D01*
X026628Y011076D01*
X026879Y011575D02*
X026912Y011573D01*
X026945Y011568D01*
X026977Y011558D01*
X027008Y011545D01*
X027038Y011529D01*
X027065Y011510D01*
X027090Y011488D01*
X027112Y011463D01*
X027131Y011436D01*
X027147Y011406D01*
X027160Y011375D01*
X027170Y011343D01*
X027175Y011310D01*
X027177Y011277D01*
X027177Y010828D01*
X027175Y010776D01*
X027377Y010777D02*
X027377Y011477D01*
X027377Y010777D02*
X027379Y010747D01*
X027384Y010717D01*
X027393Y010688D01*
X027406Y010661D01*
X027421Y010635D01*
X027440Y010611D01*
X027461Y010590D01*
X027485Y010571D01*
X027511Y010556D01*
X027538Y010543D01*
X027567Y010534D01*
X027597Y010529D01*
X027627Y010527D01*
X029927Y010527D01*
X029875Y010326D02*
X027625Y010326D01*
X027578Y010126D02*
X029875Y010126D01*
X029875Y009926D02*
X027475Y009926D01*
X026825Y010426D02*
X026808Y010453D01*
X026789Y010479D01*
X026766Y010502D01*
X026742Y010523D01*
X026715Y010541D01*
X026686Y010556D01*
X026656Y010567D01*
X026625Y010576D01*
X026975Y010726D02*
X026975Y010729D01*
X026977Y010682D01*
X026982Y010635D01*
X026992Y010588D01*
X027005Y010543D01*
X027021Y010498D01*
X027041Y010455D01*
X027064Y010414D01*
X027090Y010375D01*
X027119Y010337D01*
X027152Y010303D01*
X027186Y010270D01*
X027224Y010241D01*
X027263Y010215D01*
X027304Y010192D01*
X027347Y010172D01*
X027392Y010156D01*
X027437Y010143D01*
X027484Y010133D01*
X027531Y010128D01*
X027578Y010126D01*
X027475Y009926D02*
X027419Y009936D01*
X027363Y009949D01*
X027308Y009966D01*
X027255Y009987D01*
X027203Y010012D01*
X027154Y010040D01*
X027106Y010072D01*
X027061Y010107D01*
X027018Y010145D01*
X026978Y010186D01*
X026941Y010229D01*
X026907Y010275D01*
X026876Y010324D01*
X026849Y010374D01*
X026825Y010426D01*
X027175Y010776D02*
X027177Y010734D01*
X027183Y010693D01*
X027192Y010653D01*
X027205Y010613D01*
X027222Y010575D01*
X027242Y010539D01*
X027266Y010505D01*
X027292Y010473D01*
X027322Y010443D01*
X027354Y010417D01*
X027388Y010393D01*
X027424Y010373D01*
X027462Y010356D01*
X027502Y010343D01*
X027542Y010334D01*
X027583Y010328D01*
X027625Y010326D01*
X025850Y011076D02*
X025628Y011076D01*
X025625Y011073D01*
X025625Y011075D01*
X025627Y011076D01*
X025628Y011076D01*
X029875Y010326D02*
X029931Y010324D01*
X029986Y010319D01*
X030041Y010310D01*
X030095Y010297D01*
X030148Y010281D01*
X030200Y010261D01*
X030251Y010238D01*
X030300Y010212D01*
X030347Y010183D01*
X030392Y010150D01*
X030435Y010115D01*
X030476Y010077D01*
X030514Y010036D01*
X030549Y009993D01*
X030582Y009948D01*
X030611Y009901D01*
X030637Y009852D01*
X030660Y009801D01*
X030680Y009749D01*
X030696Y009696D01*
X030709Y009642D01*
X030718Y009587D01*
X030723Y009532D01*
X030725Y009476D01*
X030725Y006876D01*
X030525Y006876D02*
X030525Y009476D01*
X030325Y009476D02*
X030325Y006876D01*
X030927Y006877D02*
X030925Y006823D01*
X030920Y006768D01*
X030911Y006714D01*
X030898Y006661D01*
X030882Y006608D01*
X030862Y006557D01*
X030839Y006508D01*
X030812Y006460D01*
X030782Y006414D01*
X030749Y006370D01*
X030713Y006328D01*
X030675Y006289D01*
X030633Y006253D01*
X030590Y006220D01*
X030544Y006190D01*
X030496Y006163D01*
X030447Y006139D01*
X030396Y006118D01*
X030344Y006102D01*
X030291Y006088D01*
X030237Y006079D01*
X030182Y006073D01*
X030127Y006071D01*
X028927Y006071D01*
X028821Y006260D02*
X028792Y006259D01*
X028764Y006254D01*
X028736Y006246D01*
X028710Y006235D01*
X028685Y006221D01*
X028662Y006203D01*
X028641Y006184D01*
X028623Y006161D01*
X028608Y006137D01*
X028595Y006111D01*
X028586Y006084D01*
X028580Y006056D01*
X028578Y006027D01*
X028577Y006027D02*
X028577Y004902D01*
X027727Y004052D01*
X024252Y004052D01*
X024225Y004054D01*
X024198Y004059D01*
X024172Y004067D01*
X024147Y004078D01*
X024124Y004092D01*
X024103Y004109D01*
X024084Y004128D01*
X024067Y004149D01*
X024053Y004172D01*
X024042Y004197D01*
X024034Y004223D01*
X024029Y004250D01*
X024027Y004277D01*
X024027Y005077D01*
X022647Y003927D02*
X022702Y003852D01*
X027827Y003852D01*
X028775Y004800D01*
X028775Y005626D01*
X028775Y005625D02*
X028777Y005625D01*
X028778Y005627D01*
X028778Y005628D01*
X028777Y005628D02*
X028777Y005927D01*
X028779Y005950D01*
X028785Y005973D01*
X028795Y005994D01*
X028807Y006013D01*
X028822Y006030D01*
X028840Y006045D01*
X028860Y006056D01*
X028882Y006065D01*
X028904Y006070D01*
X028927Y006071D01*
X028821Y006261D02*
X030120Y006261D01*
X030090Y006441D02*
X028464Y006441D01*
X028870Y006631D02*
X030080Y006631D01*
X030120Y006261D02*
X030168Y006263D01*
X030215Y006269D01*
X030262Y006279D01*
X030308Y006292D01*
X030353Y006309D01*
X030396Y006330D01*
X030438Y006354D01*
X030478Y006380D01*
X030515Y006410D01*
X030550Y006443D01*
X030582Y006479D01*
X030611Y006517D01*
X030638Y006557D01*
X030661Y006599D01*
X030680Y006642D01*
X030697Y006687D01*
X030709Y006733D01*
X030718Y006781D01*
X030723Y006828D01*
X030725Y006876D01*
X030927Y006877D02*
X030927Y009527D01*
X030925Y009587D01*
X030920Y009648D01*
X030911Y009707D01*
X030898Y009766D01*
X030882Y009825D01*
X030862Y009882D01*
X030839Y009937D01*
X030812Y009992D01*
X030783Y010044D01*
X030750Y010095D01*
X030714Y010144D01*
X030676Y010190D01*
X030634Y010234D01*
X030590Y010276D01*
X030544Y010314D01*
X030495Y010350D01*
X030444Y010383D01*
X030392Y010412D01*
X030337Y010439D01*
X030282Y010462D01*
X030225Y010482D01*
X030166Y010498D01*
X030107Y010511D01*
X030048Y010520D01*
X029987Y010525D01*
X029927Y010527D01*
X029875Y009926D02*
X029917Y009924D01*
X029958Y009918D01*
X029998Y009909D01*
X030038Y009896D01*
X030076Y009879D01*
X030112Y009859D01*
X030146Y009835D01*
X030178Y009809D01*
X030208Y009779D01*
X030234Y009747D01*
X030258Y009713D01*
X030278Y009677D01*
X030295Y009639D01*
X030308Y009599D01*
X030317Y009559D01*
X030323Y009518D01*
X030325Y009476D01*
X030525Y009476D02*
X030523Y009525D01*
X030518Y009573D01*
X030509Y009621D01*
X030496Y009668D01*
X030480Y009713D01*
X030461Y009758D01*
X030438Y009801D01*
X030412Y009842D01*
X030383Y009881D01*
X030351Y009918D01*
X030317Y009952D01*
X030280Y009984D01*
X030241Y010013D01*
X030200Y010039D01*
X030157Y010062D01*
X030112Y010081D01*
X030067Y010097D01*
X030020Y010110D01*
X029972Y010119D01*
X029924Y010124D01*
X029875Y010126D01*
X027965Y007886D02*
X028775Y007076D01*
X028775Y006726D01*
X028777Y006707D01*
X028782Y006690D01*
X028791Y006673D01*
X028803Y006659D01*
X028817Y006647D01*
X028834Y006638D01*
X028851Y006633D01*
X028870Y006631D01*
X028464Y006440D02*
X028432Y006442D01*
X028400Y006447D01*
X028369Y006456D01*
X028339Y006468D01*
X028311Y006484D01*
X028285Y006503D01*
X028261Y006524D01*
X028240Y006548D01*
X028221Y006574D01*
X028205Y006602D01*
X028193Y006632D01*
X028184Y006663D01*
X028179Y006695D01*
X028177Y006727D01*
X030080Y006631D02*
X030110Y006633D01*
X030139Y006638D01*
X030167Y006647D01*
X030194Y006659D01*
X030219Y006674D01*
X030242Y006693D01*
X030263Y006714D01*
X030282Y006737D01*
X030297Y006762D01*
X030309Y006789D01*
X030318Y006817D01*
X030323Y006846D01*
X030325Y006876D01*
X030525Y006876D02*
X030523Y006836D01*
X030518Y006796D01*
X030508Y006757D01*
X030496Y006719D01*
X030479Y006682D01*
X030460Y006647D01*
X030437Y006614D01*
X030411Y006583D01*
X030383Y006555D01*
X030352Y006529D01*
X030319Y006506D01*
X030284Y006487D01*
X030247Y006470D01*
X030209Y006458D01*
X030170Y006448D01*
X030130Y006443D01*
X030090Y006441D01*
X028777Y004327D02*
X028777Y003702D01*
X028775Y003672D01*
X028770Y003642D01*
X028761Y003613D01*
X028748Y003586D01*
X028733Y003560D01*
X028714Y003536D01*
X028693Y003515D01*
X028669Y003496D01*
X028643Y003481D01*
X028616Y003468D01*
X028587Y003459D01*
X028557Y003454D01*
X028527Y003452D01*
X016252Y003452D01*
X015867Y003837D01*
X015867Y004546D01*
X015477Y003766D02*
X015479Y003737D01*
X015484Y003709D01*
X015494Y003682D01*
X015506Y003657D01*
X015522Y003633D01*
X015541Y003611D01*
X015563Y003592D01*
X015586Y003576D01*
X015612Y003564D01*
X015639Y003554D01*
X015667Y003549D01*
X015696Y003547D01*
X015477Y003766D02*
X015477Y005327D01*
X015627Y005477D01*
X015627Y005702D01*
X015827Y005902D01*
X015827Y005952D01*
X016240Y005827D02*
X016259Y005809D01*
X016396Y005709D01*
X016327Y003777D02*
X016452Y003652D01*
X028127Y003652D01*
X028177Y003702D01*
X028177Y003727D01*
X028777Y004327D02*
X028776Y004339D01*
X028771Y004351D01*
X028765Y004362D01*
X028756Y004371D01*
X028745Y004377D01*
X028733Y004382D01*
X028721Y004383D01*
X013334Y004555D02*
X012550Y004555D01*
X012184Y004921D01*
X012184Y005205D01*
X013265Y005216D02*
X013315Y004956D01*
X010125Y004875D02*
X010125Y005326D01*
X010125Y004875D02*
X010123Y004832D01*
X010118Y004790D01*
X010109Y004748D01*
X010097Y004706D01*
X010081Y004667D01*
X010062Y004628D01*
X010040Y004591D01*
X010016Y004556D01*
X009988Y004523D01*
X009958Y004493D01*
X009925Y004465D01*
X009890Y004441D01*
X009853Y004419D01*
X009814Y004400D01*
X009775Y004384D01*
X009733Y004372D01*
X009691Y004363D01*
X009649Y004358D01*
X009606Y004356D01*
X008139Y004356D01*
X008193Y004146D02*
X009855Y004146D01*
X009925Y004076D01*
X008193Y004146D02*
X008154Y004144D01*
X008115Y004139D01*
X008078Y004130D01*
X008041Y004118D01*
X008005Y004102D01*
X007971Y004083D01*
X007939Y004061D01*
X007909Y004036D01*
X007881Y004008D01*
X007856Y003978D01*
X007834Y003946D01*
X007815Y003912D01*
X007799Y003876D01*
X007787Y003839D01*
X007778Y003802D01*
X007773Y003763D01*
X007771Y003724D01*
X007824Y003724D01*
X007771Y004684D02*
X007771Y004724D01*
X007773Y004688D01*
X007778Y004652D01*
X007787Y004617D01*
X007799Y004583D01*
X007814Y004551D01*
X007833Y004520D01*
X007855Y004491D01*
X007879Y004464D01*
X007906Y004440D01*
X007935Y004418D01*
X007966Y004399D01*
X007998Y004384D01*
X008032Y004372D01*
X008067Y004363D01*
X008103Y004358D01*
X008139Y004356D01*
X013224Y007203D02*
X013227Y007200D01*
D25*
X012325Y012574D02*
X012325Y015627D01*
D26*
X012325Y015627D03*
X012325Y015327D03*
D27*
X006627Y014877D02*
X006627Y012627D01*
X009627Y009611D01*
X011977Y009611D01*
X011978Y009611D02*
X012016Y009610D01*
X012054Y009605D01*
X012092Y009596D01*
X012128Y009584D01*
X012163Y009569D01*
X012197Y009550D01*
X012228Y009527D01*
X012257Y009502D01*
X012284Y009474D01*
X012307Y009444D01*
X012328Y009411D01*
X012345Y009377D01*
X012359Y009341D01*
X012369Y009304D01*
X012375Y009266D01*
X012378Y009227D01*
X012377Y009227D02*
X012377Y008927D01*
X012379Y008897D01*
X012384Y008867D01*
X012393Y008838D01*
X012406Y008811D01*
X012421Y008785D01*
X012440Y008761D01*
X012461Y008740D01*
X012485Y008721D01*
X012511Y008706D01*
X012538Y008693D01*
X012567Y008684D01*
X012597Y008679D01*
X012627Y008677D01*
X014625Y008677D01*
X014625Y008676D01*
X014626Y008675D01*
X014627Y008675D01*
X014627Y008676D02*
X014925Y008676D01*
X014925Y008675D02*
X014946Y008719D01*
X014971Y008760D01*
X014999Y008800D01*
X015029Y008838D01*
X015063Y008873D01*
X015098Y008905D01*
X015137Y008935D01*
X015177Y008962D01*
X015219Y008986D01*
X015263Y009006D01*
X015309Y009023D01*
X015355Y009037D01*
X015403Y009047D01*
X015451Y009053D01*
X015499Y009056D01*
X015547Y009055D01*
X015596Y009051D01*
X015643Y009042D01*
X015690Y009031D01*
X015736Y009016D01*
X015781Y008997D01*
X015824Y008975D01*
X016240Y008026D02*
X016240Y005827D01*
X016240Y004365D01*
X016677Y003927D01*
X020177Y003927D01*
X020327Y003947D01*
X021439Y004709D02*
X022836Y004709D01*
X021439Y004709D02*
X020371Y005777D01*
X019377Y005777D01*
X019377Y005407D01*
X019377Y005777D02*
X017277Y005777D01*
X017251Y005779D01*
X017224Y005784D01*
X017199Y005792D01*
X017175Y005804D01*
X017153Y005819D01*
X017133Y005836D01*
X017116Y005856D01*
X017101Y005879D01*
X017089Y005902D01*
X017081Y005927D01*
X017076Y005954D01*
X017074Y005980D01*
X017075Y005980D02*
X017075Y009626D01*
X017077Y009660D01*
X017083Y009693D01*
X017092Y009725D01*
X017105Y009756D01*
X017121Y009786D01*
X017140Y009813D01*
X017163Y009838D01*
X017188Y009861D01*
X017215Y009880D01*
X017245Y009896D01*
X017276Y009909D01*
X017308Y009918D01*
X017341Y009924D01*
X017375Y009926D01*
X018677Y009926D01*
X019105Y009926D01*
X019290Y010111D01*
X020115Y007786D02*
X020115Y007497D01*
X020477Y007497D01*
X020484Y007494D01*
X020491Y007494D01*
X020497Y007497D01*
X020502Y007502D01*
X020114Y007370D02*
X020117Y007328D01*
X020124Y007287D01*
X020134Y007246D01*
X020148Y007207D01*
X020166Y007169D01*
X020187Y007133D01*
X020212Y007099D01*
X020239Y007067D01*
X020269Y007039D01*
X020302Y007013D01*
X020337Y006990D01*
X020374Y006970D01*
X020413Y006954D01*
X020453Y006942D01*
X020494Y006933D01*
X020535Y006928D01*
X020577Y006927D01*
X021127Y006927D01*
X022027Y006107D01*
X022677Y007027D02*
X022377Y007327D01*
X021327Y007327D01*
X020115Y007370D02*
X020115Y007497D01*
X016239Y008025D02*
X016243Y008089D01*
X016244Y008153D01*
X016240Y008216D01*
X016233Y008279D01*
X016222Y008342D01*
X016207Y008404D01*
X016189Y008465D01*
X016167Y008525D01*
X016141Y008583D01*
X016113Y008640D01*
X016080Y008694D01*
X016045Y008747D01*
X016006Y008798D01*
X015965Y008846D01*
X015921Y008892D01*
X015874Y008935D01*
X015824Y008975D01*
X027177Y007027D02*
X027177Y006777D01*
X027177Y007027D02*
X027965Y007815D01*
X027965Y007886D01*
D28*
X028077Y007452D02*
X027827Y007452D01*
X027177Y006777D02*
X027177Y006477D01*
X022977Y007027D02*
X022677Y007027D01*
X022027Y006107D02*
X022027Y005807D01*
X022836Y005017D02*
X022836Y005009D01*
X022836Y004709D01*
X020527Y003947D02*
X020327Y003947D01*
X020177Y003947D01*
X019377Y005107D02*
X019377Y005407D01*
D29*
X019377Y005407D03*
X019377Y005107D03*
X020177Y003947D03*
X020527Y003947D03*
X022836Y004709D03*
X022836Y005009D03*
X022027Y005807D03*
X022027Y006107D03*
X022677Y007027D03*
X022977Y007027D03*
X027177Y006777D03*
X027177Y006477D03*
X006627Y014577D03*
X006627Y014877D03*
D30*
X018677Y009827D02*
X018927Y009827D01*
X021027Y007327D02*
X021327Y007327D01*
D31*
X021327Y007327D03*
X021027Y007327D03*
X020502Y007502D03*
D32*
X015496Y007842D02*
X015496Y008476D01*
M02*
